<svg xmlns="http://www.w3.org/2000/svg" viewBox="0 0 288 121"><g fill="#0075B8"><path d="M17.6 1c1.8 2.7 3.7 4.7 6.5 6.8 2.7 2 5.6 3.6 8.3 4.7-.6.7-1 1.3-1.4 2.2-3-1.5-5.9-3.3-8.5-5.4-2.7-2.1-4.2-3.8-6.1-6.4-1.7 2.4-3 4-5.4 6-2.6 2.3-5.4 4.1-8.6 5.7-.4-.8-.7-1.2-1.5-2C3.8 11.4 7 9.4 9.3 7.5c2.4-2 4.2-4.1 5.7-6.5h2.6zM10 14.5c-1.4 0-2.2 0-3.1.2v-2.3c.9.1 1.6.2 3 .2h12.9c1.4 0 2.1 0 3-.2v2.3c-.9-.1-1.6-.2-3.1-.2h-5.4v5.1h6.2c1.4 0 2.3 0 3.1-.2v2.3c-.9-.1-1.7-.2-3.1-.2h-6.2v6.1h10.2c1.5 0 2.7-.1 3.7-.2v2.5c-1.1-.2-2.3-.2-3.6-.2h-22c-1.4 0-2.6.1-3.7.2v-2.5c1 .1 2.1.2 3.7.2h9.6v-6.1H9.5c-1.4 0-2.2 0-3.1.2v-2.3c.8.1 1.7.2 3.1.2h5.6v-5.1H10zM59.5 4.1c2.2-.3 2.9-.4 3.8-.7h.2c.2 0 .4.1.5.3.2.4.5 1.7.5 2s-.1.3-.7.3c-2.2 0-4.2.5-6 1.5-4.2 2.2-7 6.9-7 11.4 0 3.3 1.9 5.7 5.6 7.1 1.4.5 2.2.7 3.9.9.2 0 .4.1.4.4 0 .5-.2 1.4-.4 2-.1.2-.2.3-.5.3-.6 0-2.7-.6-4.1-1-4.8-1.8-7.2-5-7.2-9.8 0-3.1 1.1-6 3.1-8.6 1.1-1.3 2-2.1 4.1-3.5C43 8.9 41 9.3 39.4 10.1c-.3.1-.5.2-.6.2-.3 0-.4-.1-.7-.5-.4-.7-.7-1.5-.9-2.5 1.9-.1 2.5-.1 8.4-1l13.9-2.2zM85 19.4c-2 4.6-4.3 6.9-7 6.9-1.5 0-3-.9-4-2.4-.9-1.3-1.4-3.5-1.4-5.7 0-4.5 2.1-8.6 5.6-11.1 2.5-1.8 5.5-2.7 9-2.7C94.8 4.4 99.9 9 99.9 16c0 4.6-2.2 8.4-6.4 11.1-1.5 1-3.8 2-4.4 2-.2 0-.4-.1-.6-.4-.4-.6-.9-.9-1.5-1.3 2.7-.8 4-1.3 5.5-2.3 3.3-2.2 5-5.4 5-9.1 0-3.9-2-7-5.4-8.5-1.2-.6-2.2-.8-4-.9-.5 4.9-1.6 9.2-3.1 12.8zM81 8c-3.8 1.9-6.1 5.8-6.1 10.4 0 3.2 1.3 5.4 3.2 5.4 1.5 0 3-1.8 4.6-5.1 1.6-3.5 2.7-7.7 3.2-12-1.9.1-3.4.5-4.9 1.3zM122.8.9c-.1.6-.2 2-.2 2.9 0 1.9.4 5.5.7 7.3.6 2.8 2.4 6.7 4.3 9.4 1.3 1.9 3.2 3.8 5 5.4 1.1.9 2 1.4 3.9 2.6-.8.7-1.2 1.2-1.8 2.1-4.1-2.8-6.5-5.1-8.9-8.6-2.1-3-3.4-6.2-4.4-10.7-.9 4.8-2.3 8.3-4.6 11.4-1.2 1.6-2.6 3.1-4.2 4.6-1.3 1.1-2.2 1.8-4.5 3.2-.6-.9-.9-1.4-1.8-2 3.4-1.9 4.9-3 6.9-5.1 4.7-5 7-11.4 7-19.7 0-1.4 0-2.1-.1-2.9h2.7zM155 19.4c-2 4.6-4.3 6.9-7 6.9-1.5 0-3-.9-4-2.4-.9-1.3-1.4-3.5-1.4-5.7 0-4.5 2.1-8.6 5.6-11.1 2.5-1.8 5.5-2.7 9-2.7 7.6 0 12.7 4.6 12.7 11.6 0 4.6-2.2 8.4-6.4 11.1-1.5 1-3.8 2-4.4 2-.2 0-.4-.1-.6-.4-.4-.6-.9-.9-1.5-1.3 2.7-.8 4-1.3 5.5-2.3 3.3-2.2 5-5.4 5-9.1 0-3.9-2-7-5.4-8.5-1.2-.6-2.2-.8-4-.9-.5 4.9-1.6 9.2-3.1 12.8zM151 8c-3.8 1.9-6.1 5.8-6.1 10.4 0 3.2 1.3 5.4 3.2 5.4 1.5 0 3-1.8 4.6-5.1 1.6-3.5 2.7-7.7 3.2-12-1.9.1-3.4.5-4.9 1.3zM205 4.2c-.3.5-.6.9-.8 1.3-1.6 2.7-3.9 5.1-6.8 7.2-2.9 2.2-5.5 3.5-9 4.8-.3-.7-.6-1.1-1-1.5-.4.6-.7 1-1.1 1.7-1.2-1.4-1.8-2.4-2.7-4.3.1 1.1.1 1.4.1 2.6 0 1.5.1 2.3.1 2.4V27c0 1.8.1 2.9.2 3.9h-2.5c.1-1 .2-2.1.2-3.9v-8c0-.8.1-3.8.2-5.3-1.2 4.2-2.8 7.2-5.1 9.9-.3-.8-.6-1.2-1.2-1.9 1.5-1.5 2.8-3.5 4-6 .8-1.8 1.4-3.4 1.8-4.7h-2.5c-1.2 0-1.9 0-2.6.2V8.9c.7.1 1.3.2 2.6.2h2.8V4.3c-1.4.4-2.1.5-4.1.8-.3-.7-.5-1.1-1-1.8 4.3-.5 8.3-1.7 9.9-3l1.3 1.8c-.2.1-.4.1-.8.3-1.3.6-2 .8-3.4 1.3v5.4h1.4c1 0 1.7 0 2.3-.1v2.1c-.6-.1-1.3-.1-2.3-.1h-1c.1.1.1.1.2.3.7 1.6 1.8 3.1 3.1 4.3 3.4-1 5.8-2.1 8.6-4.2-1.1-1.1-1.5-1.4-3.6-2.8l1.5-1.2c1.6 1 2.5 1.8 3.7 2.8 2.3-1.9 3.4-3.2 4.9-5.5h-7.5c-1.7 2-3.5 3.5-6.1 5-.4-.6-.7-1-1.3-1.5 3.8-2 7-5.1 7.9-7.9l2.1.7c-.6.9-1.1 1.6-1.4 2h5.3c1 0 1.6 0 2.2-.1l1.4 1.3zm-8 13c-2.6 2.5-4.8 4-8.3 5.5-.4-.7-.7-1.1-1.4-1.6 4.1-1.6 7.1-3.6 9.5-6.3.7-.8 1.2-1.5 1.5-2.3l2.1.7c-.6.8-1.3 1.7-1.8 2.2h5c1 0 1.6 0 2.3-.1l1.3 1.3c-.2.2-.2.4-.8 1.4-1.8 3-4.2 5.7-7.4 7.9-3.5 2.5-6.7 3.9-11.5 5-.3-.8-.6-1.3-1.2-1.9 4.8-1 7.9-2.2 11.2-4.5-1.3-1.3-2-1.8-4.1-3.1l1.5-1.2c2 1.3 2.6 1.8 4.1 3.1 2.6-2.1 3.8-3.5 5.4-6.1H197zM219.1 4.3c-2.6.4-3.6.5-6.2.6-.1-.6-.3-.9-.8-1.8 5.4-.1 11.7-1.2 14-2.3l1.5 1.7c-.5.1-.6.1-1.7.4-1.3.4-2.8.7-4.8 1v2.7h4c1.5 0 2.3 0 3-.2v2c-.6-.1-1.1-.1-2.7-.1h-4.3v2.1h3.5c1.3 0 2.1 0 3-.1-.1.6-.1 1.2-.1 3v3.9c0 1.7 0 2.5.1 3.2-.7-.1-1.7-.1-3.1-.1h-3.4v2.2h3.4c1.8 0 2.3 0 3.1-.1v2c-.6-.1-1.2-.1-2.8-.1h-3.7v2.4c2.1-.2 3.2-.4 6.3-.9v1.8c-4.8.8-8.2 1.2-13.8 1.8-.8.1-1.1.1-1.8.3l-.5-2.3c.6 0 1.1.1 1.4.1 1.2 0 2-.1 6.4-.5v-2.6h-3.7c-1 0-2.2.1-3 .2v-2.1c.8.1 1.6.2 3.1.2h3.7v-2.2H216c-1.4 0-2.4 0-3.1.1.1-.8.1-1.5.1-3.2v-3.9c0-1.6 0-2-.1-3 .9.1 1.8.1 3.2.1h3.1V8.3h-4.6c-1.4 0-2.2 0-3 .2v-2c.9.1 1.8.2 3 .2h4.5V4.3zm-4.3 7.8v2.4h4.3v-2.4h-4.3zm0 3.9v2.6h4.3V16h-4.3zm6.3-1.5h4.4v-2.4h-4.4v2.4zm0 4.1h4.4V16h-4.4v2.6zm16.8-10.4c1.3 0 2.2 0 3-.1-.1.7-.1 1.5-.2 3.5-.2 9.8-.7 14.9-1.6 17.1-.5 1.2-1.4 1.6-3.2 1.6-.9 0-2.1-.1-3.6-.2 0-.7-.1-1.5-.4-2.3 1.7.4 2.7.5 3.6.5 1.3 0 1.6-.2 1.9-1.2.7-2.9 1.2-9.3 1.2-16.9h-4.2c-.2 4.7-.6 8.1-1.4 10.8-1 3.9-2.4 6.5-5.3 9.9-.4-.5-1.2-1.1-2-1.5 2-1.9 2.9-3.2 3.9-5.4 1.6-3.3 2.3-7.1 2.6-13.8h-.9c-1.3 0-2.2 0-3.1.2V8c.9.1 1.6.2 3 .2h1.1V4.9c0-2.5 0-3.1-.2-4h2.5c-.1.6-.2 1.3-.2 2.6 0 2.5 0 3.6-.1 4.7h3.6zM267.6 13.8c3.1-1.6 3.9-2.1 5-3.2.8.9 1.7 2.2 1.7 2.6 0 .2-.2.4-.6.5-1.8.5-7 2.9-10 4.6.1 1.3.1 3.1.1 4.3 0 1.3 0 1.5-.1 1.6-.2.1-.8.2-1.5.2-.6 0-.7-.1-.7-.5v-1.4-1.6-1.3c-.1.1-.1.1-.3.2-3.9 2.1-5.4 3.6-5.4 5.4 0 1.9 1.8 2.6 6.1 2.6 3.1 0 7.3-.4 8.8-.8h.2c.2 0 .4.1.4.5.1.3.1 1.2.1 1.6s-.1.6-.9.6c-1.6.2-5.6.3-8.2.3-3 0-4.8-.2-6.2-.8-1.8-.8-2.7-2.1-2.7-4 0-2.8 1.6-4.5 7.8-8-.4-2.1-1-2.9-2.3-2.9-1.6 0-3.3.6-5.3 2-1.5 1-2.3 1.6-3.3 2.7-.2.2-.4.3-.6.3-.4 0-1.4-1.4-1.4-1.9 0-.1.1-.3.4-.5.7-.5 1.7-1.3 2.5-2 2.3-2 3.8-4 5.2-6.6-2.1.1-4.4.2-6.2.2-.5 0-.6-.1-.7-.5-.1-.5-.2-1-.2-1.8 1.3.1 2.1.1 3.5.1 1.2 0 3.3-.1 4.6-.2.9-2.1 1.2-3.3 1.3-4.9 2 .3 2.9.7 2.9 1.1 0 .1 0 .2-.3.6-.4.5-.4.5-1.4 3 2.9-.4 3.5-.6 6.4-1.3.3-.1.5-.1.6-.1.2 0 .3.1.4.4.1.4.2 1.2.2 1.5 0 .4-.1.4-1.2.6-3.6.7-4.1.7-7.4 1.1-1.3 2.5-2.3 4-4.1 6 1.9-1.2 3.2-1.6 4.7-1.6 2.1 0 3.3 1.1 3.9 3.6l4.2-2.3zM18.4 69.3c3.2 3.1 7.8 5.5 13.7 7-.6.6-1 1.3-1.4 2.1-6.4-2.2-9.8-4.2-13.4-7.9.1 2.1.1 2.4.1 3.2v1.8c0 1.6 0 2.5.2 3.5h-2.5c.1-1 .2-2.1.2-3.5v-1.8c0-.6.1-2.4.1-3.2-3.2 3.5-6.2 5.3-12.8 7.8-.5-.8-.7-1.2-1.5-2 5.9-1.7 10.3-4 13.2-7H5.9c-1.8 0-2.8.1-3.7.2v-2.2c.9.2 1.9.2 3.7.2h9.4v-.2c0-1 0-1.6-.1-2.3h2.4c-.1.6-.1 1.2-.1 2.3v.2h9.7c1.9 0 2.9 0 3.8-.2v2.2c-.9-.1-2-.2-3.8-.2h-8.8zm-8.6-8.7c-2.3 1.6-3.4 2.2-6.2 3.6-.7.4-.8.4-1.2.6l-.9-2.1c2.2-.7 4.8-2 7.8-4.1l.5 2zm-5.9-9.9c2.2 1.8 2.9 2.4 5 4.6l-1.5 1.5c-2.1-2.4-3-3.3-5-4.7l1.5-1.4zM14.3 52c.6-1.3.9-2.2 1.2-3.6l2.2.4c-.6 1.4-.8 1.9-1.4 3.2h3.3c1.1 0 1.5 0 2.5-.1-.1.7-.1 1.1-.1 2.6v7.1c0 1.4 0 1.9.1 2.6-.7-.1-1.5-.1-2.4-.1h-6.6c-.9 0-1.8 0-2.5.1.1-.7.1-1.2.1-2.6v-7.2c0-1.4 0-1.8-.1-2.6.9.2 1.4.2 2.6.2h1.1zm-1.6 5.2h7.5v-3.4h-7.5v3.4zm0 5.2h7.5v-3.5h-7.5v3.5zM24 58.8c3.2 1.6 5.2 2.7 7.8 4.3l-1.3 1.7c-2.7-1.9-4.7-3-7.6-4.4l1.1-1.6zm6.6-6.9c-2.1 2.4-3.6 3.7-5.8 5.4l-1.4-1.4c2.5-1.9 3.9-3.2 5.6-5.4l1.6 1.4zM46.4 50.2c.5.1.7.2.7.6 0 .2 0 .3-.1.5-.2.7-.4 1.9-.5 3.8-.2 3.3-.5 13-.5 15.3 0 3.9 1.2 5.3 4.5 5.3 2.4 0 4.7-.7 6.9-2.1 2.2-1.4 3.7-2.9 5.6-5.7.1.8.3 1.2.7 2.1.1.2.1.3.1.4 0 .7-2.3 3.2-4.5 4.7-2.7 2-5.8 3-9 3-4.6 0-6.7-2.5-6.7-7.7 0-.9.3-14.8.4-16.9v-1c0-1.1 0-1.6-.2-2.7 1.1.2 2 .3 2.6.4zM90.5 51.2c0 .2-.1.4-.4.5-.4.3-.7.6-1.5 1.5-2.3 2.9-4.3 5.1-8.2 9-.5.5-.7 1-.7 1.5s.2.9.7 1.3c2.7 2.4 5.7 5.5 8.2 8.2 1.8 2 2.7 3.2 2.7 3.4 0 .2-.4.7-1.3 1.3-.4.3-.7.5-.8.5-.1 0-.2-.1-.4-.3-1.7-2.8-5.1-6.7-10.1-11.4-1.1-1.1-1.5-1.9-1.5-3 0-.7.2-1.4.6-2 .3-.4.3-.4 2.6-2.9 2.4-2.5 4.7-5.3 6.1-7.3.5-.8.8-1.4 1.3-2.5 1.6 1 2.7 1.8 2.7 2.2zM109.5 75.7c-1.2.7-1.4.8-1.7.8-.2 0-.2 0-.7-.5-.4-.4-.8-.7-1.5-1 4.7-2.5 8.1-4.9 11.7-8.6 3.5-3.5 5.7-6.5 8.3-11.2h-7.8c-1.3 0-5.8.1-6.7.1-.4 0-.5 0-.8.1h-.5c-.4 0-.5-.7-.5-2.8 2.3.2 3 .3 10.6.3 4.3 0 5.9-.1 6.6-.3.3-.1.4-.1.6-.1.5 0 .8.2 1.4 1 .4.5.7 1 .7 1.3 0 .2-.1.3-.4.5-.5.4-1 .9-1.6 2-1.9 3.2-3.2 5.1-5.5 7.7 4.1 2.7 5.6 3.9 8.5 6.7 1.7 1.6 2.6 2.6 2.6 2.9 0 .3-1.4 1.8-1.8 1.8-.2 0-.2 0-2.4-2.5-1.6-1.8-4.3-4.2-6.6-5.9-.4-.3-.9-.7-1.9-1.4-3.4 4-6.8 6.8-10.6 9.1zM164.2 56.5c-16.6.1-19.7.2-21.8.5h-.3c-.6 0-.9-1.1-.9-2.9 2.1.2 4 .3 8.2.3 5.6 0 13.5 0 14.3-.1.7 0 1.1-.1 1.6-.2.3-.1.3-.1.5-.1.4 0 .8.4 1.4 1.2.5.6.7 1 .7 1.3 0 .2-.1.4-.4.6-.6.4-.7.6-1.7 1.8-2.8 3.6-6.4 7.2-10 10 2.3 2.3 4.5 4.9 4.5 5.4s-1.4 1.7-1.8 1.7c-.2 0-.2 0-1.2-1.4-2.3-3.2-7-7.8-10.7-10.3-.2-.1-.2-.2-.2-.3 0-.2.1-.4.7-.9.5-.5.5-.6.7-.6.5 0 3.9 2.6 6.3 4.8 3.9-3.2 7.4-6.8 10.1-10.8zM186.7 62.7c7 0 13.2-.1 15.2-.3h.2c.3 0 .5.2.5.9 0 1.6-.1 1.9-.5 1.9h-.2c-.7-.1-3.9-.1-6.3-.1-.5 0-9.3 0-12.3.1-3.5 0-4.7.1-6.7.3h-.3c-.2 0-.4-.1-.4-.3-.2-.6-.2-1.3-.3-2.8 2.2.2 4.8.3 11.1.3zM221.5 66.9c0 5.9 0 8.4.1 9.7v.2c0 .4-.1.6-.2.6-.2.1-.9.2-1.6.2-.8 0-.9-.1-.9-.5v-.2c.1-2.5.1-6.4.1-15 0-7.1-.1-9.5-.3-11.4 2.6.1 3.3.2 3.3.6 0 .1 0 .1-.1.6-.2.7-.2 1.5-.3 8.3 4.3 1.2 7.1 2.3 10.8 4.3 2 1 2.2 1.2 2.2 1.5 0 .2-.3.9-.7 1.7-.2.3-.4.5-.5.5-.1 0-.1 0-1.2-.7-3.4-2.2-6.6-3.6-10.7-4.7v4.3zM250.1 70.2c.8-1.9.8-1.9 1-2.3.1.5.3.8.7 1.4.1.1.1.3.1.4 0 .2 0 .4-.5 1.3-.6 1.5-1.5 4.2-1.8 5.4-.1.4-.1.6-.2.7-.1.1-.7.1-1.4.1-.5 0-.6-.1-.7-.5-.8-2.9-1.1-6-1.1-9.4 0-3.6.4-7.5 1.3-11.7.3-1.6.4-2.4.5-3.9 1.8.4 3 .9 3 1.2 0 .1-.1.3-.2.6-.4.6-.5 1.1-.8 2.3-1 4.4-1.5 8-1.5 11.5 0 1.8.1 3.6.4 5.9l1.2-3zm14.1 3.3c1.9 0 3.1-.2 5.8-.7h.2c.2 0 .2.1.3.2.1.2.2 1.6.2 2 0 .2-.1.3-.7.4-1.5.3-3.8.5-5.4.5-3.7 0-5.7-.5-7.4-1.9-.8-.7-1.9-2.1-1.9-2.6 0-.2.7-.8 1.7-1.4 1.2 2.6 3.3 3.5 7.2 3.5zm-6.1-18.6c1 .1 2.7.2 4 .2 2.2 0 4.5-.2 6.4-.6h.2c.2 0 .2.1.3.2.1.2.1 1.2.1 1.7 0 .3-.1.4-.5.5-1.5.2-4.4.5-6.5.5-2 0-4.3-.2-5-.3-.2 0-.2-.1-.2-.4v-.4-.2c0-.9.1-1.3.5-1.3.3 0 .5 0 .7.1zM287.5 74.2c0 2.9-2.3 5.3-5.3 5.3-2.9 0-5.3-2.3-5.3-5.3 0-2.9 2.3-5.2 5.3-5.2 3-.1 5.3 2.3 5.3 5.2zm-8.5 0c0 1.8 1.5 3.3 3.3 3.3 1.8 0 3.3-1.5 3.3-3.3 0-1.8-1.5-3.3-3.3-3.3-1.8 0-3.3 1.5-3.3 3.3z"/></g><g fill="#0075B8"><path d="M18.6 106.1c.4.1.8.1 1.5.1h3c.8 0 1.1 0 1.5-.1v1.2c-.5 0-.8-.1-1.4-.1H20c-.7 0-1.1 0-1.5.1v-1.2zm.7-2.7c.4.1.7.1 1.4.1h2.5c.6 0 .9 0 1.4-.1v1.2c-.4-.1-.8-.1-1.4-.1h-2.5c-.5 0-1 0-1.4.1v-1.2zm.1 16.6c.1-.6.1-1.2.1-1.9v-2.6c0-.7 0-1.1-.1-1.6.4.1.8.1 1.6.1h2c.8 0 1.1 0 1.4-.1 0 .3-.1.8-.1 1.5v2.7c0 .6 0 1 .1 1.5h-1.1v-.6h-2.7v1h-1.2zm0-11.2c.4.1.7.1 1.3.1h2.4c.6 0 .9 0 1.3-.1v1.2c-.4-.1-.7-.1-1.3-.1h-2.4c-.6 0-.9 0-1.3.1v-1.2zm0 2.6c.4.1.7.1 1.3.1h2.4c.6 0 .9 0 1.3-.1v1.2c-.4-.1-.7-.1-1.3-.1h-2.4c-.6 0-.9 0-1.3.1v-1.2zm1.1 6.6h2.8v-2.9h-2.8v2.9zm6-6.8c-.7 0-1 0-1.5.1V110c.5.1.9.1 1.5.1h2.6c.7 0 1.1 0 1.5-.1v1.2c-.6 0-.9-.1-1.4-.1h-.8v4.9c.9-.3 1.4-.5 2.8-1l.1 1.1c-2.1.8-3.2 1.2-5.1 1.7-.4.1-.6.2-1 .3l-.3-1.2c.7-.1 1.2-.2 2.4-.5v-5.3h-.8zm.7-3.8c-.7 0-1.4 0-1.9.1v-1.3c.5.1 1.1.1 1.9.1h3.7v-2.2c0-.5 0-.8-.1-1.2h1.4c-.1.4-.1.7-.1 1.2v2.2h2.1c.8 0 1.3 0 1.8-.1v1.3c-.6-.1-1.2-.1-1.9-.1h-2c0 1.4.2 3.7.4 5.1.3 2 .9 3.8 1.6 4.9.3.4.6.7.7.7.2 0 .4-1.1.5-2.8.4.3.7.5 1.1.7-.3 2.6-.7 3.5-1.5 3.5-.6 0-1.3-.7-1.9-1.7-.8-1.5-1.4-3.5-1.7-5.7-.1-1.2-.3-3-.4-4.8h-3.7zm6.2-4.5c.9.7 1.5 1.4 2.2 2.3l-.9.7c-.7-1.1-1.2-1.6-2.1-2.4l.8-.6zM41.3 107.6c-.7 0-1.3 0-1.9.1v-1.2c.5.1 1.2.1 1.9.1h5v-1.9c-3.7.3-3.8.3-5.7.3-.1-.5-.2-.7-.5-1.1h.7c4.7 0 10.2-.7 12-1.4l.8 1.1c-.3 0-.4 0-.7.1-2 .4-3.4.6-5.4.8v2h5.4c.8 0 1.4 0 2-.1v1.2c-.6-.1-1.2-.1-1.9-.1h-1v2.2h1.6c.8 0 1.4 0 2-.1v1.3c-.6-.1-1.1-.1-2-.1H52v2.4h1c.7 0 1.3 0 1.9-.1v1.2c-.5-.1-1.2-.1-1.9-.1h-4.7c1.1 1.1 1.9 1.7 3.3 2.5s2.8 1.3 4.6 1.7c-.4.5-.5.8-.8 1.2-1.6-.5-2.8-1.1-4.1-1.8-1.6-.9-2.5-1.6-3.7-3.1.1.7.1 1.1.1 1.5v2c0 1 0 1.4.1 2.1h-1.5c.1-.7.1-1.1.1-2.1v-2c0-.4 0-.9.1-1.5-1.3 1.4-2.3 2.3-3.8 3.2-1 .6-1.9 1-3.6 1.6-.2-.5-.4-.7-.8-1.1 3.3-.9 5.4-2.1 7.5-4.3h-4.4c-.7 0-1.4 0-1.9.1V113c.5.1 1.1.1 1.9.1h.8v-2.4h-1.5c-.9 0-1.4 0-1.9.1v-1.3c.5.1 1.2.1 1.9.1h1.5v-2.2h-.9zm2 2.1h3.1v-2.2h-3.1v2.2zm0 3.5h3.1v-2.4h-3.1v2.4zm7.6-5.6h-3.3v2.2h3.3v-2.2zm0 3.2h-3.3v2.4h3.3v-2.4zM67.2 112.6c0-1.1 0-1.4-.1-1.8h1.4c-.1.3-.1.7-.1 1.8H72c.8 0 1.2 0 1.8-.1-.1.4-.1.9-.1 1.5v3.5c0 1.2-.4 1.5-2.1 1.5-.3 0-.9 0-1.3-.1-.1-.5-.1-.7-.3-1.2.6.1 1.2.2 1.7.2.7 0 .8-.1.8-.6v-3.6h-4.2v4.5c0 1 0 1.5.1 2H67c.1-.6.1-1.1.1-2v-4.5h-3.7v3.6c0 1 0 1.5.1 1.9h-1.4c.1-.6.1-1.1.1-1.9v-3.5c-.9.8-1.8 1.6-3.2 2.5-.3-.5-.4-.6-.8-1 2.4-1.4 4.2-3 5.8-5.2h-3.3c-1 0-1.5 0-2.2.1v-1.3c.5.1 1.1.1 2.2.1h4c.5-.8.7-1.3.8-1.9l1.3.3c-.1.2-.2.3-.4.8-.2.3-.2.4-.4.8h7.4c1 0 1.6 0 2.1-.1v1.3c-.5-.1-1.1-.1-2.1-.1h-8c-.6.9-1.3 1.7-2 2.5h3.8zm4.9-4.4c-1.4-.8-2.7-1.5-4.5-2.3-2.3.9-4.4 1.5-7.1 2-.2-.4-.3-.5-.7-1.1 3.1-.5 4-.7 6.4-1.5-1.3-.6-3.2-1.2-4.6-1.7l1-.8c1.9.7 3.4 1.2 5 1.9 1.6-.7 3.1-1.6 3.8-2.3l1.3.7c-.3.1-.3.2-.6.3-1 .7-2.1 1.3-3.3 1.9l4.2 2.1-.9.8zM81.8 113.6c-1.1 0-1.6 0-2.1.1v-1.2c.5.1 1 .1 2.1.1h10.8c1.1 0 1.6 0 2.1-.1v1.2c-.6-.1-1.1-.1-2.1-.1h-5v1.7h3.8c1.1 0 1.5 0 2-.1v1.2c-.6-.1-1.1-.1-2-.1h-3.8v2h5.9c1 0 1.6 0 2.1-.1v1.3c-.7-.1-1.4-.1-2.2-.1H80.8c-.8 0-1.5 0-2.2.1v-1.3c.5.1 1.1.1 2.1.1h5.6v-2H83c-.9 0-1.4 0-2 .1v-1.2c.5.1 1 .1 2 .1h3.4v-1.7h-4.6zm3.6-9c.8 0 1.2 0 1.7-.1v1.2c-.5-.1-.9-.1-1.7-.1h-4.1v3.4c0 .5.3.6 2 .6 1.1 0 2-.1 2.9-.2v1.2c-.9.1-1.9.1-3.2.1-2.3 0-2.9-.3-2.9-1.4v-3.7c-.7 0-1.1 0-1.5.1v-1.2c.5.1.9.1 1.7.1h2.1v-.4c0-.6 0-1.1-.1-1.5h1.4c-.1.5-.1.9-.1 1.5v.4h1.8zm3.3 4.5c-.5 1.3-1 2.2-2 3.1-.3-.3-.6-.5-1-.7 1-1 1.6-1.7 2-3.1.4-1.2.6-2.6.6-4.2 0-.3 0-.7-.1-.9.4.1 1.1.1 1.9.1h3.4c.9 0 1.4 0 1.9-.1 0 .3-.1.5-.1 1.2 0 1.6-.3 4.1-.5 5.2-.2 1.1-.5 1.7-.9 1.9-.3.2-.6.2-1.4.2-.4 0-.9 0-1.6-.1 0-.4-.1-.7-.3-1.2.7.1 1.4.2 1.9.2s.7-.1.8-.2c.1-.2.3-.7.4-1.5h-5zm.6-2.3c-.1.7-.1.8-.3 1.4h4.9c.1-.6.1-.7.2-1.4h-4.8zm4.9-2.4h-4.7c0 .7 0 1-.1 1.5h4.7l.1-1.5zM105.6 113.5c-1.2 2.6-2.5 4-4 4-.9 0-1.7-.5-2.3-1.4-.5-.7-.8-2-.8-3.2 0-2.6 1.2-4.9 3.2-6.3 1.4-1 3.2-1.5 5.1-1.5 4.4 0 7.2 2.6 7.2 6.6 0 2.6-1.2 4.8-3.7 6.3-.9.6-2.2 1.1-2.5 1.1-.1 0-.2-.1-.3-.2-.2-.3-.5-.5-.9-.8 1.5-.5 2.3-.8 3.1-1.3 1.9-1.2 2.9-3.1 2.9-5.2 0-2.2-1.1-4-3.1-4.9-.7-.3-1.3-.5-2.3-.5-.1 2.8-.7 5.2-1.6 7.3zm-2.3-6.5c-2.2 1.1-3.5 3.3-3.5 6 0 1.8.7 3.1 1.8 3.1.8 0 1.7-1 2.6-2.9.9-2 1.5-4.4 1.8-6.9-1 0-1.8.3-2.7.7zM124.9 104.5c0-.7 0-1.2-.1-1.7h1.6c-.1.4-.1.9-.1 1.7v1.4h5.9c1 0 1.6 0 2.2-.1v1.5c-.5-.1-1-.1-2.2-.1h-7.3c-.1 1.3-.1 1.7-.3 2.7h5.2c1 0 1.5 0 2-.1 0 .4-.1.6-.1 1.3-.1 2.4-.4 5.2-.7 6.5-.4 1.7-.9 2.1-2.4 2.1-.6 0-1.6-.1-2.7-.2-.1-.6-.1-.8-.3-1.4 1.1.2 2.1.3 2.9.3.8 0 1-.2 1.3-1.7.3-1.6.5-3.3.6-5.8h-6c-.4 2.2-.9 3.5-1.8 4.9-.6.9-1.4 1.8-2.4 2.6-.6.5-1 .8-2.1 1.4-.3-.5-.5-.7-.9-1.1 1.8-.9 2.8-1.7 3.9-3.1 1.6-2 2.4-4.7 2.5-8.7h-4c-1 0-1.6 0-2.2.1v-1.5c.6.1 1.2.1 2.2.1h5.5v-1.1z"/></g><path fill="none" stroke="#0075B8" stroke-miterlimit="10" d="M3.1 120.5l8.3-8.3-8.3-8.3"/></svg>