<svg xmlns="http://www.w3.org/2000/svg" width="58.7687" height="53.4601" viewBox="0 0 58.7687 53.4601"><defs><style>.a{fill:#0075b8;}</style></defs><path class="a" d="M56.4507,38.6564l.0248-.0107,1.3164-1.4419a10.7936,10.7936,0,0,0-18.3488,4.687H19.3076a10.7614,10.7614,0,0,0-2.1348-4.1949l9.1931-9.2317,0,0,2.6846-2.6117,9.19,0a1.893,1.893,0,0,0,1.8934-1.8929V21.9938a3.7863,3.7863,0,0,0-3.2626-3.75l4.57-4.4456a4.0717,4.0717,0,0,0,1.122-3.8564l1.721-.5207a1.3219,1.3219,0,0,0,.9389-1.2652V7.5351a.7282.7282,0,0,0-.7282-.7282h-5.701c-.0656-.0032-.1311-.01-.1967-.01a4.0653,4.0653,0,0,0-2.8434,1.155l-1.54,1.4986L29.9683,6.27a3.9286,3.9286,0,0,0-1.98-.5354H13.8724C12.1348,2.9015,9.56,1.6467,7.8005.5065A2.3487,2.3487,0,0,0,4.8846.51s-.5174.4485-.5068.6554A109.394,109.394,0,0,0,5.8342,15.0745a15.5338,15.5338,0,0,0,3.8953,8,1.82,1.82,0,0,0,2.47-.0166l.0048.0022c-1.2285,1.15-.5973,2.7918.4076,2.7918h2.9709L8.1115,33.8011A10.7629,10.7629,0,0,0,.9588,37.2038l1.3164,1.4419.009.0039a8.8426,8.8426,0,1,0,15.2493,7.5893h23.695a8.8443,8.8443,0,1,0,15.2222-7.5825ZM27.1429,7.5918a3.12,3.12,0,0,1,1.6371.4641l3.7577,3.0251-7.2,7.0043H15.5672c.8451-2.1745.8257-5.8256-.63-10.0747-.05-.1454-.1068-.2794-.16-.4188Zm11.4543.3271h0a2.9566,2.9566,0,0,1,2.062,5.0757L25.5841,27.66a2.9566,2.9566,0,1,1-4.1233-4.2384L36.5358,8.7562a2.9411,2.9411,0,0,1,2.0614-.8373M13.4923,44.5679a4.6448,4.6448,0,1,1-4.6448-4.6447A4.6447,4.6447,0,0,1,13.4923,44.5679Zm41.0732.0442a4.6448,4.6448,0,1,1-4.6448-4.6448A4.6448,4.6448,0,0,1,54.5655,44.6121Z"/></svg>