<svg xmlns="http://www.w3.org/2000/svg" preserveAspectRatio="xMidYMid" width="57" height="13" viewBox="0 0 57 13"><path fill="#0075b8" d="M55.122 11.165h.646v1.054H54.9c-1.427 0-2.14-1.003-2.14-2.244V4.841h-1.055v-.934h1.055V1.289h1.223v2.618h1.785v.934h-1.785v5.1c0 .765.357 1.224 1.139 1.224zm-7.649.068c.798 0 1.291-.255 1.92-.952l.833.799c-.867.935-1.598 1.241-2.753 1.241-2.109 0-3.706-1.428-3.706-4.284 0-2.855 1.597-4.284 3.706-4.284 1.155 0 1.886.307 2.753 1.242l-.833.781c-.629-.696-1.122-.935-1.92-.935-.817 0-1.496.324-1.939.953-.39.543-.544 1.189-.544 2.243 0 1.054.154 1.7.544 2.244.443.629 1.122.952 1.939.952zm-7.447.187c-.679.68-1.292.901-2.414.901-1.155 0-1.836-.221-2.362-.765-.408-.408-.629-1.037-.629-1.7 0-1.462 1.02-2.414 2.89-2.414h2.515v-.798c0-1.225-.612-1.836-2.141-1.836-1.072 0-1.615.255-2.109.951l-.833-.764c.748-.97 1.598-1.242 2.958-1.242 2.245 0 3.349.97 3.349 2.789v5.677h-1.224v-.799zm0-3.06h-2.345c-1.258 0-1.87.51-1.87 1.479 0 .969.595 1.428 1.92 1.428.714 0 1.343-.051 1.871-.561.289-.272.424-.748.424-1.445V8.36zM29.844 9.975V4.841H28.79v-.934h1.054V1.289h1.224v2.618h1.785v.934h-1.785v5.1c0 .765.357 1.224 1.139 1.224h.646v1.054h-.867c-1.428 0-2.142-1.003-2.142-2.244zM25.44 7.068c0-1.479-.798-2.227-2.056-2.227s-2.074.765-2.074 2.227v5.151h-1.224V3.855h1.224v.918c.594-.679 1.411-1.02 2.346-1.02.901 0 1.631.272 2.141.783.596.577.867 1.359.867 2.328v5.355H25.44V7.068zm-11.389 5.253c-1.02 0-1.819-.374-2.397-.952-.85-.867-1.02-2.04-1.02-3.332 0-1.292.17-2.465 1.02-3.331.578-.579 1.377-.953 2.397-.953 1.019 0 1.818.374 2.396.953.85.866 1.02 2.039 1.02 3.331 0 1.292-.17 2.465-1.02 3.332-.578.578-1.377.952-2.396.952zm1.529-6.867a2.143 2.143 0 0 0-1.529-.613c-.595 0-1.122.222-1.513.613-.612.611-.681 1.648-.681 2.583 0 .935.069 1.972.681 2.584.391.391.918.612 1.513.612.595 0 1.138-.221 1.529-.612.612-.612.663-1.649.663-2.584s-.051-1.972-.663-2.583zM4.242 11.165c1.513 0 2.583-.969 2.906-2.448H8.44c-.391 2.278-2.04 3.604-4.198 3.604-1.19 0-2.278-.442-3.094-1.258C.01 9.924.01 8.734.01 6.168c0-2.567 0-3.757 1.138-4.896C1.964.456 3.052.014 4.242.014c2.176 0 3.79 1.326 4.198 3.604H7.114C6.791 2.139 5.755 1.17 4.242 1.17c-.799 0-1.564.306-2.092.85-.764.782-.849 1.615-.849 4.148 0 2.532.085 3.365.849 4.147.528.544 1.293.85 2.092.85z"/></svg>