<svg xmlns="http://www.w3.org/2000/svg" preserveAspectRatio="xMidYMid" width="130" height="13" viewBox="0 0 130 13"><path fill="#0075b8" d="M123.648 8.36c0 1.836.867 2.89 2.465 2.89.969 0 1.53-.289 2.193-.952l.833.731c-.85.85-1.632 1.292-3.06 1.292-2.21 0-3.655-1.326-3.655-4.284 0-2.702 1.309-4.284 3.434-4.284 2.159 0 3.434 1.564 3.434 4.046v.561h-5.644zm4.164-2.312c-.322-.765-1.07-1.257-1.954-1.257-.884 0-1.632.492-1.955 1.257-.187.459-.221.714-.255 1.394h4.419c-.033-.68-.067-.935-.255-1.394zM117.8 11.233c.799 0 1.292-.255 1.921-.952l.833.799c-.867.935-1.598 1.241-2.754 1.241-2.108 0-3.706-1.428-3.706-4.284 0-2.855 1.598-4.284 3.706-4.284 1.156 0 1.887.307 2.754 1.242l-.833.781c-.629-.696-1.122-.935-1.921-.935-.816 0-1.496.324-1.938.953-.391.543-.544 1.189-.544 2.243 0 1.054.153 1.7.544 2.244.442.629 1.122.952 1.938.952zM110.185.099h1.377v1.377h-1.377V.099zm-5.968 12.222c-1.02 0-1.819-.374-2.397-.952-.849-.867-1.019-2.04-1.019-3.332 0-1.292.17-2.465 1.019-3.331.578-.579 1.377-.953 2.397-.953 1.02 0 1.819.374 2.397.953.85.866 1.02 2.039 1.02 3.331 0 1.292-.17 2.465-1.02 3.332-.578.578-1.377.952-2.397.952zm1.53-6.867a2.141 2.141 0 0 0-1.53-.613c-.595 0-1.122.221-1.513.613-.612.611-.68 1.648-.68 2.583 0 .935.068 1.972.68 2.584.391.391.918.612 1.513.612.595 0 1.139-.221 1.53-.612.612-.612.663-1.649.663-2.584s-.051-1.972-.663-2.583zm-11.203 6.765L90.567.116h1.36l3.144 9.791L98.216.116h1.36l-3.977 12.103h-1.055zM82.866 7.51c1.461.136 2.464.697 2.464 2.261 0 1.615-1.376 2.55-3.399 2.55-1.411 0-2.516-.323-3.434-1.207l.816-.816c.663.697 1.564.969 2.601.969 1.377 0 2.227-.493 2.227-1.479 0-.731-.425-1.139-1.394-1.224l-1.377-.119c-1.632-.136-2.499-.867-2.499-2.244 0-1.53 1.292-2.448 3.077-2.448 1.19 0 2.261.289 3.008.901l-.799.8c-.595-.459-1.359-.663-2.226-.663-1.224 0-1.87.526-1.87 1.377 0 .713.408 1.138 1.461 1.223l1.344.119zM74.791.116h1.479v1.428l-1.479 1.343V.116zm-3.893 4.725c-1.224 0-2.005.97-2.005 2.244v5.134h-1.225V3.856h1.225v1.02c.459-.697 1.377-1.123 2.345-1.123.799 0 1.411.187 2.006.783l-.901.918c-.459-.459-.799-.613-1.445-.613zm-9.01 6.409c.969 0 1.53-.289 2.193-.952l.833.731c-.85.85-1.632 1.292-3.06 1.292-2.209 0-3.655-1.326-3.655-4.284 0-2.702 1.309-4.284 3.434-4.284 2.159 0 3.434 1.564 3.434 4.046v.561h-5.644c0 1.836.867 2.89 2.465 2.89zm1.955-3.808c-.034-.68-.068-.935-.255-1.394-.323-.765-1.071-1.257-1.955-1.257-.884 0-1.632.492-1.954 1.257-.188.459-.221.714-.256 1.394h4.42zm-9.384-.374c0-1.479-.799-2.227-2.057-2.227-1.224 0-2.091.765-2.091 2.091v5.287h-1.224V7.068c0-1.479-.799-2.227-2.057-2.227s-2.091.765-2.091 2.227v5.151h-1.223V3.856h1.223v.917c.595-.679 1.428-1.02 2.363-1.02 1.156 0 2.057.476 2.567 1.394.646-.918 1.581-1.394 2.754-1.394.9 0 1.648.289 2.158.783.595.577.902 1.359.902 2.328v5.355h-1.224V7.068zm-16.778 5.253c-1.021 0-1.82-.374-2.397-.952-.85-.867-1.02-2.04-1.02-3.332 0-1.292.17-2.465 1.02-3.331.577-.579 1.376-.953 2.397-.953 1.019 0 1.818.374 2.396.953.85.866 1.02 2.039 1.02 3.331 0 1.292-.17 2.465-1.02 3.332-.578.578-1.377.952-2.396.952zm1.529-6.867a2.14 2.14 0 0 0-1.529-.613c-.596 0-1.122.221-1.514.613-.611.611-.68 1.648-.68 2.583 0 .935.069 1.972.68 2.584.392.391.918.612 1.514.612.594 0 1.138-.221 1.529-.612.612-.612.663-1.649.663-2.584s-.051-1.972-.663-2.583zm-9.944 4.521V4.841h-1.054v-.934h1.054V1.289h1.224v2.618h1.784v.934H30.49v5.1c0 .765.357 1.224 1.139 1.224h.645v1.054h-.866c-1.429 0-2.142-1.003-2.142-2.244zM24.2 7.51c1.461.136 2.464.697 2.464 2.261 0 1.615-1.376 2.55-3.399 2.55-1.411 0-2.516-.323-3.434-1.207l.816-.816c.663.697 1.564.969 2.601.969 1.376 0 2.227-.493 2.227-1.479 0-.731-.425-1.139-1.394-1.224l-1.377-.119c-1.632-.136-2.499-.867-2.499-2.244 0-1.53 1.292-2.448 3.077-2.448 1.19 0 2.261.289 3.008.901l-.799.8c-.595-.459-1.359-.663-2.226-.663-1.224 0-1.87.526-1.87 1.377 0 .713.408 1.138 1.461 1.223l1.344.119zm-7.838 3.774c-.594.68-1.427 1.037-2.362 1.037-.901 0-1.649-.272-2.159-.782-.595-.578-.85-1.377-.85-2.346V3.856h1.224v5.15c0 1.479.782 2.227 2.04 2.227s2.091-.765 2.091-2.227v-5.15h1.223v8.363h-1.207v-.935zm-12.12-.119c1.513 0 2.583-.969 2.906-2.448H8.44c-.391 2.278-2.04 3.604-4.198 3.604-1.19 0-2.278-.442-3.094-1.258C.009 9.924.009 8.734.009 6.168c0-2.567 0-3.757 1.139-4.896C1.964.456 3.052.014 4.242.014c2.176 0 3.79 1.326 4.198 3.604H7.114C6.792 2.139 5.755 1.17 4.242 1.17c-.799 0-1.564.306-2.091.85-.765.782-.85 1.615-.85 4.148 0 2.532.085 3.365.85 4.147.527.544 1.292.85 2.091.85zm107.235 1.054h-1.225V3.856h1.225v8.363z"/></svg>