<svg xmlns="http://www.w3.org/2000/svg" preserveAspectRatio="xMidYMid" width="209" height="17" viewBox="0 0 209 17"><path fill="#0075b8" d="M205.321 4.791c-1.223 0-1.87.526-1.87 1.377 0 .713.408 1.138 1.463 1.223l1.342.119c1.463.136 2.465.697 2.465 2.261 0 1.615-1.377 2.55-3.4 2.55-1.411 0-2.515-.323-3.433-1.207l.815-.816c.664.697 1.565.969 2.602.969 1.377 0 2.226-.493 2.226-1.479 0-.731-.426-1.139-1.394-1.224l-1.377-.119c-1.631-.136-2.498-.867-2.498-2.244 0-1.53 1.292-2.448 3.076-2.448 1.19 0 2.262.289 3.01.901l-.8.8c-.595-.459-1.36-.663-2.227-.663zm-6.834 2.277c0-1.479-.798-2.227-2.056-2.227s-2.074.765-2.074 2.227v5.151h-1.224V3.855h1.224v.918c.594-.679 1.411-1.02 2.346-1.02.901 0 1.631.272 2.141.783.595.577.867 1.359.867 2.328v5.355h-1.224V7.068zm-11.389 5.253c-1.02 0-1.819-.374-2.397-.952-.849-.867-1.019-2.04-1.019-3.332 0-1.292.17-2.465 1.019-3.332.578-.578 1.377-.952 2.397-.952 1.019 0 1.818.374 2.396.952.851.867 1.021 2.04 1.021 3.332 0 1.292-.17 2.465-1.021 3.332-.578.578-1.377.952-2.396.952zm1.529-6.867a2.143 2.143 0 0 0-1.529-.613c-.595 0-1.121.222-1.513.613-.612.611-.68 1.648-.68 2.583 0 .935.068 1.972.68 2.584.392.391.918.612 1.513.612.595 0 1.138-.221 1.529-.612.613-.612.664-1.649.664-2.584s-.051-1.972-.664-2.583zM179.754.099h1.377v1.377h-1.377V.099zm-5.371 9.876V4.841h-1.054v-.934h1.054V1.289h1.223v2.618h1.786v.934h-1.786v5.1c0 .765.357 1.224 1.14 1.224h.646v1.054h-.868c-1.427 0-2.141-1.003-2.141-2.244zm-5.067-2.465c1.463.136 2.465.697 2.465 2.261 0 1.615-1.377 2.55-3.399 2.55-1.411 0-2.516-.323-3.434-1.207l.816-.816c.664.697 1.564.969 2.601.969 1.377 0 2.227-.493 2.227-1.479 0-.731-.426-1.139-1.395-1.224l-1.377-.119c-1.631-.136-2.498-.867-2.498-2.244 0-1.53 1.292-2.448 3.076-2.448 1.191 0 2.262.289 3.01.901l-.8.8c-.594-.459-1.359-.663-2.226-.663-1.224 0-1.87.526-1.87 1.377 0 .713.408 1.138 1.463 1.223l1.341.119zm-9.349 3.74c.969 0 1.53-.289 2.193-.952l.832.731c-.849.85-1.631 1.292-3.058 1.292-2.211 0-3.656-1.326-3.656-4.284 0-2.703 1.31-4.284 3.434-4.284 2.159 0 3.434 1.564 3.434 4.046v.561h-5.644c0 1.836.867 2.89 2.465 2.89zm1.955-3.808c-.034-.68-.068-.935-.255-1.394-.323-.765-1.071-1.257-1.955-1.257-.884 0-1.632.492-1.954 1.257-.188.459-.222.714-.256 1.394h4.42zm-9.451 3.842c-.596.68-1.428 1.037-2.364 1.037-.9 0-1.648-.272-2.158-.782-.595-.578-.85-1.377-.85-2.346V3.855h1.223v5.151c0 1.479.782 2.227 2.04 2.227s2.091-.765 2.091-2.227V3.855h1.224v8.364h-1.206v-.935zm-8.382 1.53l-1.343-1.343c-.73.561-1.632.85-2.6.85-1.208 0-2.279-.442-3.094-1.258-1.14-1.139-1.14-2.329-1.14-4.895 0-2.567 0-3.757 1.14-4.896.815-.816 1.886-1.258 3.094-1.258 1.206 0 2.277.442 3.092 1.258 1.14 1.139 1.14 2.329 1.14 4.896 0 2.311 0 3.501-.833 4.538l1.326 1.326-.782.782zm-1.853-10.777a2.928 2.928 0 0 0-2.09-.867c-.8 0-1.564.323-2.091.867-.766.782-.85 1.598-.85 4.131 0 2.532.084 3.348.85 4.13a2.927 2.927 0 0 0 2.091.867c.645 0 1.223-.204 1.716-.578l-1.53-1.53.782-.782 1.48 1.479c.441-.714.492-1.649.492-3.586 0-2.533-.085-3.349-.85-4.131zm-14.586 9.179c-.679.884-1.462 1.105-2.379 1.105-.85 0-1.598-.289-2.041-.731-.849-.85-1.019-2.244-1.019-3.553 0-1.308.17-2.703 1.019-3.553.443-.442 1.191-.731 2.041-.731.917 0 1.682.204 2.362 1.072V.116h1.224v12.103h-1.207v-1.003zm-2.107-6.375c-1.819 0-2.108 1.564-2.108 3.196 0 1.632.289 3.196 2.108 3.196 1.818 0 2.09-1.564 2.09-3.196 0-1.632-.272-3.196-2.09-3.196zm-8.67 6.409c.969 0 1.529-.289 2.192-.952l.833.731c-.849.85-1.631 1.292-3.059 1.292-2.21 0-3.655-1.326-3.655-4.284 0-2.703 1.308-4.284 3.433-4.284 2.159 0 3.434 1.564 3.434 4.046v.561h-5.643c0 1.836.866 2.89 2.465 2.89zm1.954-3.808c-.034-.68-.067-.935-.255-1.394-.322-.765-1.07-1.257-1.955-1.257-.884 0-1.631.492-1.954 1.257-.187.459-.222.714-.255 1.394h4.419zm-8.788 4.777l-2.652-4.284-1.632 1.87v2.414h-1.224V.116h1.224v8.091l3.773-4.352h1.531l-2.839 3.196 3.331 5.168h-1.512zM99.669 7.51c1.462.136 2.465.697 2.465 2.261 0 1.615-1.377 2.55-3.4 2.55-1.411 0-2.515-.323-3.433-1.207l.815-.816c.663.697 1.564.969 2.601.969 1.377 0 2.226-.493 2.226-1.479 0-.731-.424-1.139-1.393-1.224l-1.377-.119c-1.632-.136-2.499-.867-2.499-2.244 0-1.53 1.292-2.448 3.077-2.448 1.19 0 2.261.289 3.009.901l-.799.8c-.596-.459-1.36-.663-2.227-.663-1.224 0-1.87.526-1.87 1.377 0 .713.407 1.138 1.462 1.223l1.343.119zm-7.65 1.972h-5.287l-.968 2.737h-1.377L88.84.116h1.088l4.436 12.103h-1.377l-.968-2.737zM89.4 1.969L87.123 8.36h4.522L89.4 1.969zM75.359 15.227c-.442.425-1.037.578-1.631.578H73.2v-1.088h.374c.85 0 1.106-.272 1.377-1.036l.596-1.632-3.01-8.194h1.326l2.295 6.715 2.278-6.715h1.326l-3.808 10.387c-.17.459-.356.764-.595.985zm-6.561-5.235V.116h1.224v9.825c0 .816.271 1.224 1.122 1.224h.663v1.054h-.885c-1.461 0-2.124-.952-2.124-2.227zm-5.406-.017V4.841h-1.054v-.934h1.054V1.289h1.223v2.618H66.4v.934h-1.785v5.1c0 .765.358 1.224 1.14 1.224h.645v1.054h-.867c-1.428 0-2.141-1.003-2.141-2.244zm-4.404-2.907c0-1.479-.799-2.227-2.056-2.227-1.258 0-2.075.765-2.075 2.227v5.151h-1.223V3.855h1.223v.918c.596-.679 1.412-1.02 2.346-1.02.901 0 1.633.272 2.143.783.594.577.866 1.359.866 2.328v5.355h-1.224V7.068zM47.854 11.25c.968 0 1.529-.289 2.193-.952l.832.731c-.85.85-1.632 1.292-3.06 1.292-2.21 0-3.654-1.326-3.654-4.284 0-2.703 1.309-4.284 3.434-4.284 2.159 0 3.433 1.564 3.433 4.046v.561h-5.643c0 1.836.867 2.89 2.465 2.89zm1.955-3.808c-.035-.68-.069-.935-.256-1.394-.323-.765-1.071-1.257-1.954-1.257-.884 0-1.632.492-1.955 1.257-.187.459-.221.714-.255 1.394h4.42zm-9.453 3.842c-.594.68-1.427 1.037-2.362 1.037-.901 0-1.649-.272-2.159-.782-.595-.578-.851-1.377-.851-2.346V3.855h1.225v5.151c0 1.479.781 2.227 2.039 2.227s2.092-.765 2.092-2.227V3.855h1.223v8.364h-1.207v-.935zm-9.571-.051c-.68.867-1.444 1.088-2.362 1.088-.851 0-1.598-.289-2.04-.731-.85-.85-1.02-2.244-1.02-3.553 0-1.308.17-2.703 1.02-3.553.442-.442 1.189-.731 2.04-.731.918 0 1.7.204 2.38 1.088v-.986h1.207v12.103h-1.225v-4.725zm-2.09-6.392c-1.819 0-2.108 1.564-2.108 3.196 0 1.632.289 3.196 2.108 3.196 1.819 0 2.09-1.564 2.09-3.196 0-1.632-.271-3.196-2.09-3.196zm-8.671 6.409c.97 0 1.531-.289 2.194-.952l.833.731c-.851.85-1.633 1.292-3.061 1.292-2.209 0-3.654-1.326-3.654-4.284 0-2.703 1.309-4.284 3.433-4.284 2.16 0 3.434 1.564 3.434 4.046v.561H17.56c0 1.836.867 2.89 2.464 2.89zm1.955-3.808c-.034-.68-.068-.935-.254-1.394-.324-.765-1.072-1.257-1.956-1.257-.883 0-1.631.492-1.955 1.257-.186.459-.22.714-.254 1.394h4.419zm-9.111-2.601c-1.223 0-2.006.97-2.006 2.244v5.134H9.639V3.855h1.223v1.021c.459-.697 1.377-1.123 2.346-1.123.799 0 1.411.187 2.006.783l-.901.918c-.459-.459-.799-.613-1.445-.613zm-11.577.885h5.304v1.155H1.291v5.338H-.001V.116h7.514v1.156H1.291v4.454zm179.756 6.493h-1.225V3.855h1.225v8.364z"/></svg>