<svg xmlns="http://www.w3.org/2000/svg" viewBox="-519 245 161 22"><path fill="#0075B8" d="M-364 253.2c-2.2 0-3.3.9-3.3 2.4 0 1.3.7 2 2.6 2.2l2.4.2c2.6.2 4.4 1.2 4.4 4 0 2.9-2.4 4.5-6 4.5-2.5 0-4.4-.6-6.1-2.1l1.4-1.4c1.2 1.2 2.8 1.7 4.6 1.7 2.4 0 3.9-.9 3.9-2.6 0-1.3-.8-2-2.5-2.2l-2.4-.2c-2.9-.2-4.4-1.5-4.4-4 0-2.7 2.3-4.3 5.4-4.3 2.1 0 4 .5 5.3 1.6l-1.4 1.4c-1-.8-2.4-1.2-3.9-1.2zm-14.4 13.2l-3.9-11.5-3.8 11.5h-2l-4.7-14.8h2.3l3.4 11.8 3.9-11.8h1.9l3.9 11.8 3.4-11.8h2.3l-4.6 14.8h-2.1zm-22.2-1.8c1.7 0 2.7-.5 3.9-1.7l1.5 1.3c-1.5 1.5-2.9 2.3-5.4 2.3-3.9 0-6.5-2.3-6.5-7.6 0-4.8 2.3-7.6 6.1-7.6s6.1 2.8 6.1 7.1v1h-10c0 3.4 1.5 5.2 4.3 5.2zm3.5-6.7c-.1-1.2-.1-1.6-.5-2.5-.6-1.3-1.9-2.2-3.4-2.2-1.6 0-2.9.9-3.4 2.2-.3.8-.4 1.3-.5 2.5h7.8zm-28.5-8.7v17.1h-2.3V245h2.2l11.3 17.1V245h2.3v21.4h-2.2l-11.3-17.2zm-19.7 13.2v-9.1h-1.9v-1.7h1.9V247h2.2v4.6h3.2v1.7h-3.2v9c0 1.3.6 2.2 2 2.2h1.1v1.9h-1.5c-2.6 0-3.8-1.8-3.8-4zm-11.3-4.6l2.4.2c2.6.2 4.4 1.2 4.4 4 0 2.9-2.4 4.5-6 4.5-2.5 0-4.4-.6-6.1-2.1l1.4-1.4c1.2 1.2 2.8 1.7 4.6 1.7 2.4 0 3.9-.9 3.9-2.6 0-1.3-.8-2-2.5-2.2l-2.4-.2c-2.9-.2-4.4-1.5-4.4-4 0-2.7 2.3-4.3 5.4-4.3 2.1 0 4 .5 5.3 1.6l-1.4 1.4c-1-.8-2.4-1.2-3.9-1.2-2.2 0-3.3.9-3.3 2.4 0 1.3.7 2.1 2.6 2.2zm-14.2 6.8c1.7 0 2.7-.5 3.9-1.7l1.5 1.3c-1.5 1.5-2.9 2.3-5.4 2.3-3.9 0-6.5-2.3-6.5-7.6 0-4.8 2.3-7.6 6.1-7.6s6.1 2.8 6.1 7.1v1h-10c0 3.4 1.5 5.2 4.3 5.2zm3.5-6.7c-.1-1.2-.1-1.6-.5-2.5-.6-1.3-1.9-2.2-3.5-2.2s-2.9.9-3.4 2.2c-.3.8-.4 1.3-.5 2.5h7.9zm-18.8 4.5v-9.1h-1.9v-1.7h1.9V247h2.2v4.6h3.1v1.7h-3.1v9c0 1.3.6 2.2 2 2.2h1.1v1.9h-1.5c-2.5 0-3.8-1.8-3.8-4zm-7.7 2.5c-1.2 1.2-2.3 1.6-4.3 1.6s-3.2-.4-4.2-1.4c-.7-.7-1.1-1.8-1.1-3 0-2.6 1.8-4.3 5.1-4.3h4.4v-1.4c0-2.2-1.1-3.2-3.8-3.2-1.9 0-2.9.4-3.7 1.7l-1.5-1.4c1.3-1.7 2.8-2.2 5.2-2.2 4 0 5.9 1.7 5.9 4.9v10h-2.2v-1.3zm0-5.4h-4.1c-2.2 0-3.3.9-3.3 2.6 0 1.7 1.1 2.5 3.4 2.5 1.3 0 2.4-.1 3.3-1 .5-.5.8-1.3.8-2.5v-1.6zM-519 245h2.3v19.3h10.9v2H-519V245z"/></svg>