<svg xmlns="http://www.w3.org/2000/svg" viewBox="0 0 215 127"><g fill="#aaa"><path d="M109.314 49.21c-.996-.516-2.629-.516-3.625 0L52.85 76.619c-.996.514-2.657.573-3.688.13L.792 55.85c-1.03-.443-1.06-1.226-.058-1.74L105.683.385c1.002-.512 2.64-.512 3.636 0l104.95 53.727c.995.513.973 1.296-.058 1.74l-48.375 20.897c-1.031.443-2.686.384-3.684-.13l-52.838-27.407zM47.495 103.601h3.753l3.676 16.63h.07l4.53-16.63h2.563l4.538 16.63h.065l3.683-16.63h3.747L68.27 127h-2.956l-4.474-16.86h-.065L56.311 127h-2.96zM96.97 116.778H87.7V127h-3.55v-23.399h3.55v10.02h9.272v-10.02h3.555V127H96.97zM112.659 103.601h3.555V127h-3.555zM128.365 103.601h3.549v20.05h11.403V127h-14.952zM152.548 103.601h3.55v20.05h11.404V127h-14.954z"/></g></svg>