<svg xmlns="http://www.w3.org/2000/svg" xmlns:xlink="http://www.w3.org/1999/xlink" preserveAspectRatio="xMidYMid" width="119" height="13" viewBox="0 0 119 13">

  <path fill="#0075b8" d="M112.845,8.235 C112.845,10.071 113.712,11.125 115.310,11.125 C116.278,11.125 116.840,10.836 117.502,10.173 C117.502,10.173 118.335,10.904 118.335,10.904 C117.485,11.754 116.703,12.196 115.275,12.196 C113.066,12.196 111.621,10.870 111.621,7.912 C111.621,5.209 112.930,3.628 115.055,3.628 C117.213,3.628 118.488,5.192 118.488,7.674 C118.488,7.674 118.488,8.235 118.488,8.235 C118.488,8.235 112.845,8.235 112.845,8.235 ZM117.010,5.923 C116.687,5.158 115.938,4.666 115.055,4.666 C114.171,4.666 113.423,5.158 113.100,5.923 C112.913,6.382 112.879,6.637 112.845,7.317 C112.845,7.317 117.265,7.317 117.265,7.317 C117.230,6.637 117.196,6.382 117.010,5.923 ZM107.218,7.385 C108.680,7.521 109.683,8.082 109.683,9.646 C109.683,11.261 108.306,12.196 106.283,12.196 C104.872,12.196 103.768,11.873 102.850,10.989 C102.850,10.989 103.665,10.173 103.665,10.173 C104.328,10.870 105.228,11.142 106.266,11.142 C107.643,11.142 108.492,10.649 108.492,9.663 C108.492,8.932 108.067,8.524 107.099,8.439 C107.099,8.439 105.722,8.320 105.722,8.320 C104.090,8.184 103.223,7.453 103.223,6.076 C103.223,4.546 104.515,3.628 106.300,3.628 C107.490,3.628 108.561,3.917 109.309,4.529 C109.309,4.529 108.510,5.329 108.510,5.329 C107.914,4.870 107.149,4.666 106.283,4.666 C105.059,4.666 104.413,5.192 104.413,6.042 C104.413,6.756 104.820,7.181 105.875,7.266 C105.875,7.266 107.218,7.385 107.218,7.385 ZM99.449,11.295 C98.770,11.975 98.157,12.196 97.035,12.196 C95.879,12.196 95.199,11.975 94.672,11.431 C94.265,11.023 94.043,10.394 94.043,9.731 C94.043,8.269 95.063,7.317 96.934,7.317 C96.934,7.317 99.449,7.317 99.449,7.317 C99.449,7.317 99.449,6.519 99.449,6.519 C99.449,5.294 98.837,4.683 97.307,4.683 C96.236,4.683 95.692,4.938 95.199,5.634 C95.199,5.634 94.366,4.870 94.366,4.870 C95.114,3.900 95.965,3.628 97.324,3.628 C99.568,3.628 100.673,4.598 100.673,6.417 C100.673,6.417 100.673,12.094 100.673,12.094 C100.673,12.094 99.449,12.094 99.449,12.094 C99.449,12.094 99.449,11.295 99.449,11.295 ZM99.449,8.235 C99.449,8.235 97.104,8.235 97.104,8.235 C95.846,8.235 95.233,8.745 95.233,9.714 C95.233,10.683 95.828,11.142 97.154,11.142 C97.868,11.142 98.497,11.091 99.023,10.581 C99.312,10.309 99.449,9.833 99.449,9.136 C99.449,9.136 99.449,8.235 99.449,8.235 ZM90.507,6.926 C90.507,5.464 89.725,4.716 88.467,4.716 C87.209,4.716 86.376,5.481 86.376,6.926 C86.376,6.926 86.376,12.094 86.376,12.094 C86.376,12.094 85.152,12.094 85.152,12.094 C85.152,12.094 85.152,-0.009 85.152,-0.009 C85.152,-0.009 86.376,-0.009 86.376,-0.009 C86.376,-0.009 86.376,4.648 86.376,4.648 C86.988,3.952 87.787,3.628 88.723,3.628 C90.609,3.628 91.730,4.835 91.730,6.722 C91.730,6.722 91.730,12.094 91.730,12.094 C91.730,12.094 90.507,12.094 90.507,12.094 C90.507,12.094 90.507,6.926 90.507,6.926 ZM80.069,11.108 C80.868,11.108 81.361,10.853 81.990,10.156 C81.990,10.156 82.823,10.955 82.823,10.955 C81.956,11.890 81.225,12.196 80.069,12.196 C77.961,12.196 76.363,10.768 76.363,7.912 C76.363,5.057 77.961,3.628 80.069,3.628 C81.225,3.628 81.956,3.935 82.823,4.870 C82.823,4.870 81.990,5.651 81.990,5.651 C81.361,4.955 80.868,4.716 80.069,4.716 C79.254,4.716 78.573,5.040 78.131,5.668 C77.740,6.212 77.588,6.858 77.588,7.912 C77.588,8.966 77.740,9.612 78.131,10.156 C78.573,10.785 79.254,11.108 80.069,11.108 ZM72.896,4.716 C71.672,4.716 70.890,5.686 70.890,6.960 C70.890,6.960 70.890,12.094 70.890,12.094 C70.890,12.094 69.666,12.094 69.666,12.094 C69.666,12.094 69.666,3.731 69.666,3.731 C69.666,3.731 70.890,3.731 70.890,3.731 C70.890,3.731 70.890,4.750 70.890,4.750 C71.349,4.054 72.267,3.628 73.235,3.628 C74.034,3.628 74.646,3.815 75.241,4.411 C75.241,4.411 74.340,5.329 74.340,5.329 C73.881,4.870 73.541,4.716 72.896,4.716 ZM65.398,11.159 C64.804,11.839 63.971,12.196 63.035,12.196 C62.135,12.196 61.387,11.924 60.877,11.414 C60.281,10.836 60.027,10.037 60.027,9.068 C60.027,9.068 60.027,3.731 60.027,3.731 C60.027,3.731 61.251,3.731 61.251,3.731 C61.251,3.731 61.251,8.881 61.251,8.881 C61.251,10.360 62.033,11.108 63.291,11.108 C64.549,11.108 65.381,10.343 65.381,8.881 C65.381,8.881 65.381,3.731 65.381,3.731 C65.381,3.731 66.605,3.731 66.605,3.731 C66.605,3.731 66.605,12.094 66.605,12.094 C66.605,12.094 65.398,12.094 65.398,12.094 C65.398,12.094 65.398,11.159 65.398,11.159 ZM54.128,7.113 C54.128,7.113 50.915,7.113 50.915,7.113 C50.915,7.113 50.915,12.094 50.915,12.094 C50.915,12.094 49.623,12.094 49.623,12.094 C49.623,12.094 49.623,-0.009 49.623,-0.009 C49.623,-0.009 54.128,-0.009 54.128,-0.009 C56.338,-0.009 57.867,1.368 57.867,3.543 C57.867,5.719 56.338,7.113 54.128,7.113 ZM56.575,3.543 C56.575,1.946 55.522,1.147 54.009,1.147 C54.009,1.147 50.915,1.147 50.915,1.147 C50.915,1.147 50.915,5.958 50.915,5.958 C50.915,5.958 54.009,5.958 54.009,5.958 C55.522,5.958 56.575,5.142 56.575,3.543 ZM39.730,9.850 C39.730,9.850 39.730,4.716 39.730,4.716 C39.730,4.716 38.676,4.716 38.676,4.716 C38.676,4.716 38.676,3.782 38.676,3.782 C38.676,3.782 39.730,3.782 39.730,3.782 C39.730,3.782 39.730,1.164 39.730,1.164 C39.730,1.164 40.953,1.164 40.953,1.164 C40.953,1.164 40.953,3.782 40.953,3.782 C40.953,3.782 42.738,3.782 42.738,3.782 C42.738,3.782 42.738,4.716 42.738,4.716 C42.738,4.716 40.953,4.716 40.953,4.716 C40.953,4.716 40.953,9.816 40.953,9.816 C40.953,10.581 41.311,11.040 42.092,11.040 C42.092,11.040 42.738,11.040 42.738,11.040 C42.738,11.040 42.738,12.094 42.738,12.094 C42.738,12.094 41.871,12.094 41.871,12.094 C40.443,12.094 39.730,11.091 39.730,9.850 ZM35.258,11.159 C34.663,11.839 33.830,12.196 32.895,12.196 C31.994,12.196 31.246,11.924 30.736,11.414 C30.142,10.836 29.887,10.037 29.887,9.068 C29.887,9.068 29.887,3.731 29.887,3.731 C29.887,3.731 31.110,3.731 31.110,3.731 C31.110,3.731 31.110,8.881 31.110,8.881 C31.110,10.360 31.893,11.108 33.150,11.108 C34.408,11.108 35.241,10.343 35.241,8.881 C35.241,8.881 35.241,3.731 35.241,3.731 C35.241,3.731 36.465,3.731 36.465,3.731 C36.465,3.731 36.465,12.094 36.465,12.094 C36.465,12.094 35.258,12.094 35.258,12.094 C35.258,12.094 35.258,11.159 35.258,11.159 ZM23.937,12.196 C22.916,12.196 22.117,11.822 21.539,11.244 C20.689,10.377 20.520,9.204 20.520,7.912 C20.520,6.620 20.689,5.447 21.539,4.581 C22.117,4.002 22.916,3.628 23.937,3.628 C24.956,3.628 25.755,4.002 26.333,4.581 C27.183,5.447 27.353,6.620 27.353,7.912 C27.353,9.204 27.183,10.377 26.333,11.244 C25.755,11.822 24.956,12.196 23.937,12.196 ZM25.466,5.329 C25.075,4.938 24.531,4.716 23.937,4.716 C23.342,4.716 22.814,4.938 22.424,5.329 C21.812,5.940 21.743,6.977 21.743,7.912 C21.743,8.847 21.812,9.884 22.424,10.496 C22.814,10.887 23.342,11.108 23.937,11.108 C24.531,11.108 25.075,10.887 25.466,10.496 C26.078,9.884 26.129,8.847 26.129,7.912 C26.129,6.977 26.078,5.940 25.466,5.329 ZM15.283,12.196 C14.365,12.196 13.601,11.975 12.920,11.091 C12.920,11.091 12.920,12.094 12.920,12.094 C12.920,12.094 11.696,12.094 11.696,12.094 C11.696,12.094 11.696,-0.009 11.696,-0.009 C11.696,-0.009 12.920,-0.009 12.920,-0.009 C12.920,-0.009 12.920,4.700 12.920,4.700 C13.601,3.833 14.365,3.628 15.283,3.628 C16.133,3.628 16.881,3.917 17.323,4.359 C18.173,5.209 18.343,6.603 18.343,7.912 C18.343,9.221 18.173,10.615 17.323,11.465 C16.881,11.907 16.133,12.196 15.283,12.196 ZM15.028,4.716 C13.209,4.716 12.920,6.280 12.920,7.912 C12.920,9.544 13.209,11.108 15.028,11.108 C16.848,11.108 17.119,9.544 17.119,7.912 C17.119,6.280 16.848,4.716 15.028,4.716 ZM7.616,9.357 C7.616,9.357 2.330,9.357 2.330,9.357 C2.330,9.357 1.360,12.094 1.360,12.094 C1.360,12.094 -0.016,12.094 -0.016,12.094 C-0.016,12.094 4.438,-0.009 4.438,-0.009 C4.438,-0.009 5.525,-0.009 5.525,-0.009 C5.525,-0.009 9.962,12.094 9.962,12.094 C9.962,12.094 8.585,12.094 8.585,12.094 C8.585,12.094 7.616,9.357 7.616,9.357 ZM4.998,1.844 C4.998,1.844 2.721,8.235 2.721,8.235 C2.721,8.235 7.242,8.235 7.242,8.235 C7.242,8.235 4.998,1.844 4.998,1.844 Z" />
</svg>
