<svg xmlns="http://www.w3.org/2000/svg" xmlns:xlink="http://www.w3.org/1999/xlink" preserveAspectRatio="xMidYMid" width="57" height="13" viewBox="0 0 57 13">

  <path fill="#0075b8" d="M55.122,11.165 C55.122,11.165 55.768,11.165 55.768,11.165 C55.768,11.165 55.768,12.219 55.768,12.219 C55.768,12.219 54.900,12.219 54.900,12.219 C53.473,12.219 52.760,11.216 52.760,9.975 C52.760,9.975 52.760,4.841 52.760,4.841 C52.760,4.841 51.705,4.841 51.705,4.841 C51.705,4.841 51.705,3.907 51.705,3.907 C51.705,3.907 52.760,3.907 52.760,3.907 C52.760,3.907 52.760,1.289 52.760,1.289 C52.760,1.289 53.983,1.289 53.983,1.289 C53.983,1.289 53.983,3.907 53.983,3.907 C53.983,3.907 55.768,3.907 55.768,3.907 C55.768,3.907 55.768,4.841 55.768,4.841 C55.768,4.841 53.983,4.841 53.983,4.841 C53.983,4.841 53.983,9.941 53.983,9.941 C53.983,10.706 54.340,11.165 55.122,11.165 ZM47.473,11.233 C48.271,11.233 48.764,10.978 49.393,10.281 C49.393,10.281 50.226,11.080 50.226,11.080 C49.359,12.015 48.628,12.321 47.473,12.321 C45.364,12.321 43.767,10.893 43.767,8.037 C43.767,5.182 45.364,3.753 47.473,3.753 C48.628,3.753 49.359,4.060 50.226,4.995 C50.226,4.995 49.393,5.776 49.393,5.776 C48.764,5.080 48.271,4.841 47.473,4.841 C46.656,4.841 45.977,5.165 45.534,5.794 C45.144,6.337 44.990,6.983 44.990,8.037 C44.990,9.091 45.144,9.737 45.534,10.281 C45.977,10.910 46.656,11.233 47.473,11.233 ZM40.026,11.420 C39.347,12.100 38.734,12.321 37.612,12.321 C36.457,12.321 35.776,12.100 35.250,11.556 C34.842,11.148 34.621,10.519 34.621,9.856 C34.621,8.394 35.641,7.442 37.511,7.442 C37.511,7.442 40.026,7.442 40.026,7.442 C40.026,7.442 40.026,6.644 40.026,6.644 C40.026,5.419 39.414,4.808 37.885,4.808 C36.813,4.808 36.270,5.063 35.776,5.759 C35.776,5.759 34.943,4.995 34.943,4.995 C35.691,4.025 36.541,3.753 37.901,3.753 C40.146,3.753 41.250,4.723 41.250,6.542 C41.250,6.542 41.250,12.219 41.250,12.219 C41.250,12.219 40.026,12.219 40.026,12.219 C40.026,12.219 40.026,11.420 40.026,11.420 ZM40.026,8.360 C40.026,8.360 37.681,8.360 37.681,8.360 C36.423,8.360 35.811,8.870 35.811,9.839 C35.811,10.808 36.406,11.267 37.731,11.267 C38.445,11.267 39.074,11.216 39.602,10.706 C39.891,10.434 40.026,9.958 40.026,9.261 C40.026,9.261 40.026,8.360 40.026,8.360 ZM29.844,9.975 C29.844,9.975 29.844,4.841 29.844,4.841 C29.844,4.841 28.790,4.841 28.790,4.841 C28.790,4.841 28.790,3.907 28.790,3.907 C28.790,3.907 29.844,3.907 29.844,3.907 C29.844,3.907 29.844,1.289 29.844,1.289 C29.844,1.289 31.068,1.289 31.068,1.289 C31.068,1.289 31.068,3.907 31.068,3.907 C31.068,3.907 32.853,3.907 32.853,3.907 C32.853,3.907 32.853,4.841 32.853,4.841 C32.853,4.841 31.068,4.841 31.068,4.841 C31.068,4.841 31.068,9.941 31.068,9.941 C31.068,10.706 31.425,11.165 32.207,11.165 C32.207,11.165 32.853,11.165 32.853,11.165 C32.853,11.165 32.853,12.219 32.853,12.219 C32.853,12.219 31.986,12.219 31.986,12.219 C30.558,12.219 29.844,11.216 29.844,9.975 ZM25.440,7.068 C25.440,5.589 24.642,4.841 23.384,4.841 C22.126,4.841 21.310,5.606 21.310,7.068 C21.310,7.068 21.310,12.219 21.310,12.219 C21.310,12.219 20.086,12.219 20.086,12.219 C20.086,12.219 20.086,3.855 20.086,3.855 C20.086,3.855 21.310,3.855 21.310,3.855 C21.310,3.855 21.310,4.773 21.310,4.773 C21.904,4.094 22.721,3.753 23.656,3.753 C24.557,3.753 25.287,4.025 25.797,4.536 C26.393,5.113 26.664,5.895 26.664,6.864 C26.664,6.864 26.664,12.219 26.664,12.219 C26.664,12.219 25.440,12.219 25.440,12.219 C25.440,12.219 25.440,7.068 25.440,7.068 ZM14.051,12.321 C13.031,12.321 12.232,11.947 11.654,11.369 C10.804,10.502 10.634,9.329 10.634,8.037 C10.634,6.745 10.804,5.572 11.654,4.706 C12.232,4.127 13.031,3.753 14.051,3.753 C15.070,3.753 15.869,4.127 16.447,4.706 C17.297,5.572 17.467,6.745 17.467,8.037 C17.467,9.329 17.297,10.502 16.447,11.369 C15.869,11.947 15.070,12.321 14.051,12.321 ZM15.580,5.454 C15.189,5.063 14.646,4.841 14.051,4.841 C13.456,4.841 12.929,5.063 12.538,5.454 C11.926,6.065 11.857,7.102 11.857,8.037 C11.857,8.972 11.926,10.009 12.538,10.621 C12.929,11.012 13.456,11.233 14.051,11.233 C14.646,11.233 15.189,11.012 15.580,10.621 C16.192,10.009 16.243,8.972 16.243,8.037 C16.243,7.102 16.192,6.065 15.580,5.454 ZM4.242,11.165 C5.755,11.165 6.825,10.196 7.148,8.717 C7.148,8.717 8.440,8.717 8.440,8.717 C8.049,10.995 6.400,12.321 4.242,12.321 C3.052,12.321 1.964,11.879 1.148,11.063 C0.010,9.924 0.010,8.734 0.010,6.168 C0.010,3.601 0.010,2.411 1.148,1.272 C1.964,0.456 3.052,0.014 4.242,0.014 C6.418,0.014 8.032,1.340 8.440,3.618 C8.440,3.618 7.114,3.618 7.114,3.618 C6.791,2.139 5.755,1.170 4.242,1.170 C3.443,1.170 2.678,1.476 2.150,2.020 C1.386,2.802 1.301,3.635 1.301,6.168 C1.301,8.700 1.386,9.533 2.150,10.315 C2.678,10.859 3.443,11.165 4.242,11.165 Z" />
</svg>
