<svg xmlns="http://www.w3.org/2000/svg" xmlns:xlink="http://www.w3.org/1999/xlink" preserveAspectRatio="xMidYMid" width="130" height="13" viewBox="0 0 130 13">

  <path fill="#0075b8" d="M123.648,8.360 C123.648,10.196 124.515,11.250 126.113,11.250 C127.082,11.250 127.643,10.961 128.306,10.298 C128.306,10.298 129.139,11.029 129.139,11.029 C128.289,11.879 127.507,12.321 126.079,12.321 C123.869,12.321 122.424,10.995 122.424,8.037 C122.424,5.335 123.733,3.753 125.858,3.753 C128.017,3.753 129.292,5.317 129.292,7.799 C129.292,7.799 129.292,8.360 129.292,8.360 C129.292,8.360 123.648,8.360 123.648,8.360 ZM127.812,6.048 C127.490,5.283 126.742,4.791 125.858,4.791 C124.974,4.791 124.226,5.283 123.903,6.048 C123.716,6.507 123.682,6.762 123.648,7.442 C123.648,7.442 128.067,7.442 128.067,7.442 C128.034,6.762 128.000,6.507 127.812,6.048 ZM117.800,11.233 C118.599,11.233 119.092,10.978 119.721,10.281 C119.721,10.281 120.554,11.080 120.554,11.080 C119.687,12.015 118.956,12.321 117.800,12.321 C115.692,12.321 114.094,10.893 114.094,8.037 C114.094,5.182 115.692,3.753 117.800,3.753 C118.956,3.753 119.687,4.060 120.554,4.995 C120.554,4.995 119.721,5.776 119.721,5.776 C119.092,5.080 118.599,4.841 117.800,4.841 C116.984,4.841 116.304,5.165 115.862,5.794 C115.471,6.337 115.318,6.983 115.318,8.037 C115.318,9.091 115.471,9.737 115.862,10.281 C116.304,10.910 116.984,11.233 117.800,11.233 ZM110.185,0.099 C110.185,0.099 111.562,0.099 111.562,0.099 C111.562,0.099 111.562,1.476 111.562,1.476 C111.562,1.476 110.185,1.476 110.185,1.476 C110.185,1.476 110.185,0.099 110.185,0.099 ZM104.217,12.321 C103.197,12.321 102.398,11.947 101.820,11.369 C100.971,10.502 100.801,9.329 100.801,8.037 C100.801,6.745 100.971,5.572 101.820,4.706 C102.398,4.127 103.197,3.753 104.217,3.753 C105.237,3.753 106.036,4.127 106.614,4.706 C107.464,5.572 107.634,6.745 107.634,8.037 C107.634,9.329 107.464,10.502 106.614,11.369 C106.036,11.947 105.237,12.321 104.217,12.321 ZM105.747,5.454 C105.356,5.062 104.812,4.841 104.217,4.841 C103.622,4.841 103.095,5.062 102.704,5.454 C102.092,6.065 102.024,7.102 102.024,8.037 C102.024,8.972 102.092,10.009 102.704,10.621 C103.095,11.012 103.622,11.233 104.217,11.233 C104.812,11.233 105.356,11.012 105.747,10.621 C106.359,10.009 106.410,8.972 106.410,8.037 C106.410,7.102 106.359,6.065 105.747,5.454 ZM94.544,12.219 C94.544,12.219 90.567,0.116 90.567,0.116 C90.567,0.116 91.927,0.116 91.927,0.116 C91.927,0.116 95.071,9.907 95.071,9.907 C95.071,9.907 98.216,0.116 98.216,0.116 C98.216,0.116 99.576,0.116 99.576,0.116 C99.576,0.116 95.599,12.219 95.599,12.219 C95.599,12.219 94.544,12.219 94.544,12.219 ZM82.866,7.510 C84.327,7.646 85.330,8.207 85.330,9.771 C85.330,11.386 83.954,12.321 81.931,12.321 C80.520,12.321 79.415,11.998 78.497,11.114 C78.497,11.114 79.313,10.298 79.313,10.298 C79.976,10.995 80.877,11.267 81.914,11.267 C83.291,11.267 84.141,10.774 84.141,9.788 C84.141,9.057 83.716,8.649 82.747,8.564 C82.747,8.564 81.370,8.445 81.370,8.445 C79.738,8.309 78.871,7.578 78.871,6.201 C78.871,4.671 80.163,3.753 81.948,3.753 C83.138,3.753 84.209,4.042 84.956,4.654 C84.956,4.654 84.157,5.454 84.157,5.454 C83.562,4.995 82.798,4.791 81.931,4.791 C80.707,4.791 80.061,5.317 80.061,6.168 C80.061,6.881 80.469,7.306 81.522,7.391 C81.522,7.391 82.866,7.510 82.866,7.510 ZM74.791,0.116 C74.791,0.116 76.270,0.116 76.270,0.116 C76.270,0.116 76.270,1.544 76.270,1.544 C76.270,1.544 74.791,2.887 74.791,2.887 C74.791,2.887 74.791,0.116 74.791,0.116 ZM70.898,4.841 C69.674,4.841 68.893,5.811 68.893,7.085 C68.893,7.085 68.893,12.219 68.893,12.219 C68.893,12.219 67.668,12.219 67.668,12.219 C67.668,12.219 67.668,3.856 67.668,3.856 C67.668,3.856 68.893,3.856 68.893,3.856 C68.893,3.856 68.893,4.876 68.893,4.876 C69.352,4.179 70.270,3.753 71.238,3.753 C72.037,3.753 72.649,3.940 73.244,4.536 C73.244,4.536 72.343,5.454 72.343,5.454 C71.884,4.995 71.544,4.841 70.898,4.841 ZM61.888,11.250 C62.857,11.250 63.418,10.961 64.081,10.298 C64.081,10.298 64.914,11.029 64.914,11.029 C64.064,11.879 63.282,12.321 61.854,12.321 C59.645,12.321 58.199,10.995 58.199,8.037 C58.199,5.335 59.508,3.753 61.633,3.753 C63.792,3.753 65.067,5.317 65.067,7.799 C65.067,7.799 65.067,8.360 65.067,8.360 C65.067,8.360 59.423,8.360 59.423,8.360 C59.423,10.196 60.290,11.250 61.888,11.250 ZM63.843,7.442 C63.809,6.762 63.775,6.507 63.588,6.048 C63.265,5.283 62.517,4.791 61.633,4.791 C60.749,4.791 60.001,5.283 59.679,6.048 C59.491,6.507 59.458,6.762 59.423,7.442 C59.423,7.442 63.843,7.442 63.843,7.442 ZM54.459,7.068 C54.459,5.589 53.660,4.841 52.402,4.841 C51.178,4.841 50.311,5.606 50.311,6.932 C50.311,6.932 50.311,12.219 50.311,12.219 C50.311,12.219 49.087,12.219 49.087,12.219 C49.087,12.219 49.087,7.068 49.087,7.068 C49.087,5.589 48.288,4.841 47.030,4.841 C45.772,4.841 44.939,5.606 44.939,7.068 C44.939,7.068 44.939,12.219 44.939,12.219 C44.939,12.219 43.716,12.219 43.716,12.219 C43.716,12.219 43.716,3.856 43.716,3.856 C43.716,3.856 44.939,3.856 44.939,3.856 C44.939,3.856 44.939,4.773 44.939,4.773 C45.534,4.094 46.367,3.753 47.302,3.753 C48.458,3.753 49.359,4.229 49.869,5.147 C50.515,4.229 51.450,3.753 52.623,3.753 C53.523,3.753 54.271,4.042 54.781,4.536 C55.376,5.113 55.683,5.895 55.683,6.864 C55.683,6.864 55.683,12.219 55.683,12.219 C55.683,12.219 54.459,12.219 54.459,12.219 C54.459,12.219 54.459,7.068 54.459,7.068 ZM37.681,12.321 C36.660,12.321 35.861,11.947 35.284,11.369 C34.434,10.502 34.264,9.329 34.264,8.037 C34.264,6.745 34.434,5.572 35.284,4.706 C35.861,4.127 36.660,3.753 37.681,3.753 C38.700,3.753 39.499,4.127 40.077,4.706 C40.927,5.572 41.097,6.745 41.097,8.037 C41.097,9.329 40.927,10.502 40.077,11.369 C39.499,11.947 38.700,12.321 37.681,12.321 ZM39.210,5.454 C38.819,5.062 38.275,4.841 37.681,4.841 C37.085,4.841 36.559,5.062 36.167,5.454 C35.556,6.065 35.487,7.102 35.487,8.037 C35.487,8.972 35.556,10.009 36.167,10.621 C36.559,11.012 37.085,11.233 37.681,11.233 C38.275,11.233 38.819,11.012 39.210,10.621 C39.822,10.009 39.873,8.972 39.873,8.037 C39.873,7.102 39.822,6.065 39.210,5.454 ZM29.266,9.975 C29.266,9.975 29.266,4.841 29.266,4.841 C29.266,4.841 28.212,4.841 28.212,4.841 C28.212,4.841 28.212,3.907 28.212,3.907 C28.212,3.907 29.266,3.907 29.266,3.907 C29.266,3.907 29.266,1.289 29.266,1.289 C29.266,1.289 30.490,1.289 30.490,1.289 C30.490,1.289 30.490,3.907 30.490,3.907 C30.490,3.907 32.274,3.907 32.274,3.907 C32.274,3.907 32.274,4.841 32.274,4.841 C32.274,4.841 30.490,4.841 30.490,4.841 C30.490,4.841 30.490,9.941 30.490,9.941 C30.490,10.706 30.847,11.165 31.629,11.165 C31.629,11.165 32.274,11.165 32.274,11.165 C32.274,11.165 32.274,12.219 32.274,12.219 C32.274,12.219 31.408,12.219 31.408,12.219 C29.979,12.219 29.266,11.216 29.266,9.975 ZM24.200,7.510 C25.661,7.646 26.664,8.207 26.664,9.771 C26.664,11.386 25.288,12.321 23.265,12.321 C21.854,12.321 20.749,11.998 19.831,11.114 C19.831,11.114 20.647,10.298 20.647,10.298 C21.310,10.995 22.211,11.267 23.248,11.267 C24.624,11.267 25.475,10.774 25.475,9.788 C25.475,9.057 25.050,8.649 24.081,8.564 C24.081,8.564 22.704,8.445 22.704,8.445 C21.072,8.309 20.205,7.578 20.205,6.201 C20.205,4.671 21.497,3.753 23.282,3.753 C24.472,3.753 25.543,4.042 26.290,4.654 C26.290,4.654 25.491,5.454 25.491,5.454 C24.896,4.995 24.132,4.791 23.265,4.791 C22.041,4.791 21.395,5.317 21.395,6.168 C21.395,6.881 21.803,7.306 22.856,7.391 C22.856,7.391 24.200,7.510 24.200,7.510 ZM16.362,11.284 C15.768,11.964 14.935,12.321 14.000,12.321 C13.099,12.321 12.351,12.049 11.841,11.539 C11.246,10.961 10.991,10.162 10.991,9.193 C10.991,9.193 10.991,3.856 10.991,3.856 C10.991,3.856 12.215,3.856 12.215,3.856 C12.215,3.856 12.215,9.006 12.215,9.006 C12.215,10.485 12.997,11.233 14.255,11.233 C15.513,11.233 16.346,10.468 16.346,9.006 C16.346,9.006 16.346,3.856 16.346,3.856 C16.346,3.856 17.569,3.856 17.569,3.856 C17.569,3.856 17.569,12.219 17.569,12.219 C17.569,12.219 16.362,12.219 16.362,12.219 C16.362,12.219 16.362,11.284 16.362,11.284 ZM4.242,11.165 C5.755,11.165 6.825,10.196 7.148,8.717 C7.148,8.717 8.440,8.717 8.440,8.717 C8.049,10.995 6.400,12.321 4.242,12.321 C3.052,12.321 1.964,11.879 1.148,11.063 C0.009,9.924 0.009,8.734 0.009,6.168 C0.009,3.601 0.009,2.411 1.148,1.272 C1.964,0.456 3.052,0.014 4.242,0.014 C6.418,0.014 8.032,1.340 8.440,3.618 C8.440,3.618 7.114,3.618 7.114,3.618 C6.792,2.139 5.755,1.170 4.242,1.170 C3.443,1.170 2.678,1.476 2.151,2.020 C1.386,2.802 1.301,3.635 1.301,6.168 C1.301,8.700 1.386,9.533 2.151,10.315 C2.678,10.859 3.443,11.165 4.242,11.165 ZM111.477,12.219 C111.477,12.219 110.252,12.219 110.252,12.219 C110.252,12.219 110.252,3.856 110.252,3.856 C110.252,3.856 111.477,3.856 111.477,3.856 C111.477,3.856 111.477,12.219 111.477,12.219 Z" />
</svg>
