<?xml version="1.0" encoding="utf-8"?>
<!-- Generator: Adobe Illustrator 18.1.1, SVG Export Plug-In . SVG Version: 6.00 Build 0)  -->
<svg version="1.1" id="レイヤー_1" xmlns="http://www.w3.org/2000/svg" xmlns:xlink="http://www.w3.org/1999/xlink" x="0px"
	 y="0px" viewBox="0 0 215 127" enable-background="new 0 0 215 127" xml:space="preserve">
<g>
	<path fill="#0075B8" d="M109.31373,49.2106c-0.99589-0.51686-2.62853-0.51686-3.62441,0L52.84946,76.61829
		c-0.99614,0.51402-2.65741,0.57281-3.68831,0.12959L0.79207,55.85049c-1.03091-0.44302-1.06081-1.2267-0.05854-1.73972
		L105.68291,0.3838c1.00228-0.51174,2.63978-0.51174,3.63592,0L214.2682,54.11077c0.99615,0.51302,0.97366,1.2967-0.0575,1.73972
		l-48.37512,20.89739c-1.03096,0.44322-2.68599,0.38443-3.68326-0.12959L109.31373,49.2106z"/>
	<polygon fill="#0075B8" points="47.49478,103.60136 51.24802,103.60136 54.92382,120.23026 54.9936,120.23026 59.52315,103.60136 
		62.08673,103.60136 66.62499,120.23026 66.68992,120.23026 70.37311,103.60136 74.12022,103.60136 68.27015,127 65.31444,127 
		60.83983,110.14031 60.77516,110.14031 56.31055,127 53.35125,127 	"/>
	<polygon fill="#0075B8" points="96.97094,116.7779 87.69865,116.7779 87.69865,127 84.14889,127 84.14889,103.60136 
		87.69865,103.60136 87.69865,113.62129 96.97094,113.62129 96.97094,103.60136 100.52557,103.60136 100.52557,127 96.97094,127 	
		"/>
	<rect x="112.65874" y="103.60136" fill="#0075B8" width="3.55463" height="23.39864"/>
	<polygon fill="#0075B8" points="128.36519,103.60136 131.9137,103.60136 131.9137,123.65142 143.31682,123.65142 143.31682,127 
		128.36519,127 	"/>
	<polygon fill="#0075B8" points="152.54796,103.60136 156.09764,103.60136 156.09764,123.65142 167.50186,123.65142 167.50186,127 
		152.54796,127 	"/>
</g>
</svg>
