<svg xmlns="http://www.w3.org/2000/svg" xmlns:xlink="http://www.w3.org/1999/xlink" preserveAspectRatio="xMidYMid" width="405.812" height="119.25" viewBox="0 0 405.812 119.25">
  <path  fill="#FFFFFF" d="M403.271,107.765 L403.271,92.823 C403.271,90.496 402.702,88.714 401.562,87.477 C400.423,86.239 398.779,85.621 396.631,85.621 C395.198,85.621 393.974,85.901 392.956,86.463 C391.939,87.024 391.162,87.847 390.625,88.929 C390.088,90.012 389.819,91.310 389.819,92.823 L389.819,107.765 L387.280,107.765 L387.280,83.668 L389.819,83.668 L389.819,86.524 C391.626,84.425 393.994,83.375 396.924,83.375 C399.625,83.375 401.758,84.140 403.320,85.670 C404.980,87.249 405.810,89.479 405.810,92.359 L405.810,107.765 L403.271,107.765 ZM377.831,102.662 C377.390,103.704 376.771,104.623 375.973,105.421 C374.180,107.179 371.947,108.058 369.275,108.058 C366.586,108.058 364.345,107.179 362.553,105.421 C361.754,104.623 361.135,103.708 360.695,102.674 C360.255,101.641 359.953,100.555 359.790,99.415 C359.627,98.275 359.546,97.039 359.546,95.704 C359.546,93.686 359.758,91.854 360.182,90.211 C360.605,88.567 361.395,87.167 362.553,86.012 C364.312,84.254 366.554,83.375 369.275,83.375 C371.980,83.375 374.213,84.254 375.973,86.012 C376.771,86.810 377.390,87.729 377.831,88.771 C378.270,89.813 378.572,90.906 378.735,92.054 C378.898,93.201 378.979,94.418 378.979,95.704 C378.979,96.990 378.898,98.211 378.735,99.366 C378.572,100.521 378.270,101.620 377.831,102.662 ZM375.990,90.968 C375.721,89.666 375.141,88.567 374.247,87.672 C372.915,86.305 371.257,85.621 369.275,85.621 C367.276,85.621 365.610,86.305 364.278,87.672 C363.385,88.567 362.804,89.686 362.536,91.028 C362.268,92.371 362.134,93.930 362.134,95.704 C362.134,97.462 362.268,99.021 362.536,100.379 C362.804,101.738 363.385,102.865 364.278,103.761 C365.644,105.128 367.309,105.812 369.275,105.812 C371.225,105.812 372.882,105.128 374.247,103.761 C375.141,102.865 375.721,101.763 375.990,100.452 C376.257,99.143 376.392,97.560 376.392,95.704 C376.392,93.849 376.257,92.270 375.990,90.968 ZM348.413,72.169 L351.562,72.169 L351.562,75.318 L348.413,75.318 L348.413,72.169 ZM335.701,106.959 C334.820,106.422 334.154,105.682 333.706,104.737 C333.256,103.793 333.032,102.703 333.032,101.466 L333.032,85.572 L329.736,85.572 L329.736,83.668 L333.032,83.668 L333.032,75.953 L335.620,75.953 L335.620,83.668 L341.064,83.668 L341.064,85.572 L335.620,85.572 L335.620,101.515 C335.620,104.184 336.849,105.519 339.307,105.519 L341.064,105.519 L341.064,107.765 L338.860,107.765 C337.636,107.765 336.583,107.496 335.701,106.959 ZM315.161,108.058 C313.664,108.058 312.341,107.813 311.194,107.325 C310.046,106.837 308.984,105.950 308.008,104.664 L308.008,119.264 L305.469,119.264 L305.469,83.668 L308.008,83.668 L308.008,86.769 C308.952,85.482 310.005,84.596 311.169,84.107 C312.333,83.619 313.664,83.375 315.161,83.375 C316.414,83.375 317.545,83.558 318.555,83.924 C319.563,84.290 320.402,84.808 321.069,85.475 C323.136,87.542 324.170,90.951 324.170,95.704 C324.170,100.473 323.136,103.891 321.069,105.958 C319.637,107.357 317.667,108.058 315.161,108.058 ZM320.193,88.380 C319.267,86.541 317.471,85.621 314.807,85.621 C312.126,85.621 310.323,86.541 309.397,88.380 C308.471,90.219 308.008,92.660 308.008,95.704 C308.008,98.764 308.471,101.214 309.397,103.053 C310.323,104.892 312.126,105.812 314.807,105.812 C317.471,105.812 319.267,104.892 320.193,103.053 C321.119,101.214 321.582,98.764 321.582,95.704 C321.582,92.660 321.119,90.219 320.193,88.380 ZM293.213,104.908 C291.403,107.008 289.032,108.058 286.098,108.058 C283.392,108.058 281.256,107.293 279.691,105.763 C278.012,104.168 277.173,101.938 277.173,99.073 L277.173,83.668 L279.761,83.668 L279.761,98.609 C279.761,100.937 280.330,102.719 281.470,103.956 C282.609,105.193 284.253,105.812 286.401,105.812 C287.833,105.812 289.058,105.530 290.076,104.969 C291.093,104.407 291.870,103.586 292.407,102.503 C292.944,101.421 293.213,100.123 293.213,98.609 L293.213,83.668 L295.752,83.668 L295.752,107.765 L293.213,107.765 L293.213,104.908 ZM268.530,86.012 C267.895,85.751 267.065,85.621 266.040,85.621 C265.063,85.621 264.164,85.813 263.342,86.194 C262.520,86.577 261.829,87.110 261.267,87.794 C260.706,88.478 260.286,89.251 260.010,90.113 C259.733,90.976 259.595,91.912 259.595,92.921 L259.595,107.765 L257.056,107.765 L257.056,83.668 L259.595,83.668 L259.595,86.866 C260.294,85.760 261.287,84.900 262.573,84.290 C263.859,83.680 265.218,83.375 266.650,83.375 C267.838,83.375 268.892,83.546 269.812,83.888 C270.731,84.229 271.606,84.823 272.436,85.670 L270.605,87.525 C269.856,86.776 269.165,86.272 268.530,86.012 ZM238.452,94.264 L242.334,94.605 C244.580,94.801 246.317,95.354 247.546,96.266 C248.775,97.177 249.390,98.724 249.390,100.904 C249.390,102.353 248.995,103.618 248.204,104.700 C247.414,105.783 246.289,106.613 244.831,107.190 C243.372,107.769 241.673,108.058 239.734,108.058 C235.627,108.058 232.368,106.910 229.956,104.615 L231.721,102.857 C233.595,104.827 236.234,105.812 239.640,105.812 C241.986,105.812 243.783,105.400 245.029,104.578 C246.276,103.757 246.899,102.532 246.899,100.904 C246.899,99.667 246.525,98.724 245.776,98.072 C245.027,97.421 243.864,97.022 242.285,96.876 L238.281,96.510 C233.431,96.119 231.006,94.020 231.006,90.211 C231.006,88.844 231.360,87.644 232.069,86.609 C232.778,85.576 233.785,84.778 235.089,84.217 C236.393,83.655 237.925,83.375 239.685,83.375 C241.380,83.375 242.953,83.599 244.404,84.046 C245.854,84.494 247.101,85.116 248.144,85.914 L246.435,87.623 C244.580,86.256 242.334,85.572 239.697,85.572 C237.711,85.572 236.189,85.979 235.132,86.793 C234.074,87.606 233.545,88.746 233.545,90.211 C233.545,91.480 233.939,92.437 234.729,93.079 C235.518,93.723 236.759,94.117 238.452,94.264 ZM219.775,72.169 L222.925,72.169 L222.925,75.318 L219.775,75.318 L219.775,72.169 ZM207.666,104.518 C206.966,105.218 206.160,105.808 205.249,106.287 C204.337,106.768 203.340,107.134 202.258,107.386 C201.176,107.639 200.016,107.765 198.779,107.765 L186.816,107.765 L186.816,72.169 L198.779,72.169 C200.016,72.169 201.176,72.295 202.258,72.547 C203.340,72.800 204.333,73.162 205.237,73.634 C206.140,74.105 206.950,74.700 207.666,75.416 C209.131,76.864 210.075,78.643 210.498,80.750 C210.921,82.858 211.133,85.394 211.133,88.355 L211.133,89.454 L211.133,90.626 C211.133,93.751 210.917,96.485 210.486,98.829 C210.054,101.173 209.114,103.069 207.666,104.518 ZM208.423,89.454 L208.423,87.965 C208.423,85.458 208.260,83.338 207.935,81.604 C207.609,79.871 206.885,78.443 205.762,77.320 C203.987,75.481 201.440,74.562 198.120,74.562 L189.526,74.562 L189.526,105.372 L198.120,105.372 C201.440,105.372 203.987,104.452 205.762,102.613 C206.885,101.490 207.609,99.956 207.935,98.011 C208.260,96.066 208.423,93.734 208.423,91.017 L208.423,89.454 ZM198.633,32.216 L202.026,32.216 L202.026,39.003 L198.633,42.421 L198.633,32.216 ZM175.745,31.153 C177.087,32.789 179.028,33.607 181.567,33.607 C182.967,33.607 184.163,33.388 185.156,32.948 C186.149,32.509 187.174,31.760 188.232,30.702 L190.137,32.216 C188.849,33.502 187.549,34.438 186.237,35.023 C184.925,35.609 183.316,35.902 181.410,35.902 C179.193,35.902 177.323,35.435 175.799,34.498 C174.275,33.562 173.119,32.175 172.328,30.336 C171.538,28.497 171.143,26.234 171.143,23.549 C171.143,21.596 171.362,19.858 171.803,18.336 C172.242,16.814 172.873,15.533 173.697,14.491 C174.520,13.449 175.543,12.644 176.765,12.074 C177.987,11.505 179.340,11.220 180.823,11.220 C182.338,11.220 183.683,11.480 184.856,12.001 C186.029,12.521 187.040,13.291 187.887,14.308 C188.735,15.325 189.378,16.559 189.818,18.007 C190.258,19.455 190.478,21.107 190.478,22.963 L190.478,24.110 L173.730,24.110 C173.730,27.170 174.402,29.518 175.745,31.153 ZM187.915,22.060 C187.866,20.871 187.793,20.013 187.695,19.483 C187.598,18.955 187.394,18.300 187.085,17.519 C186.580,16.281 185.750,15.297 184.595,14.564 C183.439,13.832 182.185,13.466 180.835,13.466 C179.451,13.466 178.198,13.828 177.075,14.552 C175.952,15.276 175.122,16.266 174.585,17.519 C174.275,18.300 174.068,18.983 173.962,19.569 C173.856,20.155 173.779,20.985 173.730,22.060 L187.915,22.060 ZM160.669,35.609 L158.081,35.609 L158.081,13.417 L154.785,13.417 L154.785,11.513 L158.081,11.513 L158.081,6.312 C158.081,5.075 158.305,3.980 158.754,3.028 C159.203,2.076 159.873,1.336 160.762,0.807 C161.652,0.278 162.701,0.014 163.909,0.014 L166.113,0.014 L166.113,2.260 L164.355,2.260 C161.897,2.260 160.669,3.595 160.669,6.264 L160.669,11.513 L166.113,11.513 L166.113,13.417 L160.669,13.417 L160.669,35.609 ZM157.739,75.953 L160.327,75.953 L160.327,83.668 L165.771,83.668 L165.771,85.572 L160.327,85.572 L160.327,101.515 C160.327,104.184 161.556,105.519 164.014,105.519 L165.771,105.519 L165.771,107.765 L163.567,107.765 C162.343,107.765 161.290,107.496 160.408,106.959 C159.527,106.422 158.861,105.682 158.413,104.737 C157.963,103.793 157.739,102.703 157.739,101.466 L157.739,85.572 L154.443,85.572 L154.443,83.668 L157.739,83.668 L157.739,75.953 ZM144.800,0.014 L147.949,0.014 L147.949,3.163 L144.800,3.163 L144.800,0.014 ZM145.117,11.513 L147.656,11.513 L147.656,35.609 L145.117,35.609 L145.117,11.513 ZM144.922,83.668 L147.461,83.668 L147.461,107.765 L144.922,107.765 L144.922,104.908 C143.112,107.008 140.741,108.058 137.807,108.058 C135.101,108.058 132.965,107.293 131.400,105.763 C129.721,104.168 128.882,101.938 128.882,99.073 L128.882,83.668 L131.470,83.668 L131.470,98.609 C131.470,100.937 132.039,102.719 133.179,103.956 C134.318,105.193 135.962,105.812 138.110,105.812 C139.542,105.812 140.767,105.530 141.785,104.969 C142.802,104.407 143.579,103.586 144.116,102.503 C144.653,101.421 144.922,100.123 144.922,98.609 L144.922,83.668 ZM117.163,0.014 L119.873,0.014 L119.873,33.217 L138.769,33.217 L138.769,35.609 L117.163,35.609 L117.163,0.014 ZM119.774,88.771 C120.214,89.813 120.515,90.906 120.678,92.054 C120.841,93.201 120.923,94.418 120.923,95.704 C120.923,96.990 120.841,98.211 120.678,99.366 C120.515,100.521 120.214,101.620 119.774,102.662 C119.333,103.704 118.714,104.623 117.916,105.421 C116.123,107.179 113.891,108.058 111.218,108.058 C108.529,108.058 106.289,107.179 104.496,105.421 C103.697,104.623 103.078,103.708 102.638,102.674 C102.198,101.641 101.896,100.555 101.734,99.415 C101.570,98.275 101.489,97.039 101.489,95.704 C101.489,93.686 101.701,91.854 102.125,90.211 C102.548,88.567 103.339,87.167 104.496,86.012 C106.256,84.254 108.497,83.375 111.218,83.375 C113.923,83.375 116.156,84.254 117.916,86.012 C118.714,86.810 119.333,87.729 119.774,88.771 ZM111.218,85.621 C109.219,85.621 107.554,86.305 106.222,87.672 C105.328,88.567 104.747,89.686 104.479,91.028 C104.211,92.371 104.077,93.930 104.077,95.704 C104.077,97.462 104.211,99.021 104.479,100.379 C104.747,101.738 105.328,102.865 106.222,103.761 C107.587,105.128 109.252,105.812 111.218,105.812 C113.168,105.812 114.825,105.128 116.190,103.761 C117.084,102.865 117.665,101.763 117.933,100.452 C118.201,99.143 118.335,97.560 118.335,95.704 C118.335,93.849 118.201,92.270 117.933,90.968 C117.665,89.666 117.084,88.567 116.190,87.672 C114.858,86.305 113.200,85.621 111.218,85.621 ZM94.800,13.856 C94.165,13.596 93.335,13.466 92.310,13.466 C91.333,13.466 90.434,13.657 89.612,14.039 C88.790,14.422 88.098,14.955 87.537,15.639 C86.975,16.322 86.556,17.096 86.279,17.958 C86.002,18.820 85.864,19.757 85.864,20.766 L85.864,35.609 L83.325,35.609 L83.325,11.513 L85.864,11.513 L85.864,14.711 C86.564,13.604 87.557,12.745 88.843,12.135 C90.128,11.524 91.487,11.220 92.920,11.220 C94.108,11.220 95.162,11.391 96.081,11.732 C97.001,12.074 97.876,12.668 98.706,13.515 L96.875,15.370 C96.126,14.621 95.435,14.117 94.800,13.856 ZM89.331,84.461 C90.682,85.186 91.715,86.224 92.432,87.574 C93.147,88.925 93.506,90.521 93.506,92.359 L93.506,107.765 L90.967,107.765 L90.967,92.823 C90.967,90.496 90.397,88.714 89.258,87.477 C88.118,86.239 86.475,85.621 84.326,85.621 C82.894,85.621 81.669,85.901 80.652,86.463 C79.634,87.024 78.857,87.847 78.320,88.929 C77.783,90.012 77.515,91.310 77.515,92.823 L77.515,107.765 L74.976,107.765 L74.976,72.169 L77.515,72.169 L77.515,86.524 C79.321,84.425 81.689,83.375 84.619,83.375 C86.409,83.375 87.980,83.737 89.331,84.461 ZM71.069,32.753 C69.260,34.853 66.888,35.902 63.954,35.902 C61.248,35.902 59.112,35.138 57.548,33.607 C55.869,32.013 55.029,29.782 55.029,26.918 L55.029,11.513 L57.617,11.513 L57.617,26.454 C57.617,28.781 58.186,30.563 59.326,31.801 C60.465,33.038 62.109,33.656 64.258,33.656 C65.690,33.656 66.915,33.375 67.932,32.813 C68.949,32.252 69.727,31.431 70.264,30.348 C70.801,29.266 71.069,27.968 71.069,26.454 L71.069,11.513 L73.608,11.513 L73.608,35.609 L71.069,35.609 L71.069,32.753 ZM46.143,72.169 L49.292,72.169 L49.292,75.318 L46.143,75.318 L46.143,72.169 ZM45.921,30.507 C45.481,31.549 44.862,32.468 44.063,33.266 C42.270,35.023 40.038,35.902 37.366,35.902 C34.677,35.902 32.436,35.023 30.644,33.266 C29.845,32.468 29.226,31.553 28.786,30.519 C28.346,29.485 28.044,28.399 27.881,27.260 C27.718,26.120 27.637,24.884 27.637,23.549 C27.637,21.530 27.849,19.699 28.272,18.056 C28.696,16.412 29.486,15.012 30.644,13.856 C32.403,12.099 34.644,11.220 37.366,11.220 C40.071,11.220 42.304,12.099 44.063,13.856 C44.862,14.654 45.481,15.573 45.921,16.615 C46.361,17.657 46.663,18.751 46.826,19.898 C46.989,21.046 47.070,22.263 47.070,23.549 C47.070,24.835 46.989,26.056 46.826,27.211 C46.663,28.366 46.361,29.465 45.921,30.507 ZM44.081,18.813 C43.812,17.511 43.231,16.412 42.338,15.517 C41.005,14.149 39.348,13.466 37.366,13.466 C35.367,13.466 33.701,14.149 32.369,15.517 C31.476,16.412 30.894,17.530 30.626,18.873 C30.358,20.216 30.225,21.774 30.225,23.549 C30.225,25.307 30.358,26.865 30.626,28.224 C30.894,29.583 31.476,30.710 32.369,31.605 C33.734,32.973 35.399,33.656 37.366,33.656 C39.315,33.656 40.973,32.973 42.338,31.605 C43.231,30.710 43.812,29.607 44.081,28.297 C44.348,26.987 44.482,25.404 44.482,23.549 C44.482,21.693 44.348,20.114 44.081,18.813 ZM13.208,35.609 L10.498,35.609 L10.498,20.863 L-0.000,0.014 L2.903,0.014 L11.952,18.007 L20.798,0.014 L23.706,0.014 L13.208,20.863 L13.208,35.609 ZM10.864,103.126 L19.165,72.169 L21.973,72.169 L30.273,103.126 L37.769,72.169 L40.601,72.169 L31.714,107.765 L28.955,107.765 L20.557,76.759 L12.158,107.765 L9.424,107.765 L0.513,72.169 L3.369,72.169 L10.864,103.126 ZM48.999,107.765 L46.460,107.765 L46.460,83.668 L48.999,83.668 L48.999,107.765 ZM59.277,75.953 L61.865,75.953 L61.865,83.668 L67.310,83.668 L67.310,85.572 L61.865,85.572 L61.865,101.515 C61.865,104.184 63.094,105.519 65.552,105.519 L67.310,105.519 L67.310,107.765 L65.105,107.765 C63.881,107.765 62.828,107.496 61.946,106.959 C61.065,106.422 60.399,105.682 59.951,104.737 C59.501,103.793 59.277,102.703 59.277,101.466 L59.277,85.572 L55.981,85.572 L55.981,83.668 L59.277,83.668 L59.277,75.953 ZM222.632,107.765 L220.093,107.765 L220.093,83.668 L222.632,83.668 L222.632,107.765 ZM351.269,107.765 L348.730,107.765 L348.730,83.668 L351.269,83.668 L351.269,107.765 Z" />
</svg>
