<svg xmlns="http://www.w3.org/2000/svg" xmlns:xlink="http://www.w3.org/1999/xlink" preserveAspectRatio="xMidYMid" width="209" height="17" viewBox="0 0 209 17">

  <path fill="#0075b8" d="M205.321,4.791 C204.098,4.791 203.451,5.317 203.451,6.168 C203.451,6.881 203.859,7.306 204.914,7.391 C204.914,7.391 206.256,7.510 206.256,7.510 C207.719,7.646 208.721,8.207 208.721,9.771 C208.721,11.386 207.344,12.321 205.321,12.321 C203.910,12.321 202.806,11.998 201.888,11.114 C201.888,11.114 202.703,10.298 202.703,10.298 C203.367,10.995 204.268,11.267 205.305,11.267 C206.682,11.267 207.531,10.774 207.531,9.788 C207.531,9.057 207.105,8.649 206.137,8.564 C206.137,8.564 204.760,8.445 204.760,8.445 C203.129,8.309 202.262,7.578 202.262,6.201 C202.262,4.671 203.554,3.753 205.338,3.753 C206.528,3.753 207.600,4.042 208.348,4.654 C208.348,4.654 207.548,5.454 207.548,5.454 C206.953,4.995 206.188,4.791 205.321,4.791 ZM198.487,7.068 C198.487,5.589 197.689,4.841 196.431,4.841 C195.173,4.841 194.357,5.606 194.357,7.068 C194.357,7.068 194.357,12.219 194.357,12.219 C194.357,12.219 193.133,12.219 193.133,12.219 C193.133,12.219 193.133,3.855 193.133,3.855 C193.133,3.855 194.357,3.855 194.357,3.855 C194.357,3.855 194.357,4.773 194.357,4.773 C194.951,4.094 195.768,3.753 196.703,3.753 C197.604,3.753 198.334,4.025 198.844,4.536 C199.439,5.113 199.711,5.895 199.711,6.864 C199.711,6.864 199.711,12.219 199.711,12.219 C199.711,12.219 198.487,12.219 198.487,12.219 C198.487,12.219 198.487,7.068 198.487,7.068 ZM187.098,12.321 C186.078,12.321 185.279,11.947 184.701,11.369 C183.852,10.502 183.682,9.329 183.682,8.037 C183.682,6.745 183.852,5.572 184.701,4.705 C185.279,4.127 186.078,3.753 187.098,3.753 C188.117,3.753 188.916,4.127 189.494,4.705 C190.345,5.572 190.515,6.745 190.515,8.037 C190.515,9.329 190.345,10.502 189.494,11.369 C188.916,11.947 188.117,12.321 187.098,12.321 ZM188.627,5.454 C188.236,5.063 187.693,4.841 187.098,4.841 C186.503,4.841 185.977,5.063 185.585,5.454 C184.973,6.065 184.905,7.102 184.905,8.037 C184.905,8.972 184.973,10.009 185.585,10.621 C185.977,11.012 186.503,11.233 187.098,11.233 C187.693,11.233 188.236,11.012 188.627,10.621 C189.240,10.009 189.291,8.972 189.291,8.037 C189.291,7.102 189.240,6.065 188.627,5.454 ZM179.754,0.099 C179.754,0.099 181.131,0.099 181.131,0.099 C181.131,0.099 181.131,1.476 181.131,1.476 C181.131,1.476 179.754,1.476 179.754,1.476 C179.754,1.476 179.754,0.099 179.754,0.099 ZM174.383,9.975 C174.383,9.975 174.383,4.841 174.383,4.841 C174.383,4.841 173.329,4.841 173.329,4.841 C173.329,4.841 173.329,3.907 173.329,3.907 C173.329,3.907 174.383,3.907 174.383,3.907 C174.383,3.907 174.383,1.289 174.383,1.289 C174.383,1.289 175.606,1.289 175.606,1.289 C175.606,1.289 175.606,3.907 175.606,3.907 C175.606,3.907 177.392,3.907 177.392,3.907 C177.392,3.907 177.392,4.841 177.392,4.841 C177.392,4.841 175.606,4.841 175.606,4.841 C175.606,4.841 175.606,9.941 175.606,9.941 C175.606,10.706 175.963,11.165 176.746,11.165 C176.746,11.165 177.392,11.165 177.392,11.165 C177.392,11.165 177.392,12.219 177.392,12.219 C177.392,12.219 176.524,12.219 176.524,12.219 C175.097,12.219 174.383,11.216 174.383,9.975 ZM169.316,7.510 C170.779,7.646 171.781,8.207 171.781,9.771 C171.781,11.386 170.404,12.321 168.382,12.321 C166.971,12.321 165.866,11.998 164.948,11.114 C164.948,11.114 165.764,10.298 165.764,10.298 C166.428,10.995 167.328,11.267 168.365,11.267 C169.742,11.267 170.592,10.774 170.592,9.788 C170.592,9.057 170.166,8.649 169.197,8.564 C169.197,8.564 167.820,8.445 167.820,8.445 C166.189,8.309 165.322,7.578 165.322,6.201 C165.322,4.671 166.614,3.753 168.398,3.753 C169.589,3.753 170.660,4.042 171.408,4.654 C171.408,4.654 170.608,5.454 170.608,5.454 C170.014,4.995 169.249,4.791 168.382,4.791 C167.158,4.791 166.512,5.317 166.512,6.168 C166.512,6.881 166.920,7.306 167.975,7.391 C167.975,7.391 169.316,7.510 169.316,7.510 ZM159.967,11.250 C160.936,11.250 161.497,10.961 162.160,10.298 C162.160,10.298 162.992,11.029 162.992,11.029 C162.143,11.879 161.361,12.321 159.934,12.321 C157.723,12.321 156.278,10.995 156.278,8.037 C156.278,5.334 157.588,3.753 159.712,3.753 C161.871,3.753 163.146,5.317 163.146,7.799 C163.146,7.799 163.146,8.360 163.146,8.360 C163.146,8.360 157.502,8.360 157.502,8.360 C157.502,10.196 158.369,11.250 159.967,11.250 ZM161.922,7.442 C161.888,6.762 161.854,6.507 161.667,6.048 C161.344,5.283 160.596,4.791 159.712,4.791 C158.828,4.791 158.080,5.283 157.758,6.048 C157.570,6.507 157.536,6.762 157.502,7.442 C157.502,7.442 161.922,7.442 161.922,7.442 ZM152.471,11.284 C151.875,11.964 151.043,12.321 150.107,12.321 C149.207,12.321 148.459,12.049 147.949,11.539 C147.354,10.961 147.099,10.162 147.099,9.193 C147.099,9.193 147.099,3.855 147.099,3.855 C147.099,3.855 148.322,3.855 148.322,3.855 C148.322,3.855 148.322,9.006 148.322,9.006 C148.322,10.485 149.104,11.233 150.362,11.233 C151.620,11.233 152.453,10.468 152.453,9.006 C152.453,9.006 152.453,3.855 152.453,3.855 C152.453,3.855 153.677,3.855 153.677,3.855 C153.677,3.855 153.677,12.219 153.677,12.219 C153.677,12.219 152.471,12.219 152.471,12.219 C152.471,12.219 152.471,11.284 152.471,11.284 ZM144.089,12.814 C144.089,12.814 142.746,11.471 142.746,11.471 C142.016,12.032 141.114,12.321 140.146,12.321 C138.938,12.321 137.867,11.879 137.052,11.063 C135.912,9.924 135.912,8.734 135.912,6.168 C135.912,3.601 135.912,2.411 137.052,1.272 C137.867,0.456 138.938,0.014 140.146,0.014 C141.352,0.014 142.423,0.456 143.238,1.272 C144.378,2.411 144.378,3.601 144.378,6.168 C144.378,8.479 144.378,9.669 143.545,10.706 C143.545,10.706 144.871,12.032 144.871,12.032 C144.871,12.032 144.089,12.814 144.089,12.814 ZM142.236,2.037 C141.709,1.493 140.944,1.170 140.146,1.170 C139.346,1.170 138.582,1.493 138.055,2.037 C137.289,2.819 137.205,3.635 137.205,6.168 C137.205,8.700 137.289,9.516 138.055,10.298 C138.582,10.842 139.346,11.165 140.146,11.165 C140.791,11.165 141.369,10.961 141.862,10.587 C141.862,10.587 140.332,9.057 140.332,9.057 C140.332,9.057 141.114,8.275 141.114,8.275 C141.114,8.275 142.594,9.754 142.594,9.754 C143.035,9.040 143.086,8.105 143.086,6.168 C143.086,3.635 143.001,2.819 142.236,2.037 ZM127.650,11.216 C126.971,12.100 126.188,12.321 125.271,12.321 C124.421,12.321 123.673,12.032 123.230,11.590 C122.381,10.740 122.211,9.346 122.211,8.037 C122.211,6.729 122.381,5.334 123.230,4.484 C123.673,4.042 124.421,3.753 125.271,3.753 C126.188,3.753 126.953,3.957 127.633,4.825 C127.633,4.825 127.633,0.116 127.633,0.116 C127.633,0.116 128.857,0.116 128.857,0.116 C128.857,0.116 128.857,12.219 128.857,12.219 C128.857,12.219 127.650,12.219 127.650,12.219 C127.650,12.219 127.650,11.216 127.650,11.216 ZM125.543,4.841 C123.724,4.841 123.435,6.405 123.435,8.037 C123.435,9.669 123.724,11.233 125.543,11.233 C127.361,11.233 127.633,9.669 127.633,8.037 C127.633,6.405 127.361,4.841 125.543,4.841 ZM116.873,11.250 C117.842,11.250 118.402,10.961 119.065,10.298 C119.065,10.298 119.898,11.029 119.898,11.029 C119.049,11.879 118.267,12.321 116.839,12.321 C114.629,12.321 113.184,10.995 113.184,8.037 C113.184,5.334 114.492,3.753 116.617,3.753 C118.776,3.753 120.051,5.317 120.051,7.799 C120.051,7.799 120.051,8.360 120.051,8.360 C120.051,8.360 114.408,8.360 114.408,8.360 C114.408,10.196 115.274,11.250 116.873,11.250 ZM118.827,7.442 C118.793,6.762 118.760,6.507 118.572,6.048 C118.250,5.283 117.502,4.791 116.617,4.791 C115.733,4.791 114.986,5.283 114.663,6.048 C114.476,6.507 114.441,6.762 114.408,7.442 C114.408,7.442 118.827,7.442 118.827,7.442 ZM110.039,12.219 C110.039,12.219 107.387,7.935 107.387,7.935 C107.387,7.935 105.755,9.805 105.755,9.805 C105.755,9.805 105.755,12.219 105.755,12.219 C105.755,12.219 104.531,12.219 104.531,12.219 C104.531,12.219 104.531,0.116 104.531,0.116 C104.531,0.116 105.755,0.116 105.755,0.116 C105.755,0.116 105.755,8.207 105.755,8.207 C105.755,8.207 109.528,3.855 109.528,3.855 C109.528,3.855 111.059,3.855 111.059,3.855 C111.059,3.855 108.220,7.051 108.220,7.051 C108.220,7.051 111.551,12.219 111.551,12.219 C111.551,12.219 110.039,12.219 110.039,12.219 ZM99.669,7.510 C101.131,7.646 102.134,8.207 102.134,9.771 C102.134,11.386 100.757,12.321 98.734,12.321 C97.323,12.321 96.219,11.998 95.301,11.114 C95.301,11.114 96.116,10.298 96.116,10.298 C96.779,10.995 97.680,11.267 98.717,11.267 C100.094,11.267 100.943,10.774 100.943,9.788 C100.943,9.057 100.519,8.649 99.550,8.564 C99.550,8.564 98.173,8.445 98.173,8.445 C96.541,8.309 95.674,7.578 95.674,6.201 C95.674,4.671 96.966,3.753 98.751,3.753 C99.941,3.753 101.012,4.042 101.760,4.654 C101.760,4.654 100.961,5.454 100.961,5.454 C100.365,4.995 99.601,4.791 98.734,4.791 C97.510,4.791 96.864,5.317 96.864,6.168 C96.864,6.881 97.271,7.306 98.326,7.391 C98.326,7.391 99.669,7.510 99.669,7.510 ZM92.019,9.482 C92.019,9.482 86.732,9.482 86.732,9.482 C86.732,9.482 85.764,12.219 85.764,12.219 C85.764,12.219 84.387,12.219 84.387,12.219 C84.387,12.219 88.840,0.116 88.840,0.116 C88.840,0.116 89.928,0.116 89.928,0.116 C89.928,0.116 94.364,12.219 94.364,12.219 C94.364,12.219 92.987,12.219 92.987,12.219 C92.987,12.219 92.019,9.482 92.019,9.482 ZM89.400,1.969 C89.400,1.969 87.123,8.360 87.123,8.360 C87.123,8.360 91.645,8.360 91.645,8.360 C91.645,8.360 89.400,1.969 89.400,1.969 ZM75.359,15.227 C74.917,15.652 74.322,15.805 73.728,15.805 C73.728,15.805 73.200,15.805 73.200,15.805 C73.200,15.805 73.200,14.717 73.200,14.717 C73.200,14.717 73.574,14.717 73.574,14.717 C74.424,14.717 74.680,14.445 74.951,13.681 C74.951,13.681 75.547,12.049 75.547,12.049 C75.547,12.049 72.537,3.855 72.537,3.855 C72.537,3.855 73.863,3.855 73.863,3.855 C73.863,3.855 76.158,10.570 76.158,10.570 C76.158,10.570 78.436,3.855 78.436,3.855 C78.436,3.855 79.762,3.855 79.762,3.855 C79.762,3.855 75.954,14.242 75.954,14.242 C75.784,14.701 75.598,15.006 75.359,15.227 ZM68.798,9.992 C68.798,9.992 68.798,0.116 68.798,0.116 C68.798,0.116 70.022,0.116 70.022,0.116 C70.022,0.116 70.022,9.941 70.022,9.941 C70.022,10.757 70.293,11.165 71.144,11.165 C71.144,11.165 71.807,11.165 71.807,11.165 C71.807,11.165 71.807,12.219 71.807,12.219 C71.807,12.219 70.922,12.219 70.922,12.219 C69.461,12.219 68.798,11.267 68.798,9.992 ZM63.392,9.975 C63.392,9.975 63.392,4.841 63.392,4.841 C63.392,4.841 62.338,4.841 62.338,4.841 C62.338,4.841 62.338,3.907 62.338,3.907 C62.338,3.907 63.392,3.907 63.392,3.907 C63.392,3.907 63.392,1.289 63.392,1.289 C63.392,1.289 64.615,1.289 64.615,1.289 C64.615,1.289 64.615,3.907 64.615,3.907 C64.615,3.907 66.400,3.907 66.400,3.907 C66.400,3.907 66.400,4.841 66.400,4.841 C66.400,4.841 64.615,4.841 64.615,4.841 C64.615,4.841 64.615,9.941 64.615,9.941 C64.615,10.706 64.973,11.165 65.755,11.165 C65.755,11.165 66.400,11.165 66.400,11.165 C66.400,11.165 66.400,12.219 66.400,12.219 C66.400,12.219 65.533,12.219 65.533,12.219 C64.105,12.219 63.392,11.216 63.392,9.975 ZM58.988,7.068 C58.988,5.589 58.189,4.841 56.932,4.841 C55.674,4.841 54.857,5.606 54.857,7.068 C54.857,7.068 54.857,12.219 54.857,12.219 C54.857,12.219 53.634,12.219 53.634,12.219 C53.634,12.219 53.634,3.855 53.634,3.855 C53.634,3.855 54.857,3.855 54.857,3.855 C54.857,3.855 54.857,4.773 54.857,4.773 C55.453,4.094 56.269,3.753 57.203,3.753 C58.104,3.753 58.836,4.025 59.346,4.536 C59.940,5.113 60.212,5.895 60.212,6.864 C60.212,6.864 60.212,12.219 60.212,12.219 C60.212,12.219 58.988,12.219 58.988,12.219 C58.988,12.219 58.988,7.068 58.988,7.068 ZM47.854,11.250 C48.822,11.250 49.383,10.961 50.047,10.298 C50.047,10.298 50.879,11.029 50.879,11.029 C50.029,11.879 49.247,12.321 47.819,12.321 C45.609,12.321 44.165,10.995 44.165,8.037 C44.165,5.334 45.474,3.753 47.599,3.753 C49.758,3.753 51.032,5.317 51.032,7.799 C51.032,7.799 51.032,8.360 51.032,8.360 C51.032,8.360 45.389,8.360 45.389,8.360 C45.389,10.196 46.256,11.250 47.854,11.250 ZM49.809,7.442 C49.774,6.762 49.740,6.507 49.553,6.048 C49.230,5.283 48.482,4.791 47.599,4.791 C46.715,4.791 45.967,5.283 45.644,6.048 C45.457,6.507 45.423,6.762 45.389,7.442 C45.389,7.442 49.809,7.442 49.809,7.442 ZM40.356,11.284 C39.762,11.964 38.929,12.321 37.994,12.321 C37.093,12.321 36.345,12.049 35.835,11.539 C35.240,10.961 34.984,10.162 34.984,9.193 C34.984,9.193 34.984,3.855 34.984,3.855 C34.984,3.855 36.209,3.855 36.209,3.855 C36.209,3.855 36.209,9.006 36.209,9.006 C36.209,10.485 36.990,11.233 38.248,11.233 C39.506,11.233 40.340,10.468 40.340,9.006 C40.340,9.006 40.340,3.855 40.340,3.855 C40.340,3.855 41.563,3.855 41.563,3.855 C41.563,3.855 41.563,12.219 41.563,12.219 C41.563,12.219 40.356,12.219 40.356,12.219 C40.356,12.219 40.356,11.284 40.356,11.284 ZM30.785,11.233 C30.105,12.100 29.341,12.321 28.423,12.321 C27.572,12.321 26.825,12.032 26.383,11.590 C25.533,10.740 25.363,9.346 25.363,8.037 C25.363,6.729 25.533,5.334 26.383,4.484 C26.825,4.042 27.572,3.753 28.423,3.753 C29.341,3.753 30.123,3.957 30.803,4.841 C30.803,4.841 30.803,3.855 30.803,3.855 C30.803,3.855 32.010,3.855 32.010,3.855 C32.010,3.855 32.010,15.958 32.010,15.958 C32.010,15.958 30.785,15.958 30.785,15.958 C30.785,15.958 30.785,11.233 30.785,11.233 ZM28.695,4.841 C26.876,4.841 26.587,6.405 26.587,8.037 C26.587,9.669 26.876,11.233 28.695,11.233 C30.514,11.233 30.785,9.669 30.785,8.037 C30.785,6.405 30.514,4.841 28.695,4.841 ZM20.024,11.250 C20.994,11.250 21.555,10.961 22.218,10.298 C22.218,10.298 23.051,11.029 23.051,11.029 C22.200,11.879 21.418,12.321 19.990,12.321 C17.781,12.321 16.336,10.995 16.336,8.037 C16.336,5.334 17.645,3.753 19.769,3.753 C21.929,3.753 23.203,5.317 23.203,7.799 C23.203,7.799 23.203,8.360 23.203,8.360 C23.203,8.360 17.560,8.360 17.560,8.360 C17.560,10.196 18.427,11.250 20.024,11.250 ZM21.979,7.442 C21.945,6.762 21.911,6.507 21.725,6.048 C21.401,5.283 20.653,4.791 19.769,4.791 C18.886,4.791 18.138,5.283 17.814,6.048 C17.628,6.507 17.594,6.762 17.560,7.442 C17.560,7.442 21.979,7.442 21.979,7.442 ZM12.868,4.841 C11.645,4.841 10.862,5.811 10.862,7.085 C10.862,7.085 10.862,12.219 10.862,12.219 C10.862,12.219 9.639,12.219 9.639,12.219 C9.639,12.219 9.639,3.855 9.639,3.855 C9.639,3.855 10.862,3.855 10.862,3.855 C10.862,3.855 10.862,4.876 10.862,4.876 C11.321,4.179 12.239,3.753 13.208,3.753 C14.007,3.753 14.619,3.940 15.214,4.536 C15.214,4.536 14.313,5.454 14.313,5.454 C13.854,4.995 13.514,4.841 12.868,4.841 ZM1.291,5.726 C1.291,5.726 6.595,5.726 6.595,5.726 C6.595,5.726 6.595,6.881 6.595,6.881 C6.595,6.881 1.291,6.881 1.291,6.881 C1.291,6.881 1.291,12.219 1.291,12.219 C1.291,12.219 -0.001,12.219 -0.001,12.219 C-0.001,12.219 -0.001,0.116 -0.001,0.116 C-0.001,0.116 7.513,0.116 7.513,0.116 C7.513,0.116 7.513,1.272 7.513,1.272 C7.513,1.272 1.291,1.272 1.291,1.272 C1.291,1.272 1.291,5.726 1.291,5.726 ZM181.047,12.219 C181.047,12.219 179.822,12.219 179.822,12.219 C179.822,12.219 179.822,3.855 179.822,3.855 C179.822,3.855 181.047,3.855 181.047,3.855 C181.047,3.855 181.047,12.219 181.047,12.219 Z" />
</svg>
