<svg xmlns="http://www.w3.org/2000/svg" xmlns:xlink="http://www.w3.org/1999/xlink" preserveAspectRatio="xMidYMid" width="65" height="13" viewBox="0 0 65 13">

  <path fill="#0075b8" d="M61.589,4.666 C60.365,4.666 59.719,5.193 59.719,6.042 C59.719,6.756 60.127,7.181 61.181,7.266 C61.181,7.266 62.524,7.385 62.524,7.385 C63.986,7.521 64.989,8.082 64.989,9.646 C64.989,11.261 63.612,12.196 61.589,12.196 C60.178,12.196 59.073,11.872 58.155,10.988 C58.155,10.988 58.972,10.173 58.972,10.173 C59.634,10.870 60.535,11.142 61.572,11.142 C62.949,11.142 63.799,10.649 63.799,9.663 C63.799,8.932 63.374,8.524 62.405,8.439 C62.405,8.439 61.028,8.320 61.028,8.320 C59.396,8.184 58.529,7.453 58.529,6.076 C58.529,4.546 59.821,3.629 61.606,3.629 C62.796,3.629 63.867,3.918 64.615,4.529 C64.615,4.529 63.816,5.329 63.816,5.329 C63.221,4.870 62.456,4.666 61.589,4.666 ZM53.174,11.125 C54.143,11.125 54.704,10.836 55.367,10.173 C55.367,10.173 56.200,10.904 56.200,10.904 C55.350,11.754 54.568,12.196 53.140,12.196 C50.930,12.196 49.485,10.870 49.485,7.912 C49.485,5.209 50.794,3.629 52.919,3.629 C55.078,3.629 56.353,5.193 56.353,7.674 C56.353,7.674 56.353,8.235 56.353,8.235 C56.353,8.235 50.709,8.235 50.709,8.235 C50.709,10.071 51.576,11.125 53.174,11.125 ZM55.129,7.317 C55.095,6.637 55.061,6.382 54.874,5.923 C54.551,5.158 53.803,4.666 52.919,4.666 C52.035,4.666 51.287,5.158 50.964,5.923 C50.777,6.382 50.743,6.637 50.709,7.317 C50.709,7.317 55.129,7.317 55.129,7.317 ZM46.018,4.716 C44.793,4.716 44.012,5.685 44.012,6.961 C44.012,6.961 44.012,12.094 44.012,12.094 C44.012,12.094 42.788,12.094 42.788,12.094 C42.788,12.094 42.788,3.731 42.788,3.731 C42.788,3.731 44.012,3.731 44.012,3.731 C44.012,3.731 44.012,4.751 44.012,4.751 C44.471,4.054 45.389,3.629 46.357,3.629 C47.156,3.629 47.768,3.815 48.363,4.411 C48.363,4.411 47.462,5.329 47.462,5.329 C47.003,4.870 46.663,4.716 46.018,4.716 ZM38.520,11.159 C37.925,11.839 37.092,12.196 36.157,12.196 C35.257,12.196 34.509,11.924 33.999,11.414 C33.404,10.836 33.148,10.037 33.148,9.068 C33.148,9.068 33.148,3.731 33.148,3.731 C33.148,3.731 34.373,3.731 34.373,3.731 C34.373,3.731 34.373,8.881 34.373,8.881 C34.373,10.360 35.154,11.108 36.412,11.108 C37.670,11.108 38.503,10.342 38.503,8.881 C38.503,8.881 38.503,3.731 38.503,3.731 C38.503,3.731 39.727,3.731 39.727,3.731 C39.727,3.731 39.727,12.094 39.727,12.094 C39.727,12.094 38.520,12.094 38.520,12.094 C38.520,12.094 38.520,11.159 38.520,11.159 ZM27.794,9.850 C27.794,9.850 27.794,4.716 27.794,4.716 C27.794,4.716 26.740,4.716 26.740,4.716 C26.740,4.716 26.740,3.781 26.740,3.781 C26.740,3.781 27.794,3.781 27.794,3.781 C27.794,3.781 27.794,1.164 27.794,1.164 C27.794,1.164 29.018,1.164 29.018,1.164 C29.018,1.164 29.018,3.781 29.018,3.781 C29.018,3.781 30.803,3.781 30.803,3.781 C30.803,3.781 30.803,4.716 30.803,4.716 C30.803,4.716 29.018,4.716 29.018,4.716 C29.018,4.716 29.018,9.816 29.018,9.816 C29.018,10.581 29.375,11.040 30.157,11.040 C30.157,11.040 30.803,11.040 30.803,11.040 C30.803,11.040 30.803,12.094 30.803,12.094 C30.803,12.094 29.936,12.094 29.936,12.094 C28.508,12.094 27.794,11.091 27.794,9.850 ZM23.391,11.295 C22.711,11.975 22.099,12.196 20.977,12.196 C19.821,12.196 19.141,11.975 18.614,11.431 C18.206,11.023 17.985,10.394 17.985,9.731 C17.985,8.269 19.005,7.317 20.875,7.317 C20.875,7.317 23.391,7.317 23.391,7.317 C23.391,7.317 23.391,6.519 23.391,6.519 C23.391,5.294 22.779,4.683 21.249,4.683 C20.178,4.683 19.634,4.938 19.141,5.634 C19.141,5.634 18.309,4.870 18.309,4.870 C19.056,3.901 19.906,3.629 21.266,3.629 C23.510,3.629 24.615,4.598 24.615,6.416 C24.615,6.416 24.615,12.094 24.615,12.094 C24.615,12.094 23.391,12.094 23.391,12.094 C23.391,12.094 23.391,11.295 23.391,11.295 ZM23.391,8.235 C23.391,8.235 21.045,8.235 21.045,8.235 C19.787,8.235 19.175,8.746 19.175,9.714 C19.175,10.683 19.770,11.142 21.096,11.142 C21.810,11.142 22.439,11.091 22.966,10.581 C23.255,10.309 23.391,9.833 23.391,9.136 C23.391,9.136 23.391,8.235 23.391,8.235 ZM12.868,11.125 C13.837,11.125 14.397,10.836 15.061,10.173 C15.061,10.173 15.894,10.904 15.894,10.904 C15.044,11.754 14.262,12.196 12.834,12.196 C10.624,12.196 9.179,10.870 9.179,7.912 C9.179,5.209 10.488,3.629 12.613,3.629 C14.772,3.629 16.047,5.193 16.047,7.674 C16.047,7.674 16.047,8.235 16.047,8.235 C16.047,8.235 10.403,8.235 10.403,8.235 C10.403,10.071 11.270,11.125 12.868,11.125 ZM14.823,7.317 C14.789,6.637 14.755,6.382 14.568,5.923 C14.245,5.158 13.497,4.666 12.613,4.666 C11.729,4.666 10.981,5.158 10.658,5.923 C10.471,6.382 10.437,6.637 10.403,7.317 C10.403,7.317 14.823,7.317 14.823,7.317 ZM1.291,5.601 C1.291,5.601 6.595,5.601 6.595,5.601 C6.595,5.601 6.595,6.756 6.595,6.756 C6.595,6.756 1.291,6.756 1.291,6.756 C1.291,6.756 1.291,12.094 1.291,12.094 C1.291,12.094 -0.001,12.094 -0.001,12.094 C-0.001,12.094 -0.001,-0.009 -0.001,-0.009 C-0.001,-0.009 7.513,-0.009 7.513,-0.009 C7.513,-0.009 7.513,1.147 7.513,1.147 C7.513,1.147 1.291,1.147 1.291,1.147 C1.291,1.147 1.291,5.601 1.291,5.601 Z" />
</svg>
