<?xml version="1.0" encoding="utf-8"?>
<!-- Generator: Adobe Illustrator 18.1.1, SVG Export Plug-In . SVG Version: 6.00 Build 0)  -->
<svg version="1.1" id="レイヤー_1" xmlns="http://www.w3.org/2000/svg" xmlns:xlink="http://www.w3.org/1999/xlink" x="0px"
	 y="0px" viewBox="-519 245 161 22" enable-background="new -519 245 161 22" xml:space="preserve">
<path id="path-1" fill="#0075B8" d="M-364,253.2c-2.2,0-3.3,0.9-3.3,2.4c0,1.3,0.7,2,2.6,2.2l2.4,0.2c2.6,0.2,4.4,1.2,4.4,4
	c0,2.9-2.4,4.5-6,4.5c-2.5,0-4.4-0.6-6.1-2.1l1.4-1.4c1.2,1.2,2.8,1.7,4.6,1.7c2.4,0,3.9-0.9,3.9-2.6c0-1.3-0.8-2-2.5-2.2l-2.4-0.2
	c-2.9-0.2-4.4-1.5-4.4-4c0-2.7,2.3-4.3,5.4-4.3c2.1,0,4,0.5,5.3,1.6l-1.4,1.4C-361.1,253.6-362.5,253.2-364,253.2z M-378.4,266.4
	l-3.9-11.5l-3.8,11.5h-2l-4.7-14.8h2.3l3.4,11.8l3.9-11.8h1.9l3.9,11.8l3.4-11.8h2.3l-4.6,14.8H-378.4z M-400.6,264.6
	c1.7,0,2.7-0.5,3.9-1.7l1.5,1.3c-1.5,1.5-2.9,2.3-5.4,2.3c-3.9,0-6.5-2.3-6.5-7.6c0-4.8,2.3-7.6,6.1-7.6c3.8,0,6.1,2.8,6.1,7.1v1
	h-10C-404.9,262.8-403.4,264.6-400.6,264.6z M-397.1,257.9c-0.1-1.2-0.1-1.6-0.5-2.5c-0.6-1.3-1.9-2.2-3.4-2.2
	c-1.6,0-2.9,0.9-3.4,2.2c-0.3,0.8-0.4,1.3-0.5,2.5H-397.1z M-425.6,249.2v17.1h-2.3V245h2.2l11.3,17.1V245h2.3v21.4h-2.2
	L-425.6,249.2z M-445.3,262.4v-9.1h-1.9v-1.7h1.9v-4.6h2.2v4.6h3.2v1.7h-3.2v9c0,1.3,0.6,2.2,2,2.2h1.1v1.9h-1.5
	C-444.1,266.4-445.3,264.6-445.3,262.4z M-456.6,257.8l2.4,0.2c2.6,0.2,4.4,1.2,4.4,4c0,2.9-2.4,4.5-6,4.5c-2.5,0-4.4-0.6-6.1-2.1
	l1.4-1.4c1.2,1.2,2.8,1.7,4.6,1.7c2.4,0,3.9-0.9,3.9-2.6c0-1.3-0.8-2-2.5-2.2l-2.4-0.2c-2.9-0.2-4.4-1.5-4.4-4
	c0-2.7,2.3-4.3,5.4-4.3c2.1,0,4,0.5,5.3,1.6l-1.4,1.4c-1-0.8-2.4-1.2-3.9-1.2c-2.2,0-3.3,0.9-3.3,2.4
	C-459.2,256.9-458.5,257.7-456.6,257.8z M-470.8,264.6c1.7,0,2.7-0.5,3.9-1.7l1.5,1.3c-1.5,1.5-2.9,2.3-5.4,2.3
	c-3.9,0-6.5-2.3-6.5-7.6c0-4.8,2.3-7.6,6.1-7.6c3.8,0,6.1,2.8,6.1,7.1v1h-10C-475.1,262.8-473.6,264.6-470.8,264.6z M-467.3,257.9
	c-0.1-1.2-0.1-1.6-0.5-2.5c-0.6-1.3-1.9-2.2-3.5-2.2c-1.6,0-2.9,0.9-3.4,2.2c-0.3,0.8-0.4,1.3-0.5,2.5H-467.3z M-486.1,262.4v-9.1
	h-1.9v-1.7h1.9v-4.6h2.2v4.6h3.1v1.7h-3.1v9c0,1.3,0.6,2.2,2,2.2h1.1v1.9h-1.5C-484.8,266.4-486.1,264.6-486.1,262.4z M-493.8,264.9
	c-1.2,1.2-2.3,1.6-4.3,1.6c-2,0-3.2-0.4-4.2-1.4c-0.7-0.7-1.1-1.8-1.1-3c0-2.6,1.8-4.3,5.1-4.3h4.4v-1.4c0-2.2-1.1-3.2-3.8-3.2
	c-1.9,0-2.9,0.4-3.7,1.7l-1.5-1.4c1.3-1.7,2.8-2.2,5.2-2.2c4,0,5.9,1.7,5.9,4.9v10h-2.2V264.9z M-493.8,259.5h-4.1
	c-2.2,0-3.3,0.9-3.3,2.6c0,1.7,1.1,2.5,3.4,2.5c1.3,0,2.4-0.1,3.3-1c0.5-0.5,0.8-1.3,0.8-2.5V259.5z M-519,245h2.3v19.3h10.9v2H-519
	V245z"/>
</svg>
