<?xml version="1.0" encoding="utf-8"?>
<!-- Generator: Adobe Illustrator 18.1.1, SVG Export Plug-In . SVG Version: 6.00 Build 0)  -->
<svg version="1.1" id="logo" xmlns="http://www.w3.org/2000/svg" xmlns:xlink="http://www.w3.org/1999/xlink" x="0px"
	 y="0px" viewBox="0 0 250 212" enable-background="new 0 0 250 212" xml:space="preserve">
<g>
	<g>
		<path fill="#FFFFFF" d="M17.0124,203.8806c-1.09127,1.09128-2.69065,1.67546-4.56923,1.67546H6.25v-18.07021h6.19317
			c1.87859,0,3.47796,0.58438,4.56923,1.67525c1.87819,1.87859,1.77613,4.64374,1.77613,7.15764
			C18.78853,198.83102,18.89059,202.00342,17.0124,203.8806z M15.66708,190.53139c-0.9395-0.96405-2.1574-1.32036-3.55265-1.32036
			H8.18091v14.61844h3.93351c1.39525,0,2.61315-0.35471,3.55265-1.31917c1.24287-1.29399,1.19353-3.98465,1.19353-6.19156
			C16.86061,194.11002,16.90995,191.82559,15.66708,190.53139z"/>
		<path fill="#FFFFFF" d="M24.13927,199.79507c0,2.74019,1.2956,4.315,3.68247,4.315c1.44457,0,2.28161-0.4326,3.27343-1.42142
			l1.24287,1.09128c-1.26783,1.26782-2.43641,1.9279-4.56903,1.9279c-3.29819,0-5.4556-1.97923-5.4556-6.39468
			c0-4.03596,1.95287-6.39668,5.12706-6.39668c3.22091,0,5.12684,2.33575,5.12684,6.04019v0.83841H24.13927z M30.35741,196.34349
			c-0.48074-1.1422-1.59938-1.87857-2.91693-1.87857c-1.32056,0-2.43641,0.73637-2.91993,1.87857
			c-0.27902,0.68504-0.32854,1.06613-0.38127,2.0813h6.5994C30.68895,197.40962,30.63662,197.02853,30.35741,196.34349z"/>
		<path fill="#FFFFFF" d="M40.37943,205.70784c-2.10765,0-3.75675-0.48192-5.12704-1.80087l1.21829-1.21831
			c0.98902,1.03995,2.33434,1.44618,3.88379,1.44618c2.05534,0,3.32318-0.73618,3.32318-2.20851
			c0-1.09109-0.63253-1.70044-2.07991-1.82745l-2.05533-0.17676c-2.43641-0.20312-3.73181-1.2942-3.73181-3.35094
			c0-2.28302,1.92791-3.65471,4.59379-3.65471c1.77613,0,3.37571,0.4326,4.49154,1.34534l-1.19054,1.19353
			c-0.88955-0.68504-2.03317-0.99042-3.32597-0.99042c-1.82884,0-2.7927,0.78731-2.7927,2.05533
			c0,1.06612,0.61034,1.70163,2.18235,1.82846l2.00542,0.17694c2.18235,0.20312,3.67967,1.04155,3.67967,3.37572
			C45.45416,204.31279,43.39883,205.70784,40.37943,205.70784z"/>
		<path fill="#FFFFFF" d="M49.9455,189.61688c-0.68484,0-1.24567-0.55783-1.24567-1.24287
			c0-0.68524,0.56083-1.24327,1.24567-1.24327c0.68504,0,1.26803,0.55803,1.26803,1.24327
			C51.21354,189.05905,50.63055,189.61688,49.9455,189.61688z M49.03138,205.55606v-12.48621h1.82586v12.48621H49.03138z"/>
		<path fill="#FFFFFF" d="M59.46203,211.29207c-1.87837,0-2.91971-0.48193-4.24007-1.67548l1.19333-1.16718
			c0.91433,0.81248,1.54684,1.24327,2.99424,1.24327c2.41163,0,3.42542-1.70023,3.42542-3.83284v-1.95288
			c-1.01378,1.29399-2.15738,1.62413-3.49992,1.62413c-1.27063,0-2.36191-0.45715-3.02219-1.11723
			c-1.24287-1.24327-1.52208-3.17278-1.52208-5.20317c0-2.03015,0.27922-3.95847,1.52208-5.20273
			c0.66028-0.65889,1.77613-1.09149,3.04715-1.09149c1.3699,0,2.48614,0.30539,3.50252,1.62453v-1.47115h1.8013v12.86748
			C64.6638,209.03241,62.73549,211.29207,59.46203,211.29207z M59.74105,194.541c-2.71521,0-3.12424,2.33556-3.12424,4.66969
			c0,2.33575,0.40903,4.66991,3.12424,4.66991c2.71543,0,3.09389-2.33415,3.09389-4.66991
			C62.83494,196.87656,62.45647,194.541,59.74105,194.541z"/>
		<path fill="#FFFFFF" d="M77.22429,205.55606v-7.69069c0-2.20692-1.19334-3.32437-3.07173-3.32437
			c-1.87836,0-3.09667,1.14221-3.09667,3.32437v7.69069h-1.82606v-12.48621h1.82606v1.37029
			c0.88955-1.01517,2.10786-1.52367,3.50272-1.52367c1.34532,0,2.43639,0.40625,3.19893,1.16719
			c0.88676,0.86339,1.29282,2.03056,1.29282,3.47794v7.99446H77.22429z"/>
		<path fill="#FFFFFF" d="M92.90643,208.57684c-0.25404,0.68506-0.53305,1.14221-0.88935,1.47096
			c-0.66029,0.6353-1.54705,0.86319-2.43642,0.86319h-0.7875v-1.62453h0.55803c1.27064,0,1.65208-0.40584,2.05793-1.54803
			l0.88676-2.43642l-4.49174-12.23216h1.98064l3.42561,10.02484l3.40047-10.02484h1.98064L92.90643,208.57684z"/>
		<path fill="#FFFFFF" d="M108.91731,204.28682c-0.86179,0.86302-2.05534,1.42102-3.57721,1.42102
			c-1.52487,0-2.71541-0.558-3.58022-1.42102c-1.26784-1.29439-1.52206-3.04573-1.52206-4.97366
			c0-1.9297,0.25423-3.68106,1.52206-4.97527c0.86481-0.8618,2.05534-1.42142,3.58022-1.42142
			c1.52187,0,2.71542,0.55962,3.57721,1.42142c1.26783,1.2942,1.52208,3.04556,1.52208,4.97527
			C110.43939,201.24109,110.18514,202.99243,108.91731,204.28682z M107.62472,195.45534
			c-0.58598-0.58418-1.39806-0.91434-2.28461-0.91434c-0.88956,0-1.67687,0.33015-2.25986,0.91434
			c-0.91412,0.91312-1.01659,2.46118-1.01659,3.85782c0,1.39487,0.10247,2.9431,1.01659,3.85744
			c0.58298,0.58298,1.3703,0.91312,2.25986,0.91312c0.88656,0,1.69864-0.33014,2.28461-0.91312
			c0.91132-0.91434,0.98882-2.46257,0.98882-3.85744C108.61353,197.91652,108.53604,196.36845,107.62472,195.45534z"/>
		<path fill="#FFFFFF" d="M122.23775,205.55606v-1.39665c-0.88697,1.0154-2.13262,1.54843-3.52769,1.54843
			c-1.34532,0-2.46138-0.40582-3.22371-1.16696c-0.88676-0.8634-1.26804-2.05533-1.26804-3.50293v-7.96809h1.82586v7.6893
			c0,2.20872,1.16858,3.32455,3.04715,3.32455c1.87819,0,3.12146-1.14221,3.12146-3.32455v-7.6893h1.82864v12.48621H122.23775z"/>
		<path fill="#FFFFFF" d="M135.58536,195.45534c-0.68506-0.68504-1.19055-0.91434-2.15739-0.91434
			c-1.82587,0-2.99443,1.4476-2.99443,3.35075v7.66431h-1.82585v-12.48621h1.82585v1.52208
			c0.68504-1.03995,2.05814-1.67546,3.5027-1.67546c1.19356,0,2.10768,0.27921,2.99445,1.16719L135.58536,195.45534z"/>
		<path fill="#FFFFFF" d="M153.62682,204.28682c-0.8618,0.86302-2.05536,1.42102-3.57744,1.42102
			c-1.52466,0-2.71519-0.558-3.57999-1.42102c-1.26804-1.29439-1.52208-3.04573-1.52208-4.97366
			c0-1.9297,0.25404-3.68106,1.52208-4.97527c0.86479-0.8618,2.05533-1.42142,3.57999-1.42142
			c1.52208,0,2.71564,0.55962,3.57744,1.42142c1.27061,1.2942,1.52185,3.04556,1.52185,4.97527
			C155.14867,201.24109,154.89743,202.99243,153.62682,204.28682z M152.3338,195.45534
			c-0.58537-0.58418-1.39766-0.91434-2.28442-0.91434c-0.88934,0-1.67685,0.33015-2.25945,0.91434
			c-0.91452,0.91312-1.01399,2.46118-1.01399,3.85782c0,1.39487,0.09947,2.9431,1.01399,3.85744
			c0.5826,0.58298,1.3701,0.91312,2.25945,0.91312c0.88676,0,1.69905-0.33014,2.28442-0.91312
			c0.91174-0.91434,0.98903-2.46257,0.98903-3.85744C153.32283,197.91652,153.24554,196.36845,152.3338,195.45534z"/>
		<path fill="#FFFFFF" d="M170.80325,205.55606h-1.70142l-3.27364-9.69449l-3.24847,9.69449h-1.70183l-3.95848-12.48621h1.98064
			l2.86761,10.02484l3.27322-10.02484h1.5748l3.29822,10.02484l2.84262-10.02484h1.98064L170.80325,205.55606z"/>
		<path fill="#FFFFFF" d="M185.29208,205.55606v-7.69069c0-2.20692-1.19334-3.32437-3.07153-3.32437
			c-1.87859,0-3.09688,1.14221-3.09688,3.32437v7.69069h-1.82605v-12.48621h1.82605v1.37029
			c0.88956-1.01517,2.10786-1.52367,3.5027-1.52367c1.34535,0,2.43642,0.40625,3.19896,1.16719
			c0.88676,0.86339,1.29279,2.03056,1.29279,3.47794v7.99446H185.29208z"/>
		<path fill="#FFFFFF" d="M204.85262,195.45534c-0.68484-0.68504-1.19054-0.91434-2.1546-0.91434
			c-1.82886,0-2.99742,1.4476-2.99742,3.35075v7.66431h-1.82587v-12.48621h1.82587v1.52208
			c0.68524-1.03995,2.05833-1.67546,3.50291-1.67546c1.19333,0,2.10767,0.27921,2.99443,1.16719L204.85262,195.45534z"/>
		<path fill="#FFFFFF" d="M215.71167,204.28682c-0.862,0.86302-2.05533,1.42102-3.57721,1.42102
			c-1.52487,0-2.71562-0.558-3.58022-1.42102c-1.26782-1.29439-1.52208-3.04573-1.52208-4.97366
			c0-1.9297,0.25426-3.68106,1.52208-4.97527c0.86459-0.8618,2.05534-1.42142,3.58022-1.42142
			c1.52188,0,2.71521,0.55962,3.57721,1.42142c1.26784,1.2942,1.52209,3.04556,1.52209,4.97527
			C217.23376,201.24109,216.97951,202.99243,215.71167,204.28682z M214.41888,195.45534
			c-0.5858-0.58418-1.39786-0.91434-2.28442-0.91434c-0.88956,0-1.67686,0.33015-2.25984,0.91434
			c-0.91414,0.91312-1.01639,2.46118-1.01639,3.85782c0,1.39487,0.10225,2.9431,1.01639,3.85744
			c0.58298,0.58298,1.37029,0.91312,2.25984,0.91312c0.88657,0,1.69862-0.33014,2.28442-0.91312
			c0.91153-0.91434,0.98901-2.46257,0.98901-3.85744C215.4079,197.91652,215.33041,196.36845,214.41888,195.45534z"/>
		<path fill="#FFFFFF" d="M228.21985,205.55606v-1.19354c-1.01379,1.0154-1.92831,1.34532-3.60239,1.34532
			c-1.7262,0-2.74297-0.32993-3.52728-1.14221c-0.61055-0.60893-0.93948-1.54843-0.93948-2.53725
			c0-2.18236,1.52208-3.60359,4.31239-3.60359h3.75676v-1.19331c0-1.82727-0.91454-2.74159-3.19615-2.74159
			c-1.59937,0-2.41144,0.38127-3.1492,1.42262l-1.24287-1.14221c1.11583-1.44757,2.38647-1.85382,4.41704-1.85382
			c3.35092,0,5.00003,1.4478,5.00003,4.16299v8.47659H228.21985z M228.21985,199.79507h-3.50273
			c-1.87857,0-2.78992,0.76094-2.78992,2.20834c0,1.44638,0.88638,2.13142,2.8672,2.13142c1.06633,0,2.00543-0.0761,2.79272-0.83704
			c0.43098-0.40604,0.63272-1.11763,0.63272-2.15738V199.79507z"/>
		<path fill="#FFFFFF" d="M241.94891,205.55606v-1.49731c-1.01379,1.31917-2.18236,1.64909-3.55244,1.64909
			c-1.27063,0-2.38669-0.43079-3.04697-1.09087c-1.26804-1.26962-1.52206-3.34953-1.52206-5.30382
			c0-1.95467,0.25403-4.03596,1.52206-5.30519c0.66028-0.65889,1.77634-1.09149,3.04697-1.09149
			c1.37009,0,2.51089,0.30539,3.52766,1.59978v-7.0304H243.75v18.07021H241.94891z M238.80249,194.541
			c-2.71542,0-3.14902,2.33556-3.14902,4.77216c0,2.4362,0.43359,4.77055,3.14902,4.77055
			c2.71562,0,3.12164-2.33435,3.12164-4.77055C241.92413,196.87656,241.51811,194.541,238.80249,194.541z"/>
	</g>
	<g>
		<g>
			<path fill="#FFFFFF" d="M127.10899,57.22204c-1.15801-0.60101-3.05643-0.60101-4.21444,0L61.45287,89.09167
				c-1.1583,0.59771-3.09,0.66608-4.28874,0.1507L0.92102,64.94289c-1.19873-0.51514-1.2335-1.42641-0.06807-2.02294
				L122.88711,0.44629c1.16545-0.59505,3.06951-0.59505,4.22781,0l122.03416,62.47366
				c1.15833,0.59653,1.13217,1.5078-0.06686,2.02294l-56.25014,24.29947c-1.19879,0.51538-3.12323,0.44701-4.28285-0.1507
				L127.10899,57.22204z"/>
			<g>
				<polygon fill="#FFFFFF" points="55.22649,120.46757 59.59072,120.46757 63.8649,139.80363 63.94604,139.80363 
					69.21297,120.46757 72.19388,120.46757 77.47092,139.80363 77.54641,139.80363 81.82919,120.46757 86.18629,120.46757 
					79.38389,147.67548 75.94702,147.67548 70.74399,128.07104 70.66879,128.07104 65.47738,147.67548 62.03633,147.67548 				"/>
				<polygon fill="#FFFFFF" points="112.7569,135.78923 101.97517,135.78923 101.97517,147.67548 97.84754,147.67548 
					97.84754,120.46757 101.97517,120.46757 101.97517,132.11873 112.7569,132.11873 112.7569,120.46757 116.89021,120.46757 
					116.89021,147.67548 112.7569,147.67548 				"/>
				<rect x="130.99852" y="120.46756" fill="#FFFFFF" width="4.13329" height="27.20791"/>
				<polygon fill="#FFFFFF" points="149.26184,120.46757 153.38802,120.46757 153.38802,143.78175 166.64746,143.78175 
					166.64746,147.67548 149.26184,147.67548 				"/>
				<polygon fill="#FFFFFF" points="177.38133,120.46757 181.50888,120.46757 181.50888,143.78175 194.76961,143.78175 
					194.76961,147.67548 177.38133,147.67548 				"/>
			</g>
		</g>
	</g>
</g>
</svg>
