<?xml version="1.0" encoding="utf-8"?>
<!-- Generator: Adobe Illustrator 19.0.0, SVG Export Plug-In . SVG Version: 6.00 Build 0)  -->
<svg version="1.1" id="レイヤー_1" xmlns="http://www.w3.org/2000/svg" xmlns:xlink="http://www.w3.org/1999/xlink" x="0px"
	 y="0px" viewBox="0 0 53 13" width="53" height="13" xml:space="preserve">
<style type="text/css">
	.st0{fill:#0075B8;}
</style>
<path id="path-1" class="st0" d="M51.8,11.1h0.6v1.1h-0.9c-1.4,0-2.1-1-2.1-2.2V4.7h-1.1V3.8h1.1V1.2h1.2v2.6h1.8v0.9h-1.8v5.1
	C50.7,10.6,51.1,11.1,51.8,11.1z M44.9,0h1.4v1.4h-1.4V0z M40.7,11.2c-0.6,0.7-1.4,1-2.4,1c-0.9,0-1.7-0.3-2.2-0.8
	c-0.6-0.6-0.8-1.4-0.8-2.3V3.8h1.2v5.1c0,1.5,0.8,2.2,2,2.2c1.3,0,2.1-0.8,2.1-2.2V3.8h1.2v8.4h-1.2V11.2z M31.5,4.7
	c-1.2,0-2,1-2,2.2v5.1h-1.2V3.8h1.2v1c0.5-0.7,1.4-1.1,2.3-1.1c0.8,0,1.4,0.2,2,0.8l-0.9,0.9C32.5,4.9,32.1,4.7,31.5,4.7z
	 M23.2,11.1c0.8,0,1.3-0.3,1.9-1l0.8,0.8c-0.9,0.9-1.6,1.2-2.8,1.2c-2.1,0-3.7-1.4-3.7-4.3c0-2.9,1.6-4.3,3.7-4.3
	c1.2,0,1.9,0.3,2.8,1.2l-0.8,0.8C24.5,5,24,4.7,23.2,4.7c-0.8,0-1.5,0.3-1.9,1c-0.4,0.5-0.5,1.2-0.5,2.2c0,1.1,0.2,1.7,0.5,2.2
	C21.7,10.8,22.4,11.1,23.2,11.1z M14.2,11.2c1,0,1.5-0.3,2.2-1l0.8,0.7c-0.9,0.8-1.6,1.3-3.1,1.3c-2.2,0-3.7-1.3-3.7-4.3
	c0-2.7,1.3-4.3,3.4-4.3c2.2,0,3.4,1.6,3.4,4v0.6h-5.6C11.7,10.1,12.6,11.2,14.2,11.2z M16.1,7.3c0-0.7-0.1-0.9-0.3-1.4
	c-0.3-0.8-1.1-1.3-2-1.3s-1.6,0.5-2,1.3c-0.2,0.5-0.2,0.7-0.3,1.4H16.1z M7,12.1L4.2,6.7H1.3v5.4H0V0h4.6c2.1,0,3.6,1.3,3.6,3.4
	c0,1.8-1.1,2.9-2.6,3.2l2.9,5.5H7z M6.9,3.4c0-1.5-1-2.2-2.4-2.2H1.3v4.4h3.2C5.9,5.6,6.9,4.9,6.9,3.4z M46.2,12.1H45V3.8h1.2V12.1z
	"/>
</svg>
