<svg xmlns="http://www.w3.org/2000/svg" xmlns:xlink="http://www.w3.org/1999/xlink" preserveAspectRatio="xMidYMid" width="227" height="17" viewBox="0 0 227 17">
  <path fill="#0075b8" d="M219.511,12.219 C219.511,12.219 219.511,0.116 219.511,0.116 C219.511,0.116 220.803,0.116 220.803,0.116 C220.803,0.116 220.803,11.063 220.803,11.063 C220.803,11.063 226.990,11.063 226.990,11.063 C226.990,11.063 226.990,12.219 226.990,12.219 C226.990,12.219 219.511,12.219 219.511,12.219 ZM209.770,0.116 C209.770,0.116 211.062,0.116 211.062,0.116 C211.062,0.116 211.062,11.063 211.062,11.063 C211.062,11.063 217.249,11.063 217.249,11.063 C217.249,11.063 217.249,12.219 217.249,12.219 C217.249,12.219 209.770,12.219 209.770,12.219 C209.770,12.219 209.770,0.116 209.770,0.116 ZM204.977,0.116 C204.977,0.116 206.268,0.116 206.268,0.116 C206.268,0.116 206.268,12.219 206.268,12.219 C206.268,12.219 204.977,12.219 204.977,12.219 C204.977,12.219 204.977,0.116 204.977,0.116 ZM200.182,6.694 C200.182,6.694 194.436,6.694 194.436,6.694 C194.436,6.694 194.436,12.219 194.436,12.219 C194.436,12.219 193.145,12.219 193.145,12.219 C193.145,12.219 193.145,0.116 193.145,0.116 C193.145,0.116 194.436,0.116 194.436,0.116 C194.436,0.116 194.436,5.539 194.436,5.539 C194.436,5.539 200.182,5.539 200.182,5.539 C200.182,5.539 200.182,0.116 200.182,0.116 C200.182,0.116 201.473,0.116 201.473,0.116 C201.473,0.116 201.473,12.219 201.473,12.219 C201.473,12.219 200.182,12.219 200.182,12.219 C200.182,12.219 200.182,6.694 200.182,6.694 ZM186.819,12.219 C186.819,12.219 184.134,2.530 184.134,2.530 C184.134,2.530 181.448,12.219 181.448,12.219 C181.448,12.219 180.241,12.219 180.241,12.219 C180.241,12.219 177.147,0.116 177.147,0.116 C177.147,0.116 178.524,0.116 178.524,0.116 C178.524,0.116 180.887,9.873 180.887,9.873 C180.887,9.873 183.556,0.116 183.556,0.116 C183.556,0.116 184.712,0.116 184.712,0.116 C184.712,0.116 187.381,9.873 187.381,9.873 C187.381,9.873 189.743,0.116 189.743,0.116 C189.743,0.116 191.120,0.116 191.120,0.116 C191.120,0.116 188.026,12.219 188.026,12.219 C188.026,12.219 186.819,12.219 186.819,12.219 ZM169.889,0.116 C169.889,0.116 171.112,0.116 171.112,0.116 C171.112,0.116 171.112,12.219 171.112,12.219 C171.112,12.219 169.889,12.219 169.889,12.219 C169.889,12.219 169.889,0.116 169.889,0.116 ZM165.689,11.420 C165.009,12.100 164.396,12.321 163.275,12.321 C162.119,12.321 161.439,12.100 160.912,11.556 C160.504,11.148 160.283,10.519 160.283,9.856 C160.283,8.394 161.303,7.442 163.174,7.442 C163.174,7.442 165.689,7.442 165.689,7.442 C165.689,7.442 165.689,6.644 165.689,6.644 C165.689,5.419 165.077,4.808 163.547,4.808 C162.477,4.808 161.932,5.062 161.439,5.759 C161.439,5.759 160.606,4.995 160.606,4.995 C161.354,4.025 162.204,3.753 163.564,3.753 C165.808,3.753 166.912,4.723 166.912,6.542 C166.912,6.542 166.912,12.219 166.912,12.219 C166.912,12.219 165.689,12.219 165.689,12.219 C165.689,12.219 165.689,11.420 165.689,11.420 ZM165.689,8.360 C165.689,8.360 163.344,8.360 163.344,8.360 C162.086,8.360 161.473,8.870 161.473,9.839 C161.473,10.808 162.068,11.267 163.395,11.267 C164.107,11.267 164.736,11.216 165.264,10.706 C165.553,10.434 165.689,9.958 165.689,9.261 C165.689,9.261 165.689,8.360 165.689,8.360 ZM155.507,9.975 C155.507,9.975 155.507,4.841 155.507,4.841 C155.507,4.841 154.453,4.841 154.453,4.841 C154.453,4.841 154.453,3.907 154.453,3.907 C154.453,3.907 155.507,3.907 155.507,3.907 C155.507,3.907 155.507,1.289 155.507,1.289 C155.507,1.289 156.730,1.289 156.730,1.289 C156.730,1.289 156.730,3.907 156.730,3.907 C156.730,3.907 158.516,3.907 158.516,3.907 C158.516,3.907 158.516,4.841 158.516,4.841 C158.516,4.841 156.730,4.841 156.730,4.841 C156.730,4.841 156.730,9.941 156.730,9.941 C156.730,10.706 157.088,11.165 157.869,11.165 C157.869,11.165 158.516,11.165 158.516,11.165 C158.516,11.165 158.516,12.219 158.516,12.219 C158.516,12.219 157.648,12.219 157.648,12.219 C156.221,12.219 155.507,11.216 155.507,9.975 ZM151.104,7.068 C151.104,5.589 150.305,4.841 149.047,4.841 C147.789,4.841 146.973,5.606 146.973,7.068 C146.973,7.068 146.973,12.219 146.973,12.219 C146.973,12.219 145.749,12.219 145.749,12.219 C145.749,12.219 145.749,3.855 145.749,3.855 C145.749,3.855 146.973,3.855 146.973,3.855 C146.973,3.855 146.973,4.773 146.973,4.773 C147.568,4.094 148.384,3.753 149.318,3.753 C150.220,3.753 150.951,4.025 151.461,4.536 C152.056,5.113 152.328,5.896 152.328,6.864 C152.328,6.864 152.328,12.219 152.328,12.219 C152.328,12.219 151.104,12.219 151.104,12.219 C151.104,12.219 151.104,7.068 151.104,7.068 ZM139.969,11.250 C140.938,11.250 141.499,10.961 142.162,10.298 C142.162,10.298 142.994,11.029 142.994,11.029 C142.145,11.879 141.363,12.321 139.936,12.321 C137.725,12.321 136.280,10.995 136.280,8.037 C136.280,5.334 137.590,3.753 139.714,3.753 C141.873,3.753 143.147,5.317 143.147,7.799 C143.147,7.799 143.147,8.360 143.147,8.360 C143.147,8.360 137.504,8.360 137.504,8.360 C137.504,10.196 138.371,11.250 139.969,11.250 ZM141.924,7.442 C141.890,6.762 141.855,6.507 141.669,6.048 C141.346,5.283 140.598,4.791 139.714,4.791 C138.830,4.791 138.082,5.283 137.760,6.048 C137.572,6.507 137.538,6.762 137.504,7.442 C137.504,7.442 141.924,7.442 141.924,7.442 ZM132.761,12.219 C132.761,12.219 130.007,6.847 130.007,6.847 C130.007,6.847 127.101,6.847 127.101,6.847 C127.101,6.847 127.101,12.219 127.101,12.219 C127.101,12.219 125.809,12.219 125.809,12.219 C125.809,12.219 125.809,0.116 125.809,0.116 C125.809,0.116 130.449,0.116 130.449,0.116 C132.557,0.116 134.035,1.391 134.035,3.481 C134.035,5.250 132.965,6.405 131.400,6.729 C131.400,6.729 134.273,12.219 134.273,12.219 C134.273,12.219 132.761,12.219 132.761,12.219 ZM132.744,3.499 C132.744,2.020 131.740,1.272 130.330,1.272 C130.330,1.272 127.101,1.272 127.101,1.272 C127.101,1.272 127.101,5.708 127.101,5.708 C127.101,5.708 130.330,5.708 130.330,5.708 C131.740,5.708 132.744,4.978 132.744,3.499 ZM117.428,4.841 C116.203,4.841 115.422,5.811 115.422,7.085 C115.422,7.085 115.422,12.219 115.422,12.219 C115.422,12.219 114.197,12.219 114.197,12.219 C114.197,12.219 114.197,3.855 114.197,3.855 C114.197,3.855 115.422,3.855 115.422,3.855 C115.422,3.855 115.422,4.875 115.422,4.875 C115.881,4.179 116.799,3.753 117.768,3.753 C118.566,3.753 119.178,3.940 119.773,4.536 C119.773,4.536 118.872,5.454 118.872,5.454 C118.413,4.995 118.073,4.841 117.428,4.841 ZM108.162,12.321 C107.143,12.321 106.344,11.947 105.766,11.369 C104.916,10.502 104.746,9.329 104.746,8.037 C104.746,6.745 104.916,5.572 105.766,4.706 C106.344,4.127 107.143,3.753 108.162,3.753 C109.183,3.753 109.981,4.127 110.560,4.706 C111.409,5.572 111.579,6.745 111.579,8.037 C111.579,9.329 111.409,10.502 110.560,11.369 C109.981,11.947 109.183,12.321 108.162,12.321 ZM109.692,5.454 C109.301,5.062 108.758,4.841 108.162,4.841 C107.567,4.841 107.041,5.062 106.649,5.454 C106.037,6.065 105.970,7.102 105.970,8.037 C105.970,8.972 106.037,10.009 106.649,10.621 C107.041,11.012 107.567,11.233 108.162,11.233 C108.758,11.233 109.301,11.012 109.692,10.621 C110.305,10.009 110.355,8.972 110.355,8.037 C110.355,7.102 110.305,6.065 109.692,5.454 ZM101.346,12.219 C101.346,12.219 100.122,12.219 100.122,12.219 C100.122,12.219 100.122,4.841 100.122,4.841 C100.122,4.841 99.051,4.841 99.051,4.841 C99.051,4.841 99.051,3.907 99.051,3.907 C99.051,3.907 100.122,3.907 100.122,3.907 C100.122,3.907 100.122,2.326 100.122,2.326 C100.122,1.085 100.818,0.082 102.246,0.082 C102.246,0.082 103.131,0.082 103.131,0.082 C103.131,0.082 103.131,1.136 103.131,1.136 C103.131,1.136 102.468,1.136 102.468,1.136 C101.686,1.136 101.346,1.595 101.346,2.360 C101.346,2.360 101.346,3.907 101.346,3.907 C101.346,3.907 103.131,3.907 103.131,3.907 C103.131,3.907 103.131,4.841 103.131,4.841 C103.131,4.841 101.346,4.841 101.346,4.841 C101.346,4.841 101.346,12.219 101.346,12.219 ZM91.418,7.068 C91.418,5.589 90.619,4.841 89.361,4.841 C88.103,4.841 87.287,5.606 87.287,7.068 C87.287,7.068 87.287,12.219 87.287,12.219 C87.287,12.219 86.062,12.219 86.062,12.219 C86.062,12.219 86.062,3.855 86.062,3.855 C86.062,3.855 87.287,3.855 87.287,3.855 C87.287,3.855 87.287,4.773 87.287,4.773 C87.882,4.094 88.697,3.753 89.633,3.753 C90.533,3.753 91.265,4.025 91.774,4.536 C92.369,5.113 92.642,5.896 92.642,6.864 C92.642,6.864 92.642,12.219 92.642,12.219 C92.642,12.219 91.418,12.219 91.418,12.219 C91.418,12.219 91.418,7.068 91.418,7.068 ZM80.027,12.321 C79.008,12.321 78.209,11.947 77.631,11.369 C76.781,10.502 76.611,9.329 76.611,8.037 C76.611,6.745 76.781,5.572 77.631,4.706 C78.209,4.127 79.008,3.753 80.027,3.753 C81.048,3.753 81.847,4.127 82.425,4.706 C83.274,5.572 83.444,6.745 83.444,8.037 C83.444,9.329 83.274,10.502 82.425,11.369 C81.847,11.947 81.048,12.321 80.027,12.321 ZM81.558,5.454 C81.166,5.062 80.623,4.841 80.027,4.841 C79.433,4.841 78.906,5.062 78.515,5.454 C77.902,6.065 77.835,7.102 77.835,8.037 C77.835,8.972 77.902,10.009 78.515,10.621 C78.906,11.012 79.433,11.233 80.027,11.233 C80.623,11.233 81.166,11.012 81.558,10.621 C82.170,10.009 82.221,8.972 82.221,8.037 C82.221,7.102 82.170,6.065 81.558,5.454 ZM72.685,0.099 C72.685,0.099 74.061,0.099 74.061,0.099 C74.061,0.099 74.061,1.476 74.061,1.476 C74.061,1.476 72.685,1.476 72.685,1.476 C72.685,1.476 72.685,0.099 72.685,0.099 ZM67.312,9.975 C67.312,9.975 67.312,4.841 67.312,4.841 C67.312,4.841 66.259,4.841 66.259,4.841 C66.259,4.841 66.259,3.907 66.259,3.907 C66.259,3.907 67.312,3.907 67.312,3.907 C67.312,3.907 67.312,1.289 67.312,1.289 C67.312,1.289 68.536,1.289 68.536,1.289 C68.536,1.289 68.536,3.907 68.536,3.907 C68.536,3.907 70.321,3.907 70.321,3.907 C70.321,3.907 70.321,4.841 70.321,4.841 C70.321,4.841 68.536,4.841 68.536,4.841 C68.536,4.841 68.536,9.941 68.536,9.941 C68.536,10.706 68.894,11.165 69.676,11.165 C69.676,11.165 70.321,11.165 70.321,11.165 C70.321,11.165 70.321,12.219 70.321,12.219 C70.321,12.219 69.454,12.219 69.454,12.219 C68.026,12.219 67.312,11.216 67.312,9.975 ZM61.430,12.321 C60.512,12.321 59.747,12.100 59.067,11.233 C59.067,11.233 59.067,15.958 59.067,15.958 C59.067,15.958 57.844,15.958 57.844,15.958 C57.844,15.958 57.844,3.855 57.844,3.855 C57.844,3.855 59.067,3.855 59.067,3.855 C59.067,3.855 59.067,4.841 59.067,4.841 C59.747,3.958 60.512,3.753 61.430,3.753 C62.280,3.753 63.028,4.042 63.470,4.484 C64.320,5.334 64.490,6.729 64.490,8.037 C64.490,9.346 64.320,10.740 63.470,11.590 C63.028,12.032 62.280,12.321 61.430,12.321 ZM61.176,4.841 C59.356,4.841 59.067,6.405 59.067,8.037 C59.067,9.669 59.356,11.233 61.176,11.233 C62.994,11.233 63.266,9.669 63.266,8.037 C63.266,6.405 62.994,4.841 61.176,4.841 ZM53.475,0.099 C53.475,0.099 54.852,0.099 54.852,0.099 C54.852,0.099 54.852,1.476 54.852,1.476 C54.852,1.476 53.475,1.476 53.475,1.476 C53.475,1.476 53.475,0.099 53.475,0.099 ZM49.615,4.841 C48.392,4.841 47.609,5.811 47.609,7.085 C47.609,7.085 47.609,12.219 47.609,12.219 C47.609,12.219 46.386,12.219 46.386,12.219 C46.386,12.219 46.386,3.855 46.386,3.855 C46.386,3.855 47.609,3.855 47.609,3.855 C47.609,3.855 47.609,4.875 47.609,4.875 C48.068,4.179 48.986,3.753 49.955,3.753 C50.755,3.753 51.366,3.940 51.961,4.536 C51.961,4.536 51.061,5.454 51.061,5.454 C50.602,4.995 50.262,4.841 49.615,4.841 ZM41.303,11.233 C42.102,11.233 42.595,10.978 43.224,10.281 C43.224,10.281 44.057,11.080 44.057,11.080 C43.189,12.015 42.459,12.321 41.303,12.321 C39.195,12.321 37.598,10.893 37.598,8.037 C37.598,5.182 39.195,3.753 41.303,3.753 C42.459,3.753 43.189,4.060 44.057,4.995 C44.057,4.995 43.224,5.776 43.224,5.776 C42.595,5.080 42.102,4.841 41.303,4.841 C40.487,4.841 39.807,5.165 39.365,5.793 C38.975,6.337 38.821,6.983 38.821,8.037 C38.821,9.091 38.975,9.737 39.365,10.281 C39.807,10.910 40.487,11.233 41.303,11.233 ZM33.193,7.510 C34.656,7.646 35.658,8.207 35.658,9.771 C35.658,11.386 34.281,12.321 32.259,12.321 C30.848,12.321 29.743,11.998 28.825,11.114 C28.825,11.114 29.642,10.298 29.642,10.298 C30.305,10.995 31.205,11.267 32.242,11.267 C33.619,11.267 34.469,10.774 34.469,9.788 C34.469,9.057 34.044,8.649 33.075,8.564 C33.075,8.564 31.698,8.445 31.698,8.445 C30.066,8.309 29.199,7.578 29.199,6.201 C29.199,4.671 30.491,3.753 32.276,3.753 C33.466,3.753 34.537,4.042 35.285,4.654 C35.285,4.654 34.486,5.454 34.486,5.454 C33.891,4.995 33.126,4.791 32.259,4.791 C31.035,4.791 30.389,5.317 30.389,6.167 C30.389,6.881 30.797,7.306 31.852,7.391 C31.852,7.391 33.193,7.510 33.193,7.510 ZM23.946,12.321 C23.028,12.321 22.264,12.100 21.583,11.216 C21.583,11.216 21.583,12.219 21.583,12.219 C21.583,12.219 20.359,12.219 20.359,12.219 C20.359,12.219 20.359,0.116 20.359,0.116 C20.359,0.116 21.583,0.116 21.583,0.116 C21.583,0.116 21.583,4.825 21.583,4.825 C22.264,3.958 23.028,3.753 23.946,3.753 C24.796,3.753 25.544,4.042 25.986,4.484 C26.836,5.334 27.006,6.729 27.006,8.037 C27.006,9.346 26.836,10.740 25.986,11.590 C25.544,12.032 24.796,12.321 23.946,12.321 ZM23.691,4.841 C21.872,4.841 21.583,6.405 21.583,8.037 C21.583,9.669 21.872,11.233 23.691,11.233 C25.510,11.233 25.782,9.669 25.782,8.037 C25.782,6.405 25.510,4.841 23.691,4.841 ZM16.092,11.284 C15.497,11.964 14.664,12.321 13.729,12.321 C12.828,12.321 12.080,12.049 11.570,11.539 C10.976,10.961 10.721,10.162 10.721,9.193 C10.721,9.193 10.721,3.855 10.721,3.855 C10.721,3.855 11.944,3.855 11.944,3.855 C11.944,3.855 11.944,9.006 11.944,9.006 C11.944,10.485 12.727,11.233 13.984,11.233 C15.242,11.233 16.075,10.468 16.075,9.006 C16.075,9.006 16.075,3.855 16.075,3.855 C16.075,3.855 17.299,3.855 17.299,3.855 C17.299,3.855 17.299,12.219 17.299,12.219 C17.299,12.219 16.092,12.219 16.092,12.219 C16.092,12.219 16.092,11.284 16.092,11.284 ZM3.768,5.437 C3.768,5.437 5.094,5.641 5.094,5.641 C6.232,5.811 6.793,6.048 7.303,6.490 C7.966,7.051 8.322,7.884 8.322,8.887 C8.322,11.012 6.657,12.321 4.142,12.321 C2.322,12.321 1.133,11.862 -0.006,10.723 C-0.006,10.723 0.878,9.839 0.878,9.839 C1.881,10.842 2.815,11.165 4.176,11.165 C5.943,11.165 7.031,10.332 7.031,8.921 C7.031,8.292 6.844,7.748 6.453,7.408 C6.062,7.068 5.756,6.966 4.872,6.830 C4.872,6.830 3.461,6.609 3.461,6.609 C2.510,6.457 1.762,6.150 1.234,5.691 C0.623,5.147 0.316,4.399 0.316,3.431 C0.316,1.374 1.795,0.014 4.192,0.014 C5.739,0.014 6.759,0.405 7.796,1.340 C7.796,1.340 6.963,2.173 6.963,2.173 C6.215,1.493 5.416,1.136 4.142,1.136 C2.526,1.136 1.592,2.037 1.592,3.380 C1.592,3.975 1.762,4.451 2.136,4.773 C2.510,5.097 3.139,5.334 3.768,5.437 ZM54.767,12.219 C54.767,12.219 53.543,12.219 53.543,12.219 C53.543,12.219 53.543,3.855 53.543,3.855 C53.543,3.855 54.767,3.855 54.767,3.855 C54.767,3.855 54.767,12.219 54.767,12.219 ZM73.977,12.219 C73.977,12.219 72.752,12.219 72.752,12.219 C72.752,12.219 72.752,3.855 72.752,3.855 C72.752,3.855 73.977,3.855 73.977,3.855 C73.977,3.855 73.977,12.219 73.977,12.219 Z" id="path-1" class="cls-2" fill-rule="evenodd"/>
</svg>
