<svg xmlns="http://www.w3.org/2000/svg" viewBox="0 0 360 122"><g fill="#0075B8"><path d="M8.5 8c0-2.1-.1-3.2-.3-4.6 2.4.1 3.2.3 3.2.7 0 .1 0 .2-.1.4-.3.5-.4 1.3-.4 3.3V17.7c0 .5-.1.6-.5.7-.4 0-.8 0-1.3.1H9h-.2c-.5 0-.5-.2-.5-.7v-1.1c.1-1.2.1-2.5.1-3.2V8zm16.3-3.9c0 .1 0 .2-.1.4-.2.4-.2 1.3-.2 2.7v3.3c0 5.7-.3 8.2-1.4 11-1.3 3.4-3.8 6.2-7.4 8.1-.9.5-1.4.7-1.6.7-.2 0-.2 0-.7-.5-.4-.5-.8-.7-1.3-1 2.5-1.2 3.6-1.8 4.8-2.9 2.7-2.3 4.2-5.4 4.7-9.6.3-1.8.4-3.3.4-6.5 0-3.1-.1-5.1-.3-6.5 2.5.1 3.1.2 3.1.8zM44.9 7.9c-2.3 0-3.5.1-4.8.3h-.4c-.3 0-.5-.1-.6-.6-.2-.7-.3-1.4-.4-2.3 2.4.3 3.7.3 9.1.3 1.1 0 8.4 0 12.9-.1.9 0 1.3-.1 1.8-.2.1 0 .2-.1.4-.1.4 0 .7.3 1.3 1 .4.7.8 1.5.8 1.7 0 .2-.1.4-.4.6-.7.5-.7.5-2.3 2.4-1.9 2.3-5.6 5.7-6.2 5.7-.1 0-.2 0-.4-.2-.6-.6-.9-.8-1.9-1.2 3.4-2.2 5.4-4.2 7.7-7.5l-16.6.2zm6.8 3.4c.7.1.8.2.8.5 0 .2 0 .2-.2.7-.2.4-.2.7-.3 1.9-.2 1.5-.7 4.2-1 5.3-1.2 4.2-3.5 7.5-7 9.7-1 .7-1.9 1.2-2.2 1.2-.2 0-.2 0-.8-.6-.3-.3-.6-.5-1.4-.9 3.6-1.8 5.5-3.3 7.1-5.9 1.5-2.5 2.6-6.4 2.6-9.8 0-1.3 0-1.8-.1-2.4 1.1.1 1.8.1 2.5.3zM81.9 6.1c0 .1 0 .2-.1.3-.2.5-.3 1.3-.4 2.8-.1 8.1-1.3 12.8-4.4 17.3-1.1 1.6-1.9 2.5-2.2 2.5-.1 0-.2 0-.4-.1-.5-.3-1.1-.5-2-.7 1.9-2 2.7-3 3.5-4.5C78 20 78.8 16 78.8 9.2c0-1.2-.1-2.5-.3-3.9 2.4 0 3.4.2 3.4.8zM88.8 25c3.7-1.8 5.8-3.2 8.4-5.4 1.2-1.1 2-1.9 3.2-3.3v.4c0 .8.1 1.4.3 2.1 0 .2.1.3.1.4 0 .5-.8 1.4-3 3.2-2 1.6-4.5 3.3-7.8 5-.6.3-1 .6-1.3.9-.2.2-.3.2-.5.2-.3 0-1-.5-1.5-1s-.7-.8-.7-1c0-.2 0-.3.1-.6.1-.5.2-.7.2-2.1V10.4c0-2.6-.1-4.4-.2-5.7 1 0 2 .1 2.6.3.4.1.6.2.6.5 0 .2 0 .2-.2.6-.2.5-.3 1.8-.3 4.3V25zM125.3 7.6c.9 0 1.2 0 1.9-.3.1-.1.3-.1.4-.1.4 0 .8.3 1.5 1 .6.6.8.9.8 1.2 0 .1 0 .3-.2.5-.4.6-.4.6-.8 3.8-.4 2.5-.9 5.8-1.6 9.9 3.3 0 5.5-.1 7.8-.2h.2c.4 0 .4.1.4 1.4 0 1-.1 1.2-.4 1.2h-.2c-.6-.1-5.4-.1-9.2-.1-14 0-15.3 0-17.5.2h-.2c-.2 0-.4-.1-.5-.3-.2-.7-.3-1.4-.3-2.5 1.5.2 6 .3 12.1.3h5.3c1.2-6.6 1.5-9.3 2-13.8h-9.5c-1.5 0-2.3 0-3.5.2h-.1c-.4 0-.6-.8-.6-2.3v-.5c1 .2 3 .3 4.5.3h7.7zM154.2 15.5c7 0 13.2-.1 15.2-.3h.2c.3 0 .5.2.5.9 0 1.6-.1 1.9-.5 1.9h-.2c-.7-.1-3.8-.1-6.3-.1-.5 0-9.3 0-12.3.1-3.5 0-4.7.1-6.7.3h-.3c-.2 0-.3-.1-.4-.3-.2-.6-.2-1.3-.3-2.8 2.2.3 4.8.3 11.1.3zM195.8 10.9V9.2c0-3 0-3.9-.3-5.4 1.1 0 2 .1 2.6.3.2.1.3.2.3.3 0 .1 0 .2-.1.4-.2.9-.2 1.4-.2 4.8v1.3c4.6 0 4.6 0 6.5-.1h.1c.4 0 .5.3.5 1.4 0 .9-.1 1.1-.4 1.1h-.1c-1.1-.1-2.3-.1-6.7-.1-.1 4.2-.5 7-1.4 9.2-1.3 3.4-3.7 5.9-7.2 7.8-.9.5-1.9.9-2.1.9-.2 0-.3-.1-.5-.2-.6-.6-1-.9-1.8-1.4 3.8-1.2 6.5-3.2 8.3-5.7 1.1-1.8 1.8-3.9 2.1-6.8.1-.7.1-1.6.2-3.9H186.2v6.8c0 .6-.3.7-1.6.7-.8 0-.9-.1-.9-.8v-.5c0-.5.1-4.6.1-6.2-4.1 0-5.1.1-6.1.2-.3.1-.5.1-.5.1-.2 0-.3 0-.4-.2-.1-.5-.2-1.3-.3-2.5 1.5.2 3.4.2 7.3.2 0-4.1-.1-5.5-.3-7 2 0 3 .3 3 .7 0 .1 0 .1-.1.4-.2.5-.3 1.9-.3 4.5v1.4h9.7zm8.9-4.3c0 .1 0 .2-.1.3-.5.4-1.1.8-1.4.8-.2 0-.2-.1-.4-.5-.5-1.2-1.3-2.3-2.3-3.5-.1-.1-.1-.2-.1-.3 0-.1 0-.1.1-.2.5-.4.8-.6 1.2-.6.2 0 .5.2 1.2 1 .8.9 1.4 1.8 1.8 2.6v.4zm3-1.8c0 .3-.5.6-1.3.9h-.2c-.1 0-.2-.1-.3-.3-.6-1.3-1.3-2.3-2.4-3.4-.1-.2-.1-.2-.1-.3 0 0 0-.1.1-.2.4-.3 1-.6 1.3-.6.4 0 2.3 2.4 2.9 3.6v.3zM224.2 15.5c7 0 13.2-.1 15.2-.3h.2c.3 0 .5.2.5.9 0 1.6-.1 1.9-.5 1.9h-.2c-.7-.1-3.8-.1-6.3-.1-.5 0-9.3 0-12.3.1-3.5 0-4.7.1-6.7.3h-.3c-.2 0-.3-.1-.4-.3-.2-.6-.2-1.3-.3-2.8 2.2.3 4.8.3 11.1.3zM260 20.4c-2 4.6-4.3 6.9-7 6.9-1.5 0-3-.9-4-2.4-.9-1.3-1.4-3.5-1.4-5.7 0-4.5 2.1-8.6 5.6-11.1 2.5-1.8 5.5-2.7 9-2.7 7.6 0 12.7 4.6 12.7 11.6 0 4.6-2.2 8.4-6.4 11.1-1.5 1-3.8 2-4.4 2-.2 0-.3-.1-.6-.4-.4-.6-.9-.9-1.5-1.3 2.7-.8 4-1.3 5.5-2.3 3.3-2.2 5-5.4 5-9.1 0-3.9-2-7-5.4-8.5-1.2-.6-2.2-.8-4-.9-.5 4.9-1.6 9.2-3.1 12.8zM256 9c-3.8 1.9-6.1 5.8-6.1 10.4 0 3.2 1.3 5.4 3.2 5.4 1.5 0 3-1.8 4.5-5.1 1.6-3.5 2.7-7.7 3.2-12-1.8.1-3.3.5-4.8 1.3zM287.2 23c-.4 2.3-.7 3.6-1.5 5.2-.7 1.5-1.4 2.5-2.7 3.9-.6-.6-1-.9-2-1.5 3.2-2.9 4.4-6.8 4.4-13.7 0-1 0-1.7-.1-2.5 1 .1 1.6.1 2.8.1h17c1.2 0 1.9 0 2.9-.1-.1.8-.1 1.3-.1 2.5v4.9c0 1.3.1 2.1.2 3h-2.3V23h-18.6zm8.2-18.6c0-1.4 0-2.2-.2-3.1h2.5c-.1.8-.2 1.6-.2 3.1v.5h10.3c1.8 0 2.8-.1 3.7-.2V7c-1.1-.1-2.2-.2-3.7-.2h-10.3v3.3h7.9c1.9 0 2.8-.1 3.6-.2v2.2c-1-.1-1.8-.2-3.6-.2H288c-1.6 0-2.5 0-3.6.2V9.9c.7.1 1.8.2 3.6.2h7.4V6.8H286c-1.5 0-2.6.1-3.7.2V4.7c.9.1 1.9.2 3.7.2h9.3v-.5zm0 16.8v-4.8h-7.7c0 2.2-.1 3-.2 4.8h7.9zm10.4 0v-4.8h-8.3v4.8h8.3zM337.6 14.8c3.1-1.6 3.9-2.1 5-3.2.8.9 1.7 2.2 1.7 2.6 0 .2-.2.4-.6.5-1.8.5-7 2.9-10 4.6.1 1.3.1 3.1.1 4.3 0 1.3 0 1.5-.1 1.6-.2.1-.8.2-1.5.2-.6 0-.7-.1-.7-.5v-1.4-1.6-1.3c-.1.1-.1.1-.3.2-3.9 2.1-5.4 3.6-5.4 5.4 0 1.9 1.8 2.6 6.1 2.6 3.1 0 7.3-.4 8.8-.8h.2c.2 0 .3.1.4.5.1.3.1 1.2.1 1.6s-.1.6-.9.6c-1.6.2-5.6.3-8.2.3-3 0-4.8-.2-6.2-.8-1.8-.8-2.7-2.1-2.7-4 0-2.8 1.6-4.5 7.8-8-.3-2.1-1-2.9-2.3-2.9-1.6 0-3.3.6-5.3 2-1.5 1-2.3 1.6-3.3 2.7-.2.2-.4.3-.6.3-.4 0-1.4-1.4-1.4-1.9 0-.1.1-.3.4-.5.7-.5 1.7-1.3 2.5-2 2.3-2 3.8-4 5.2-6.6-2.1.1-4.4.2-6.2.2-.5 0-.6-.1-.7-.5-.1-.5-.2-1-.2-1.8 1.3.1 2.1.1 3.5.1 1.2 0 3.3-.1 4.6-.2.9-2.1 1.2-3.3 1.3-4.9 2 .3 2.9.7 2.9 1.1 0 .1 0 .2-.3.6-.3.5-.3.5-1.4 3 2.9-.4 3.5-.6 6.4-1.3.3-.1.5-.1.6-.1.2 0 .3.1.4.4.1.4.2 1.2.2 1.5 0 .4-.1.4-1.2.6-3.6.7-4.1.7-7.4 1.1-1.3 2.5-2.3 4-4.1 6 1.9-1.2 3.2-1.6 4.7-1.6 2.1 0 3.3 1.1 3.9 3.6l4.2-2.3zM351.6 24.2c.4-.4.5-.5.6-.5.4 0 2.7 1.7 4.1 2.9 1.3 1.3 3.3 3.7 3.3 4.1 0 .2-.1.3-.8 1-.7.6-.8.7-1 .7-.1 0-.2-.1-.4-.3-1.9-3-4-5.1-6.4-6.6-.2-.1-.2-.2-.2-.4 0 0 0-.1.8-.9zM18 65.8h8.8c1.5 0 2.1 0 3.1-.2v2c-.9-.1-1.6-.2-3.1-.2h-9.2v2.5h10.2c1.9 0 2.9 0 3.7-.2V72c-1.3-.2-2.2-.2-3.7-.2h-8.4c3.1 2.7 7.5 4.7 12.6 5.8-.6.7-.9 1.2-1.3 2-5.9-1.7-9.7-3.8-13.1-7.2.1 1 .1 1.6.1 2.6v2.6c0 1.5 0 1.9.2 2.5h-2.5c.2-.7.2-1.3.2-2.5V75v-.9l.1-1.6c-2 2.1-3.9 3.4-6.5 4.7-1.9.9-4 1.6-6.4 2.3-.4-.8-.7-1.3-1.4-2 3.3-.6 5.6-1.4 8.2-2.7 1.8-.9 3-1.8 4.3-3H5.4c-1.5 0-2.5 0-3.7.2v-2.2c.8.1 1.8.2 3.7.2h10v-2.5H8.1c-1.3 0-1.5 0-2.3.1.1-.6.1-1.4.1-2.2v-5.6c0-1.2 0-2.2.1-3.3-1.2 1.4-2 2.2-3.7 3.5-.4-.7-.7-1.1-1.3-1.6 2.8-1.9 4.8-4 6.5-6.7.5-.8.9-1.6 1.2-2.4l2.3.6c-1.6 2.5-1.6 2.5-2.2 3.2H16c1.1-1.4 1.6-2.5 2-3.7l2.2.5c-.9 1.5-1.5 2.5-2.1 3.2h8.5c1.5 0 2.2 0 3.1-.2V55c-.9-.1-1.5-.1-2.9-.1H18v2.5h7.1c1.4 0 2 0 3-.2v2c-.9-.1-1.5-.2-3-.2H18v2.5h7.1c1.4 0 2 0 3-.2v2c-.8-.1-1.5-.2-3-.2H18v2.7zm-2-11.2H7.9v2.5H16v-2.5zm0 4.2H7.9v2.5H16v-2.5zM7.9 63v2.8H16V63H7.9zM50.4 69.4c.5.6 1.1 1.2 1.7 1.8.2.2.2.2.2.3 0 .4-1 1.4-1.5 1.4-.2 0-.6-.4-1.7-1.6-2.3 3.1-4.2 4.4-6.4 4.4-2.3 0-3.9-2.1-3.9-5.3 0-3.3 1.5-6.4 4.2-8.9-.4-1-.8-2.1-1.3-3.8-.5-1.5-.7-2.1-1.2-2.9.9-.2 2.2-.4 2.5-.4.4 0 .5.1.5 1 .1 1.4.4 2.7 1.2 4.7 2.4-1.6 5.1-2.5 8.1-2.6.4-2 .7-3.6.7-4.6v-1c2.1.3 3.2.8 3.1 1.3 0 .1 0 .2-.3.7-.3.5-.3.7-.7 2-.1.6-.4 1.5-.5 1.9 5.5.8 9.1 4.6 9.1 9.8 0 4.6-2.6 8-7.5 9.9-1.2.5-2.6.8-3 .8-.3 0-.4 0-.7-.6-.3-.5-.8-.9-1.3-1.3 2.4-.4 3.8-.8 5.4-1.6 3-1.6 4.7-4.2 4.7-7.4 0-4.2-2.8-7.2-7.2-7.8-.9 3.5-2.3 6.7-4.2 9.8zm-9.4.9c0 1.9.7 3.1 1.9 3.1 1.5 0 2.8-1 4.8-3.9-1.6-2.1-2.7-3.8-3.7-6-1.9 2.1-3 4.6-3 6.8zm4.6-8.2c.8 1.8 2 3.7 3.3 5.5 1.5-2.5 2.6-4.9 3.5-8-2.6.2-4.9 1-6.8 2.5zM85.1 50.1c2 .1 3 .4 3 .8 0 .1 0 .2-.1.5-.3.8-.5 2.1-.5 4.3 2.3-.2 4.2-.6 5.8-1 .4-.1.5-.1.6-.1.1 0 .2.1.4.5.2.5.4 1.2.4 1.4 0 .2 0 .2-.9.4-2.1.4-3.9.7-6.2.9v5.1c3-.4 4.9-.8 7.4-1.6h.2c.1 0 .2.1.4.5s.4 1.2.4 1.4c0 .2-.1.2-.7.5-2.1.7-5 1.3-7.6 1.5 0 1.4.1 2.8.5 6.3 2.8.9 4.1 1.4 6.3 2.7 1.8 1.1 2.6 1.7 2.6 2.1 0 .2-.1.3-.5.9-.6.8-.7 1-.9 1-.1 0-.2-.1-.4-.2-.8-.8-2.4-1.9-3.7-2.7-1.1-.6-1.7-.9-3.2-1.4 0 2-.1 2.7-.8 3.7-.9 1.3-2.7 2-5.4 2-3.7 0-6.1-1.5-6.1-4.1 0-2.8 2.6-4.6 6.8-4.6.9 0 1.7.1 3.1.2-.2-2.9-.3-4.1-.4-5.7-.7 0-1.5.1-2.3.1-2.5 0-5-.2-6.4-.6-.3-.1-.4-.2-.4-.4 0-.3.1-.9.3-1.9 2.7.6 4.4.7 7.1.7.7 0 1.1 0 1.7-.1 0-.8-.1-2.6-.1-5.2h-1.9c-2 0-4.8-.2-5.7-.5-.2 0-.2-.1-.2-.6 0-.3 0-.8.1-1.5 2.3.4 4 .6 6.1.6h1.5c-.1-3.6-.1-3.7-.3-5.9zm-2.7 22.8c-2.5 0-4.2 1-4.2 2.5 0 1.3 1.4 2.1 3.8 2.1 2.8 0 4-.9 4-3.3v-.8c-.9-.4-2-.5-3.6-.5zM116.9 51.2c.5.1.7.2.7.6 0 .2 0 .3-.1.5-.2.7-.4 1.9-.5 3.8-.2 3.3-.5 13-.5 15.3 0 3.9 1.2 5.3 4.5 5.3 2.4 0 4.7-.7 6.9-2.1 2.2-1.4 3.7-2.9 5.6-5.7.1.8.3 1.2.7 2.1.1.2.1.3.1.4 0 .7-2.3 3.2-4.5 4.7-2.7 2-5.8 3-9 3-4.6 0-6.7-2.5-6.7-7.7 0-.9.3-14.8.4-16.9v-1c0-1.1 0-1.6-.2-2.7 1.1.2 2 .3 2.6.4zM150.4 51.2v-.6c1.4.2 2.2.4 2.8.6.2.1.3.2.3.4s0 .2-.4.9c-.3.6-.3.6-1 4.2 1.6-.3 3.9-.8 4.8-1.2h.2c.1 0 .2 0 .2.2.1.4.3 1.4.3 1.6 0 .3 0 .3-.3.4 0 0-.1 0-.3.1-1 .2-4.1.9-5.4 1.1-1.2 5.6-2.7 10.8-4.9 16-1.1 2.7-1.4 3.3-1.7 3.3-.2 0-1-.3-1.6-.7-.3-.2-.4-.3-.4-.5 0-.1.1-.3.2-.5.6-.9 1.2-2.2 1.8-3.7 1.9-4.5 2.9-7.9 4.2-13.5-1.8.2-4.5.5-5.9.5-.5 0-.6 0-.7-.4-.1-.5-.2-1.1-.3-1.9h1.5c1.4 0 3.8-.2 5.8-.5.7-2.6.8-4.2.8-5.8zm13.1 24.9c1.7 0 2.8-.1 4.8-.5h.4c.4 0 .5.1.5.8 0 .2 0 .4.1.6 0 .2.1.5.1.7 0 .3-.1.5-.5.5-1.1.2-3.6.4-5.3.4-3.4 0-5.5-.6-7-1.8-.9-.7-1.6-1.8-2.1-3-.1-.3-.2-.6-.2-.7 0-.3.1-.4 1.8-1.3 1.1 3.2 3 4.3 7.4 4.3zm-5-12.9h-.2c-.2 0-.4-.1-.4-.3-.1-.2-.1-1-.1-1.5 0-.3.1-.4.4-.5 2.1-.4 4.6-.6 7.4-.6 2 0 2.9.1 3 .3.1.1.1.3.1.9 0 1.1-.1 1.3-.4 1.3h-.2c-1.6-.2-2.5-.2-3.3-.2-2-.1-4.3.2-6.3.6zM186.4 75.2c0 2.9-2.3 5.3-5.2 5.3s-5.2-2.3-5.2-5.3c0-2.9 2.3-5.2 5.2-5.2s5.2 2.3 5.2 5.2zm-8.5 0c0 1.8 1.5 3.3 3.3 3.3 1.8 0 3.3-1.5 3.3-3.3 0-1.8-1.5-3.3-3.3-3.3-1.8 0-3.3 1.5-3.3 3.3z"/></g><g fill="#0075B8"><path d="M22.5 109.9c-1.1.1-2.2.2-3.2.2-.3 0-.4 0-.4-.2s-.1-.5-.2-1.1h.7c1 0 1.8-.1 3.1-.2 0-2.2 0-3-.2-3.9.6 0 1 .1 1.4.2.3.1.4.1.4.3 0 .1 0 .1-.1.4-.2.4-.3 1.4-.3 2.9.9-.1 2.4-.5 3.2-.7h.2c.1 0 .1 0 .2.3.1.2.1.6.1.7 0 .1-.1.2-.2.3-.9.3-1.9.5-3.4.7v3.6c2.1-.9 3.9-1.3 5.4-1.3 2.3 0 3.7 1.4 3.7 3.7 0 2.5-1.6 4-4.2 4-.7 0-1.5-.1-1.9-.3-.2-.1-.2-.2-.3-.4-.1-.4-.1-.6-.3-1.1.8.3 1.5.5 2.3.5 1.8 0 2.9-1.1 2.9-2.8 0-1.6-.9-2.5-2.5-2.5-1.5 0-3.3.5-5.3 1.4v3.6c0 1.1-.6 1.8-1.5 1.8s-1.9-.5-2.7-1.2c-.5-.5-.7-.9-.7-1.5 0-1.1 1-2.1 3.7-3.4v-1.7l.1-2.3zm0 5.3c-1.8 1-2.5 1.5-2.5 2.1 0 .7 1 1.4 1.9 1.4.4 0 .6-.3.6-.9v-2.6zm11.2-4.3c-.1 0-.1 0-.4-.3-.8-.8-2.1-1.6-3.2-2-.3-.1-.4-.1-.4-.2s.1-.3.4-.7c.1-.2.2-.2.3-.2.4 0 1.8.6 2.6 1.1.8.5 1.5 1.1 1.5 1.4 0 .1-.6.9-.8.9zM40 116.7v-1.1c-1 .3-1.4.5-2.8.8-.2-.5-.4-.8-.6-1.1 3.1-.5 5.4-1.4 7.9-2.9-.9-.7-1.7-1.3-2.5-2.2-1.1 1-1.9 1.6-3.7 2.6-.3-.4-.4-.6-.8-.9 1.6-.8 2.6-1.4 3.8-2.4.9-.8 1.8-1.9 2.2-2.7l1.2.4c-.1.1-.1.1-.2.3 0 .1 0 .1-.7.8H48c.8 0 1.3 0 1.7-.1l.7.7c-.1.1-.2.2-.3.4-1.1 1.1-2.4 2.2-3.5 3.1 2.4 1.4 4.5 2.1 7.7 2.6-.3.5-.4.7-.6 1.3-1.2-.3-1.7-.4-2.7-.8v3.8c0 .7 0 1.1.1 1.7h-1.3v-.8h-8.4v.8h-1.3c.1-.6.1-1.1.1-1.7v-2.6zm4.6-11.6c0-.5 0-.9-.1-1.4H46c-.1.4-.1.9-.1 1.4v.5h5.4c.9 0 1.4 0 2.1-.1-.1.4-.1.8-.1 1.3v1.1c0 .6 0 .9.1 1.3h-1.2v-2.6H38.6v2.6h-1.2c.1-.5.1-.8.1-1.3v-1.1c0-.5 0-.9-.1-1.3.7.1 1.3.1 2 .1h5.2v-.5zm4.6 10.2h.9c-1.8-.6-3-1.2-4.6-2.2-1.3.9-2.6 1.5-4.5 2.2h8.2zm-8 3.9h8.4v-2.9h-8.4v2.9zm1.5-9.7c.8.9 1.5 1.4 2.8 2.3 1.1-.8 1.6-1.2 3-2.5h-5.6l-.2.2zM59.4 105.7c0-1.1 0-1.5-.1-2h1.4c-.1.5-.1 1-.1 2v1.9h.8c.6 0 .9 0 1.2-.1v1.2c-.3 0-.7-.1-1.2-.1h-.7c.3 1 1 2.2 1.8 3.1-.2.3-.4.6-.7 1-.6-1-.9-1.6-1.3-2.7 0 1.5.1 2.4.1 3.1v5.8c0 1 0 1.6.1 2.2h-1.4c.1-.5.1-1.2.1-2.2v-5.4c0-.8 0-.8.1-1.7 0-.1 0-.5.1-.9v-.7c-.4 1.8-.6 2.5-1.2 3.7-.4.8-.7 1.3-1.2 2.2-.2-.5-.4-.7-.7-1.2.7-.9 1.3-1.8 1.8-3 .5-1.1.9-2.3 1.1-3.3h-1c-.6 0-1 0-1.3.1v-1.2c.3.1.7.1 1.3.1h1.2v-1.9zm5 1.7c-.8 0-1.2 0-1.7.1v-1.2c.5.1.9.1 1.7.1h1c-.3-.7-.6-1.3-1.2-2.1l1-.4c.6.9 1 1.6 1.4 2.6h2.2c.6-1 1-1.6 1.3-2.6l1.1.4c-.3.6-1 1.8-1.2 2.2h1.7c.7 0 1.2 0 1.8-.1v1.2c-.5-.1-1-.1-1.8-.1h-3.5v1.6h2.9c.8 0 1.3 0 1.7-.1v1.2c-.5-.1-.9-.1-1.7-.1h-2.9v1.7H72c.7 0 1.2 0 1.8-.1v1.3c-.5-.1-1.1-.1-1.8-.1h-3.6c.5 1.3.8 1.9 1.6 2.9.9-.8 1.4-1.4 2.1-2.5l1 .7c-.9 1.2-1.5 1.8-2.4 2.6 1.1 1.2 2.1 1.9 3.7 2.7-.3.4-.5.6-.8 1.1-1.2-.7-2-1.3-2.8-2.2-1.1-1.1-1.7-2-2.5-3.9.1 1.5.1 1.5.1 1.9v3.6c0 1-.4 1.3-1.8 1.3-.5 0-1 0-1.6-.1-.1-.5-.1-.8-.3-1.2.7.1 1.3.2 1.9.2.6 0 .7-.1.7-.4v-2.7c-.2.2-.2.2-.6.4-1 .7-1.6 1-3.5 2-.3.1-.6.4-.9.5l-.6-1.3c1.5-.4 3.3-1.4 5.5-2.9v-2.8h-3c-.7 0-1.2 0-1.7.1v-1.2c.5.1.9.1 1.7.1h3v-1.7H65c-.8 0-1.2 0-1.7.1V109c.5.1.9.1 1.6.1h2.2v-1.6h-2.7zm-.7 5.9c.8.8 1.2 1.4 1.8 2.3l-.9.6c-.6-1-1-1.5-1.8-2.4l.9-.5zM83.8 114.5c-1.2 2.6-2.5 4-4 4-.9 0-1.7-.5-2.3-1.4-.5-.7-.8-2-.8-3.2 0-2.6 1.2-4.9 3.2-6.3 1.4-1 3.2-1.5 5.1-1.5 4.4 0 7.2 2.6 7.2 6.6 0 2.6-1.2 4.8-3.7 6.3-.9.6-2.2 1.1-2.5 1.1-.1 0-.2-.1-.3-.2-.2-.3-.5-.5-.9-.8 1.5-.5 2.3-.8 3.1-1.3 1.9-1.2 2.9-3.1 2.9-5.2 0-2.2-1.1-4-3.1-4.9-.7-.3-1.3-.5-2.3-.5-.1 2.8-.7 5.2-1.6 7.3zm-2.2-6.5c-2.2 1.1-3.5 3.3-3.5 6 0 1.8.7 3.1 1.8 3.1.8 0 1.7-1 2.6-2.9.9-2 1.5-4.4 1.8-6.9-1.1 0-1.9.3-2.7.7zM98.6 116c-.2 1.3-.4 2-.9 3-.4.9-.8 1.4-1.5 2.2-.3-.4-.6-.5-1.1-.9 1.8-1.6 2.5-3.9 2.5-7.8 0-.6 0-1-.1-1.4.6.1.9.1 1.6.1h9.7c.7 0 1.1 0 1.6-.1-.1.5-.1.8-.1 1.4v2.8c0 .7 0 1.2.1 1.7h-1.3v-1H98.6zm4.6-10.6c0-.8 0-1.2-.1-1.8h1.4c-.1.5-.1.9-.1 1.8v.3h5.9c1 0 1.6 0 2.1-.1v1.3c-.6-.1-1.2-.1-2.1-.1h-5.9v1.9h4.5c1.1 0 1.6 0 2.1-.1v1.2c-.6-.1-1-.1-2.1-.1H99c-.9 0-1.4 0-2 .1v-1.2c.4.1 1 .1 2 .1h4.2v-1.9h-5.3c-.9 0-1.5 0-2.1.1v-1.3c.5.1 1.1.1 2.1.1h5.3v-.3zm.1 9.6v-2.7h-4.4c0 1.3 0 1.7-.1 2.7h4.5zm5.9 0v-2.7h-4.8v2.7h4.8z"/></g><path fill="none" stroke="#0075B8" stroke-miterlimit="10" d="M3.1 121.5l8.3-8.3-8.3-8.3"/></svg>