<svg xmlns="http://www.w3.org/2000/svg" viewBox="0 0 250 212"><g fill="#FFF"><path d="M17.012 203.88c-1.09 1.092-2.69 1.676-4.569 1.676H6.25v-18.07h6.193c1.879 0 3.478.584 4.57 1.675 1.878 1.879 1.776 4.644 1.776 7.158 0 2.512.102 5.684-1.777 7.562zm-1.345-13.349c-.94-.964-2.157-1.32-3.553-1.32H8.181v14.618h3.933c1.396 0 2.614-.354 3.553-1.319 1.243-1.294 1.194-3.984 1.194-6.191 0-2.209.049-4.493-1.194-5.788zM24.14 199.795c0 2.74 1.295 4.315 3.682 4.315 1.444 0 2.281-.433 3.273-1.421l1.243 1.09c-1.268 1.269-2.436 1.929-4.569 1.929-3.298 0-5.456-1.98-5.456-6.395 0-4.036 1.953-6.397 5.127-6.397 3.221 0 5.127 2.336 5.127 6.04v.84H24.14zm6.217-3.452c-.48-1.142-1.599-1.878-2.917-1.878-1.32 0-2.436.736-2.92 1.878-.278.686-.328 1.067-.38 2.082h6.599c-.05-1.015-.102-1.396-.382-2.082zM40.38 205.708c-2.108 0-3.757-.482-5.128-1.801l1.219-1.218c.989 1.04 2.334 1.446 3.883 1.446 2.056 0 3.324-.736 3.324-2.209 0-1.09-.633-1.7-2.08-1.827l-2.056-.177c-2.436-.203-3.731-1.294-3.731-3.35 0-2.284 1.928-3.656 4.593-3.656 1.777 0 3.376.433 4.492 1.346l-1.19 1.193c-.89-.685-2.034-.99-3.327-.99-1.828 0-2.792.787-2.792 2.055 0 1.066.61 1.702 2.182 1.829l2.005.177c2.183.203 3.68 1.041 3.68 3.375 0 2.412-2.055 3.807-5.075 3.807zM49.946 189.617a1.247 1.247 0 0 1-1.246-1.243c0-.685.56-1.243 1.246-1.243.685 0 1.268.558 1.268 1.243s-.583 1.243-1.268 1.243zm-.915 15.94V193.07h1.826v12.486h-1.826zM59.462 211.292c-1.878 0-2.92-.482-4.24-1.675l1.193-1.168c.915.813 1.547 1.244 2.995 1.244 2.411 0 3.425-1.7 3.425-3.833v-1.953c-1.014 1.294-2.157 1.624-3.5 1.624-1.27 0-2.362-.457-3.022-1.117-1.243-1.243-1.522-3.173-1.522-5.203 0-2.03.279-3.959 1.522-5.203.66-.659 1.776-1.092 3.047-1.092 1.37 0 2.486.306 3.503 1.625v-1.471h1.8v12.867c0 3.095-1.928 5.355-5.201 5.355zm.279-16.751c-2.715 0-3.124 2.336-3.124 4.67 0 2.335.409 4.67 3.124 4.67 2.715 0 3.094-2.335 3.094-4.67 0-2.334-.379-4.67-3.094-4.67zM77.224 205.556v-7.69c0-2.208-1.193-3.325-3.071-3.325-1.879 0-3.097 1.142-3.097 3.324v7.691H69.23V193.07h1.826v1.37c.89-1.015 2.108-1.524 3.503-1.524 1.345 0 2.436.407 3.199 1.168.886.863 1.292 2.03 1.292 3.478v7.994h-1.826zM92.906 208.577c-.254.685-.533 1.142-.889 1.47-.66.636-1.547.864-2.436.864h-.788v-1.625h.558c1.27 0 1.652-.405 2.058-1.548l.887-2.436-4.492-12.232h1.98l3.426 10.025 3.4-10.025h1.982l-5.686 15.507zM108.917 204.287c-.861.863-2.055 1.42-3.577 1.42-1.525 0-2.715-.557-3.58-1.42-1.268-1.295-1.522-3.046-1.522-4.974 0-1.93.254-3.68 1.522-4.975.865-.862 2.055-1.422 3.58-1.422 1.522 0 2.716.56 3.577 1.422 1.268 1.294 1.522 3.045 1.522 4.975 0 1.928-.254 3.68-1.522 4.974zm-1.292-8.832c-.586-.584-1.398-.914-2.285-.914-.89 0-1.677.33-2.26.914-.914.913-1.016 2.462-1.016 3.858 0 1.395.102 2.943 1.016 3.858.583.583 1.37.913 2.26.913.887 0 1.699-.33 2.285-.913.911-.915.989-2.463.989-3.858 0-1.396-.078-2.945-.99-3.858zM122.238 205.556v-1.397c-.887 1.016-2.133 1.549-3.528 1.549-1.345 0-2.461-.406-3.224-1.167-.886-.864-1.268-2.055-1.268-3.503v-7.968h1.826v7.69c0 2.208 1.169 3.324 3.047 3.324 1.879 0 3.122-1.142 3.122-3.325v-7.69h1.828v12.487h-1.803zM135.585 195.455c-.685-.685-1.19-.914-2.157-.914-1.826 0-2.994 1.448-2.994 3.35v7.665h-1.826V193.07h1.826v1.522c.685-1.04 2.058-1.676 3.502-1.676 1.194 0 2.108.28 2.995 1.168l-1.346 1.371zM153.627 204.287c-.862.863-2.056 1.42-3.578 1.42-1.524 0-2.715-.557-3.58-1.42-1.268-1.295-1.522-3.046-1.522-4.974 0-1.93.254-3.68 1.522-4.975.865-.862 2.056-1.422 3.58-1.422 1.522 0 2.716.56 3.578 1.422 1.27 1.294 1.522 3.045 1.522 4.975 0 1.928-.252 3.68-1.522 4.974zm-1.293-8.832c-.586-.584-1.398-.914-2.285-.914-.889 0-1.676.33-2.26.914-.914.913-1.013 2.462-1.013 3.858 0 1.395.1 2.943 1.014 3.858.583.583 1.37.913 2.26.913.886 0 1.698-.33 2.284-.913.912-.915.989-2.463.989-3.858 0-1.396-.077-2.945-.99-3.858zM170.803 205.556h-1.701l-3.274-9.694-3.248 9.694h-1.702l-3.959-12.486h1.981l2.868 10.025 3.273-10.025h1.575l3.298 10.025 2.843-10.025h1.98l-3.934 12.486zM185.292 205.556v-7.69c0-2.208-1.193-3.325-3.071-3.325-1.879 0-3.097 1.142-3.097 3.324v7.691h-1.826V193.07h1.826v1.37c.89-1.015 2.108-1.524 3.502-1.524 1.346 0 2.437.407 3.2 1.168.886.863 1.292 2.03 1.292 3.478v7.994h-1.826zM204.853 195.455c-.685-.685-1.19-.914-2.155-.914-1.829 0-2.997 1.448-2.997 3.35v7.665h-1.826V193.07h1.826v1.522c.685-1.04 2.058-1.676 3.503-1.676 1.193 0 2.107.28 2.994 1.168l-1.345 1.371zM215.712 204.287c-.862.863-2.056 1.42-3.578 1.42-1.524 0-2.715-.557-3.58-1.42-1.268-1.295-1.522-3.046-1.522-4.974 0-1.93.254-3.68 1.522-4.975.865-.862 2.056-1.422 3.58-1.422 1.522 0 2.716.56 3.578 1.422 1.268 1.294 1.522 3.045 1.522 4.975 0 1.928-.254 3.68-1.522 4.974zm-1.293-8.832c-.586-.584-1.398-.914-2.285-.914-.89 0-1.676.33-2.26.914-.914.913-1.016 2.462-1.016 3.858 0 1.395.102 2.943 1.017 3.858.583.583 1.37.913 2.26.913.886 0 1.698-.33 2.284-.913.911-.915.989-2.463.989-3.858 0-1.396-.078-2.945-.99-3.858zM228.22 205.556v-1.193c-1.014 1.015-1.928 1.345-3.603 1.345-1.726 0-2.743-.33-3.527-1.142-.61-.61-.94-1.549-.94-2.538 0-2.182 1.523-3.603 4.313-3.603h3.757v-1.194c0-1.827-.915-2.741-3.196-2.741-1.6 0-2.412.381-3.15 1.423l-1.242-1.143c1.115-1.447 2.386-1.854 4.417-1.854 3.35 0 5 1.448 5 4.163v8.477h-1.83zm0-5.76h-3.503c-1.878 0-2.79.76-2.79 2.207 0 1.447.887 2.132 2.867 2.132 1.067 0 2.006-.076 2.793-.837.431-.406.633-1.118.633-2.158v-1.345zM241.949 205.556v-1.497c-1.014 1.319-2.182 1.649-3.553 1.649-1.27 0-2.386-.43-3.046-1.091-1.269-1.27-1.523-3.35-1.523-5.304 0-1.955.254-4.036 1.523-5.305.66-.659 1.776-1.092 3.046-1.092 1.37 0 2.511.306 3.528 1.6v-7.03h1.826v18.07h-1.801zm-3.147-11.015c-2.715 0-3.149 2.336-3.149 4.772 0 2.436.434 4.77 3.15 4.77 2.715 0 3.121-2.334 3.121-4.77 0-2.436-.406-4.772-3.122-4.772z"/></g><g fill="#FFF"><path d="M127.109 57.222c-1.158-.601-3.056-.601-4.214 0l-61.442 31.87c-1.158.597-3.09.666-4.289.15L.921 64.942c-1.199-.514-1.233-1.426-.068-2.022L122.887.446c1.166-.595 3.07-.595 4.228 0L249.149 62.92c1.158.596 1.132 1.508-.067 2.023l-56.25 24.3c-1.199.515-3.123.446-4.283-.151l-61.44-31.87zM55.226 120.468h4.365l4.274 19.336h.081l5.267-19.336h2.98l5.278 19.336h.075l4.283-19.336h4.357l-6.802 27.207h-3.437l-5.203-19.604h-.075l-5.192 19.604h-3.44zM112.757 135.79h-10.782v11.885h-4.127v-27.207h4.127v11.65h10.782v-11.65h4.133v27.207h-4.133zM130.999 120.468h4.133v27.208h-4.133zM149.262 120.468h4.126v23.314h13.26v3.893h-17.386zM177.381 120.468h4.128v23.314h13.26v3.893h-17.388z"/></g></svg>