<svg id="レイヤー_1" xmlns="http://www.w3.org/2000/svg" viewBox="0 0 53 13" width="53" height="13"><style>.st0{fill:#0075b8}</style><path id="path-1" class="st0" d="M51.8 11.1h.6v1.1h-.9c-1.4 0-2.1-1-2.1-2.2V4.7h-1.1v-.9h1.1V1.2h1.2v2.6h1.8v.9h-1.8v5.1c.1.8.5 1.3 1.2 1.3zM44.9 0h1.4v1.4h-1.4V0zm-4.2 11.2c-.6.7-1.4 1-2.4 1-.9 0-1.7-.3-2.2-.8-.6-.6-.8-1.4-.8-2.3V3.8h1.2v5.1c0 1.5.8 2.2 2 2.2 1.3 0 2.1-.8 2.1-2.2V3.8h1.2v8.4h-1.2v-1zm-9.2-6.5c-1.2 0-2 1-2 2.2V12h-1.2V3.8h1.2v1c.5-.7 1.4-1.1 2.3-1.1.8 0 1.4.2 2 .8l-.9.9c-.4-.5-.8-.7-1.4-.7zm-8.3 6.4c.8 0 1.3-.3 1.9-1l.8.8c-.9.9-1.6 1.2-2.8 1.2-2.1 0-3.7-1.4-3.7-4.3s1.6-4.3 3.7-4.3c1.2 0 1.9.3 2.8 1.2l-.8.8c-.6-.5-1.1-.8-1.9-.8-.8 0-1.5.3-1.9 1-.4.5-.5 1.2-.5 2.2 0 1.1.2 1.7.5 2.2.4.7 1.1 1 1.9 1zm-9 .1c1 0 1.5-.3 2.2-1l.8.7c-.9.8-1.6 1.3-3.1 1.3-2.2 0-3.7-1.3-3.7-4.3 0-2.7 1.3-4.3 3.4-4.3 2.2 0 3.4 1.6 3.4 4v.6h-5.6c.1 1.9 1 3 2.6 3zm1.9-3.9c0-.7-.1-.9-.3-1.4-.3-.8-1.1-1.3-2-1.3s-1.6.5-2 1.3c-.2.5-.2.7-.3 1.4h4.6zM7 12.1L4.2 6.7H1.3v5.4H0V0h4.6c2.1 0 3.6 1.3 3.6 3.4 0 1.8-1.1 2.9-2.6 3.2l2.9 5.5H7zm-.1-8.7c0-1.5-1-2.2-2.4-2.2H1.3v4.4h3.2c1.4 0 2.4-.7 2.4-2.2zm39.3 8.7H45V3.8h1.2v8.3z"/></svg>