<svg xmlns="http://www.w3.org/2000/svg" preserveAspectRatio="xMidYMid" width="227" height="17" viewBox="0 0 227 17"><path fill="#0075b8" d="M219.511 12.219V.116h1.292v10.947h6.187v1.156h-7.479zM209.77.116h1.292v10.947h6.187v1.156h-7.479V.116zm-4.793 0h1.291v12.103h-1.291V.116zm-4.795 6.578h-5.746v5.525h-1.291V.116h1.291v5.423h5.746V.116h1.291v12.103h-1.291V6.694zm-13.363 5.525l-2.685-9.689-2.686 9.689h-1.207L177.147.116h1.377l2.363 9.757 2.669-9.757h1.156l2.669 9.757 2.362-9.757h1.377l-3.094 12.103h-1.207zM169.889.116h1.223v12.103h-1.223V.116zm-4.2 11.304c-.68.68-1.293.901-2.414.901-1.156 0-1.836-.221-2.363-.765-.408-.408-.629-1.037-.629-1.7 0-1.462 1.02-2.414 2.891-2.414h2.515v-.798c0-1.225-.612-1.836-2.142-1.836-1.07 0-1.615.254-2.108.951l-.833-.764c.748-.97 1.598-1.242 2.958-1.242 2.244 0 3.348.97 3.348 2.789v5.677h-1.223v-.799zm0-3.06h-2.345c-1.258 0-1.871.51-1.871 1.479 0 .969.595 1.428 1.922 1.428.712 0 1.341-.051 1.869-.561.289-.272.425-.748.425-1.445V8.36zm-10.182 1.615V4.841h-1.054v-.934h1.054V1.289h1.223v2.618h1.786v.934h-1.786v5.1c0 .765.358 1.224 1.139 1.224h.647v1.054h-.868c-1.427 0-2.141-1.003-2.141-2.244zm-4.403-2.907c0-1.479-.799-2.227-2.057-2.227s-2.074.765-2.074 2.227v5.151h-1.224V3.855h1.224v.918c.595-.679 1.411-1.02 2.345-1.02.902 0 1.633.272 2.143.783.595.577.867 1.36.867 2.328v5.355h-1.224V7.068zm-11.135 4.182c.969 0 1.53-.289 2.193-.952l.832.731c-.849.85-1.631 1.292-3.058 1.292-2.211 0-3.656-1.326-3.656-4.284 0-2.703 1.31-4.284 3.434-4.284 2.159 0 3.433 1.564 3.433 4.046v.561h-5.643c0 1.836.867 2.89 2.465 2.89zm1.955-3.808c-.034-.68-.069-.935-.255-1.394-.323-.765-1.071-1.257-1.955-1.257-.884 0-1.632.492-1.954 1.257-.188.459-.222.714-.256 1.394h4.42zm-9.163 4.777l-2.754-5.372h-2.906v5.372h-1.292V.116h4.64c2.108 0 3.586 1.275 3.586 3.365 0 1.769-1.07 2.924-2.635 3.248l2.873 5.49h-1.512zm-.017-8.72c0-1.479-1.004-2.227-2.414-2.227h-3.229v4.436h3.229c1.41 0 2.414-.73 2.414-2.209zm-15.316 1.342c-1.225 0-2.006.97-2.006 2.244v5.134h-1.225V3.855h1.225v1.02c.459-.696 1.377-1.122 2.346-1.122.798 0 1.41.187 2.005.783l-.901.918c-.459-.459-.799-.613-1.444-.613zm-9.266 7.48c-1.019 0-1.818-.374-2.396-.952-.85-.867-1.02-2.04-1.02-3.332 0-1.292.17-2.465 1.02-3.331.578-.579 1.377-.953 2.396-.953 1.021 0 1.819.374 2.398.953.849.866 1.019 2.039 1.019 3.331 0 1.292-.17 2.465-1.019 3.332-.579.578-1.377.952-2.398.952zm1.53-6.867a2.14 2.14 0 0 0-1.53-.613c-.595 0-1.121.221-1.513.613-.612.611-.679 1.648-.679 2.583 0 .935.067 1.972.679 2.584.392.391.918.612 1.513.612.596 0 1.139-.221 1.53-.612.613-.612.663-1.649.663-2.584s-.05-1.972-.663-2.583zm-8.346 6.765h-1.224V4.841h-1.071v-.934h1.071V2.326c0-1.241.696-2.244 2.124-2.244h.885v1.054h-.663c-.782 0-1.122.459-1.122 1.224v1.547h1.785v.934h-1.785v7.378zm-9.928-5.151c0-1.479-.799-2.227-2.057-2.227s-2.074.765-2.074 2.227v5.151h-1.225V3.855h1.225v.918c.595-.679 1.41-1.02 2.346-1.02.9 0 1.632.272 2.141.783.595.577.868 1.36.868 2.328v5.355h-1.224V7.068zm-11.391 5.253c-1.019 0-1.818-.374-2.396-.952-.85-.867-1.02-2.04-1.02-3.332 0-1.292.17-2.465 1.02-3.331.578-.579 1.377-.953 2.396-.953 1.021 0 1.82.374 2.398.953.849.866 1.019 2.039 1.019 3.331 0 1.292-.17 2.465-1.019 3.332-.578.578-1.377.952-2.398.952zm1.531-6.867a2.143 2.143 0 0 0-1.531-.613 2.1 2.1 0 0 0-1.512.613c-.613.611-.68 1.648-.68 2.583 0 .935.067 1.972.68 2.584.391.391.918.612 1.512.612.596 0 1.139-.221 1.531-.612.612-.612.663-1.649.663-2.584s-.051-1.972-.663-2.583zM72.685.099h1.376v1.377h-1.376V.099zm-5.373 9.876V4.841h-1.053v-.934h1.053V1.289h1.224v2.618h1.785v.934h-1.785v5.1c0 .765.358 1.224 1.14 1.224h.645v1.054h-.867c-1.428 0-2.142-1.003-2.142-2.244zm-5.882 2.346c-.918 0-1.683-.221-2.363-1.088v4.725h-1.223V3.855h1.223v.986c.68-.883 1.445-1.088 2.363-1.088.85 0 1.598.289 2.04.731.85.85 1.02 2.245 1.02 3.553 0 1.309-.17 2.703-1.02 3.553-.442.442-1.19.731-2.04.731zm-.254-7.48c-1.82 0-2.109 1.564-2.109 3.196 0 1.632.289 3.196 2.109 3.196 1.818 0 2.09-1.564 2.09-3.196 0-1.632-.272-3.196-2.09-3.196zM53.475.099h1.377v1.377h-1.377V.099zm-3.86 4.742c-1.223 0-2.006.97-2.006 2.244v5.134h-1.223V3.855h1.223v1.02c.459-.696 1.377-1.122 2.346-1.122.8 0 1.411.187 2.006.783l-.9.918c-.459-.459-.799-.613-1.446-.613zm-8.312 6.392c.799 0 1.292-.255 1.921-.952l.833.799c-.868.935-1.598 1.241-2.754 1.241-2.108 0-3.705-1.428-3.705-4.284 0-2.855 1.597-4.284 3.705-4.284 1.156 0 1.886.307 2.754 1.242l-.833.781c-.629-.696-1.122-.935-1.921-.935-.816 0-1.496.324-1.938.952-.39.544-.544 1.19-.544 2.244 0 1.054.154 1.7.544 2.244.442.629 1.122.952 1.938.952zm-8.11-3.723c1.463.136 2.465.697 2.465 2.261 0 1.615-1.377 2.55-3.399 2.55-1.411 0-2.516-.323-3.434-1.207l.817-.816c.663.697 1.563.969 2.6.969 1.377 0 2.227-.493 2.227-1.479 0-.731-.425-1.139-1.394-1.224l-1.377-.119c-1.632-.136-2.499-.867-2.499-2.244 0-1.53 1.292-2.448 3.077-2.448 1.19 0 2.261.289 3.009.901l-.799.8c-.595-.459-1.36-.663-2.227-.663-1.224 0-1.87.526-1.87 1.376 0 .714.408 1.139 1.463 1.224l1.341.119zm-9.247 4.811c-.918 0-1.682-.221-2.363-1.105v1.003h-1.224V.116h1.224v4.709c.681-.867 1.445-1.072 2.363-1.072.85 0 1.598.289 2.04.731.85.85 1.02 2.245 1.02 3.553 0 1.309-.17 2.703-1.02 3.553-.442.442-1.19.731-2.04.731zm-.255-7.48c-1.819 0-2.108 1.564-2.108 3.196 0 1.632.289 3.196 2.108 3.196 1.819 0 2.091-1.564 2.091-3.196 0-1.632-.272-3.196-2.091-3.196zm-7.599 6.443c-.595.68-1.428 1.037-2.363 1.037-.901 0-1.649-.272-2.159-.782-.594-.578-.849-1.377-.849-2.346V3.855h1.223v5.151c0 1.479.783 2.227 2.04 2.227 1.258 0 2.091-.765 2.091-2.227V3.855h1.224v8.364h-1.207v-.935zM3.768 5.437l1.326.204c1.138.17 1.699.407 2.209.849.663.561 1.019 1.394 1.019 2.397 0 2.125-1.665 3.434-4.18 3.434-1.82 0-3.009-.459-4.148-1.598l.884-.884c1.003 1.003 1.937 1.326 3.298 1.326 1.767 0 2.855-.833 2.855-2.244 0-.629-.187-1.173-.578-1.513-.391-.34-.697-.442-1.581-.578l-1.411-.221c-.951-.152-1.699-.459-2.227-.918-.611-.544-.918-1.292-.918-2.26C.316 1.374 1.795.014 4.192.014c1.547 0 2.567.391 3.604 1.326l-.833.833c-.748-.68-1.547-1.037-2.821-1.037-1.616 0-2.55.901-2.55 2.244 0 .595.17 1.071.544 1.393.374.324 1.003.561 1.632.664zm50.999 6.782h-1.224V3.855h1.224v8.364zm19.21 0h-1.225V3.855h1.225v8.364z" class="cls-2" fill-rule="evenodd"/></svg>