<svg xmlns="http://www.w3.org/2000/svg" preserveAspectRatio="xMidYMid" width="65" height="13" viewBox="0 0 65 13"><path fill="#0075b8" d="M61.589 4.666c-1.224 0-1.87.527-1.87 1.376 0 .714.408 1.139 1.462 1.224l1.343.119c1.462.136 2.465.697 2.465 2.261 0 1.615-1.377 2.55-3.4 2.55-1.411 0-2.516-.324-3.434-1.208l.817-.815c.662.697 1.563.969 2.6.969 1.377 0 2.227-.493 2.227-1.479 0-.731-.425-1.139-1.394-1.224l-1.377-.119c-1.632-.136-2.499-.867-2.499-2.244 0-1.53 1.292-2.447 3.077-2.447 1.19 0 2.261.289 3.009.9l-.799.8c-.595-.459-1.36-.663-2.227-.663zm-8.415 6.459c.969 0 1.53-.289 2.193-.952l.833.731c-.85.85-1.632 1.292-3.06 1.292-2.21 0-3.655-1.326-3.655-4.284 0-2.703 1.309-4.283 3.434-4.283 2.159 0 3.434 1.564 3.434 4.045v.561h-5.644c0 1.836.867 2.89 2.465 2.89zm1.955-3.808c-.034-.68-.068-.935-.255-1.394-.323-.765-1.071-1.257-1.955-1.257-.884 0-1.632.492-1.955 1.257-.187.459-.221.714-.255 1.394h4.42zm-9.111-2.601c-1.225 0-2.006.969-2.006 2.245v5.133h-1.224V3.731h1.224v1.02c.459-.697 1.377-1.122 2.345-1.122.799 0 1.411.186 2.006.782l-.901.918c-.459-.459-.799-.613-1.444-.613zm-7.498 6.443c-.595.68-1.428 1.037-2.363 1.037-.9 0-1.648-.272-2.158-.782-.595-.578-.851-1.377-.851-2.346V3.731h1.225v5.15c0 1.479.781 2.227 2.039 2.227s2.091-.766 2.091-2.227v-5.15h1.224v8.363H38.52v-.935zM27.794 9.85V4.716H26.74v-.935h1.054V1.164h1.224v2.617h1.785v.935h-1.785v5.1c0 .765.357 1.224 1.139 1.224h.646v1.054h-.867c-1.428 0-2.142-1.003-2.142-2.244zm-4.403 1.445c-.68.68-1.292.901-2.414.901-1.156 0-1.836-.221-2.363-.765-.408-.408-.629-1.037-.629-1.7 0-1.462 1.02-2.414 2.89-2.414h2.516v-.798c0-1.225-.612-1.836-2.142-1.836-1.071 0-1.615.255-2.108.951l-.832-.764c.747-.969 1.597-1.241 2.957-1.241 2.244 0 3.349.969 3.349 2.787v5.678h-1.224v-.799zm0-3.06h-2.346c-1.258 0-1.87.511-1.87 1.479 0 .969.595 1.428 1.921 1.428.714 0 1.343-.051 1.87-.561.289-.272.425-.748.425-1.445v-.901zm-10.523 2.89c.969 0 1.529-.289 2.193-.952l.833.731c-.85.85-1.632 1.292-3.06 1.292-2.21 0-3.655-1.326-3.655-4.284 0-2.703 1.309-4.283 3.434-4.283 2.159 0 3.434 1.564 3.434 4.045v.561h-5.644c0 1.836.867 2.89 2.465 2.89zm1.955-3.808c-.034-.68-.068-.935-.255-1.394-.323-.765-1.071-1.257-1.955-1.257-.884 0-1.632.492-1.955 1.257-.187.459-.221.714-.255 1.394h4.42zM1.291 5.601h5.304v1.155H1.291v5.338H-.001V-.009h7.514v1.156H1.291v4.454z"/></svg>