<svg xmlns="http://www.w3.org/2000/svg" preserveAspectRatio="xMidYMid" width="405.812" height="119.25" viewBox="0 0 405.812 119.25"><path fill="#FFF" d="M403.271 107.765V92.823c0-2.327-.569-4.109-1.709-5.346-1.139-1.238-2.783-1.856-4.931-1.856-1.433 0-2.657.28-3.675.842-1.017.561-1.794 1.384-2.331 2.466-.537 1.083-.806 2.381-.806 3.894v14.942h-2.539V83.668h2.539v2.856c1.807-2.099 4.175-3.149 7.105-3.149 2.701 0 4.834.765 6.396 2.295 1.66 1.579 2.49 3.809 2.49 6.689v15.406h-2.539zm-25.44-5.103a8.61 8.61 0 0 1-1.858 2.759c-1.793 1.758-4.026 2.637-6.698 2.637-2.689 0-4.93-.879-6.722-2.637a8.614 8.614 0 0 1-1.858-2.747 12.958 12.958 0 0 1-.905-3.259 26.275 26.275 0 0 1-.244-3.711c0-2.018.212-3.85.636-5.493.423-1.644 1.213-3.044 2.371-4.199 1.759-1.758 4.001-2.637 6.722-2.637 2.705 0 4.938.879 6.698 2.637a8.61 8.61 0 0 1 1.858 2.759 13.19 13.19 0 0 1 .904 3.283c.163 1.147.244 2.364.244 3.65a26.22 26.22 0 0 1-.244 3.662 13.206 13.206 0 0 1-.904 3.296zm-1.841-11.694c-.269-1.302-.849-2.401-1.743-3.296-1.332-1.367-2.99-2.051-4.972-2.051-1.999 0-3.665.684-4.997 2.051-.893.895-1.474 2.014-1.742 3.356-.268 1.343-.402 2.902-.402 4.676 0 1.758.134 3.317.402 4.675.268 1.359.849 2.486 1.742 3.382 1.366 1.367 3.031 2.051 4.997 2.051 1.95 0 3.607-.684 4.972-2.051.894-.896 1.474-1.998 1.743-3.309.267-1.309.402-2.892.402-4.748 0-1.855-.135-3.434-.402-4.736zm-27.577-18.799h3.149v3.149h-3.149v-3.149zm-12.712 34.79a5.11 5.11 0 0 1-1.995-2.222c-.45-.944-.674-2.034-.674-3.271V85.572h-3.296v-1.904h3.296v-7.715h2.588v7.715h5.444v1.904h-5.444v15.943c0 2.669 1.229 4.004 3.687 4.004h1.757v2.246h-2.204c-1.224 0-2.277-.269-3.159-.806zm-20.54 1.099c-1.497 0-2.82-.245-3.967-.733-1.148-.488-2.21-1.375-3.186-2.661v14.6h-2.539V83.668h2.539v3.101c.944-1.287 1.997-2.173 3.161-2.662 1.164-.488 2.495-.732 3.992-.732 1.253 0 2.384.183 3.394.549 1.008.366 1.847.884 2.514 1.551 2.067 2.067 3.101 5.476 3.101 10.229 0 4.769-1.034 8.187-3.101 10.254-1.432 1.399-3.402 2.1-5.908 2.1zm5.032-19.678c-.926-1.839-2.722-2.759-5.386-2.759-2.681 0-4.484.92-5.41 2.759-.926 1.839-1.389 4.28-1.389 7.324 0 3.06.463 5.51 1.389 7.349.926 1.839 2.729 2.759 5.41 2.759 2.664 0 4.46-.92 5.386-2.759.926-1.839 1.389-4.289 1.389-7.349 0-3.044-.463-5.485-1.389-7.324zm-26.98 16.528c-1.81 2.1-4.181 3.15-7.115 3.15-2.706 0-4.842-.765-6.407-2.295-1.679-1.595-2.518-3.825-2.518-6.69V83.668h2.588v14.941c0 2.328.569 4.11 1.709 5.347 1.139 1.237 2.783 1.856 4.931 1.856 1.432 0 2.657-.282 3.675-.843 1.017-.562 1.794-1.383 2.331-2.466.537-1.082.806-2.38.806-3.894V83.668h2.539v24.097h-2.539v-2.857zM268.53 86.012c-.635-.261-1.465-.391-2.49-.391-.977 0-1.876.192-2.698.573a5.837 5.837 0 0 0-2.075 1.6 6.978 6.978 0 0 0-1.257 2.319 9.141 9.141 0 0 0-.415 2.808v14.844h-2.539V83.668h2.539v3.198c.699-1.106 1.692-1.966 2.978-2.576a9.397 9.397 0 0 1 4.077-.915c1.188 0 2.242.171 3.162.513.919.341 1.794.935 2.624 1.782l-1.831 1.855c-.749-.749-1.44-1.253-2.075-1.513zm-30.078 8.252l3.882.341c2.246.196 3.983.749 5.212 1.661 1.229.911 1.844 2.458 1.844 4.638 0 1.449-.395 2.714-1.186 3.796-.79 1.083-1.915 1.913-3.373 2.49-1.459.579-3.158.868-5.097.868-4.107 0-7.366-1.148-9.778-3.443l1.765-1.758c1.874 1.97 4.513 2.955 7.919 2.955 2.346 0 4.143-.412 5.389-1.234 1.247-.821 1.87-2.046 1.87-3.674 0-1.237-.374-2.18-1.123-2.832-.749-.651-1.912-1.05-3.491-1.196l-4.004-.366c-4.85-.391-7.275-2.49-7.275-6.299 0-1.367.354-2.567 1.063-3.602.709-1.033 1.716-1.831 3.02-2.392 1.304-.562 2.836-.842 4.596-.842 1.695 0 3.268.224 4.719.671 1.45.448 2.697 1.07 3.74 1.868l-1.709 1.709c-1.855-1.367-4.101-2.051-6.738-2.051-1.986 0-3.508.407-4.565 1.221-1.058.813-1.587 1.953-1.587 3.418 0 1.269.394 2.226 1.184 2.868.789.644 2.03 1.038 3.723 1.185zm-18.677-22.095h3.15v3.149h-3.15v-3.149zm-12.109 32.349c-.7.7-1.506 1.29-2.417 1.769-.912.481-1.909.847-2.991 1.099a15.255 15.255 0 0 1-3.479.379h-11.963V72.169h11.963c1.237 0 2.397.126 3.479.378a12.61 12.61 0 0 1 2.979 1.087 9.875 9.875 0 0 1 2.429 1.782c1.465 1.448 2.409 3.227 2.832 5.334.423 2.108.635 4.644.635 7.605v2.271c0 3.125-.216 5.859-.647 8.203-.432 2.344-1.372 4.24-2.82 5.689zm.757-15.064v-1.489c0-2.507-.163-4.627-.488-6.361-.326-1.733-1.05-3.161-2.173-4.284-1.775-1.839-4.322-2.758-7.642-2.758h-8.594v30.81h8.594c3.32 0 5.867-.92 7.642-2.759 1.123-1.123 1.847-2.657 2.173-4.602.325-1.945.488-4.277.488-6.994v-1.563zm-9.79-57.238h3.393v6.787l-3.393 3.418V32.216zm-22.888-1.063c1.342 1.636 3.283 2.454 5.822 2.454 1.4 0 2.596-.219 3.589-.659.993-.439 2.018-1.188 3.076-2.246l1.905 1.514c-1.288 1.286-2.588 2.222-3.9 2.807-1.312.586-2.921.879-4.827.879-2.217 0-4.087-.467-5.611-1.404-1.524-.936-2.68-2.323-3.471-4.162-.79-1.839-1.185-4.102-1.185-6.787 0-1.953.219-3.691.66-5.213.439-1.522 1.07-2.803 1.894-3.845a8.348 8.348 0 0 1 3.068-2.417c1.222-.569 2.575-.854 4.058-.854 1.515 0 2.86.26 4.033.781a8.268 8.268 0 0 1 3.031 2.307c.848 1.017 1.491 2.251 1.931 3.699.44 1.448.66 3.1.66 4.956v1.147H173.73c0 3.06.672 5.408 2.015 7.043zm12.17-9.093c-.049-1.189-.122-2.047-.22-2.577-.097-.528-.301-1.183-.61-1.964-.505-1.238-1.335-2.222-2.49-2.955a6.898 6.898 0 0 0-3.76-1.098c-1.384 0-2.637.362-3.76 1.086-1.123.724-1.953 1.714-2.49 2.967-.31.781-.517 1.464-.623 2.05-.106.586-.183 1.416-.232 2.491h14.185zm-27.246 13.549h-2.588V13.417h-3.296v-1.904h3.296V6.312c0-1.237.224-2.332.673-3.284a5.013 5.013 0 0 1 2.008-2.221c.89-.529 1.939-.793 3.147-.793h2.204V2.26h-1.758c-2.458 0-3.686 1.335-3.686 4.004v5.249h5.444v1.904h-5.444v22.192zm-2.93 40.344h2.588v7.715h5.444v1.904h-5.444v15.943c0 2.669 1.229 4.004 3.687 4.004h1.757v2.246h-2.204c-1.224 0-2.277-.269-3.159-.806a5.11 5.11 0 0 1-1.995-2.222c-.45-.944-.674-2.034-.674-3.271V85.572h-3.296v-1.904h3.296v-7.715zM144.8.014h3.149v3.149H144.8V.014zm.317 11.499h2.539v24.096h-2.539V11.513zm-.195 72.155h2.539v24.097h-2.539v-2.857c-1.81 2.1-4.181 3.15-7.115 3.15-2.706 0-4.842-.765-6.407-2.295-1.679-1.595-2.518-3.825-2.518-6.69V83.668h2.588v14.941c0 2.328.569 4.11 1.709 5.347 1.139 1.237 2.783 1.856 4.931 1.856 1.432 0 2.657-.282 3.675-.843 1.017-.562 1.794-1.383 2.331-2.466.537-1.082.806-2.38.806-3.894V83.668zM117.163.014h2.71v33.203h18.896v2.392h-21.606V.014zm2.611 88.757c.44 1.042.741 2.135.904 3.283.163 1.147.245 2.364.245 3.65s-.082 2.507-.245 3.662a13.164 13.164 0 0 1-.904 3.296 8.61 8.61 0 0 1-1.858 2.759c-1.793 1.758-4.025 2.637-6.698 2.637-2.689 0-4.929-.879-6.722-2.637a8.614 8.614 0 0 1-1.858-2.747 12.915 12.915 0 0 1-.904-3.259 26.12 26.12 0 0 1-.245-3.711c0-2.018.212-3.85.636-5.493.423-1.644 1.214-3.044 2.371-4.199 1.76-1.758 4.001-2.637 6.722-2.637 2.705 0 4.938.879 6.698 2.637a8.61 8.61 0 0 1 1.858 2.759zm-8.556-3.15c-1.999 0-3.664.684-4.996 2.051-.894.895-1.475 2.014-1.743 3.356-.268 1.343-.402 2.902-.402 4.676 0 1.758.134 3.317.402 4.675.268 1.359.849 2.486 1.743 3.382 1.365 1.367 3.03 2.051 4.996 2.051 1.95 0 3.607-.684 4.972-2.051.894-.896 1.475-1.998 1.743-3.309.268-1.309.402-2.892.402-4.748 0-1.855-.134-3.434-.402-4.736-.268-1.302-.849-2.401-1.743-3.296-1.332-1.367-2.99-2.051-4.972-2.051zM94.8 13.856c-.635-.26-1.465-.39-2.49-.39-.977 0-1.876.191-2.698.573a5.828 5.828 0 0 0-2.075 1.6 6.97 6.97 0 0 0-1.258 2.319 9.137 9.137 0 0 0-.415 2.808v14.843h-2.539V11.513h2.539v3.198c.7-1.107 1.693-1.966 2.979-2.576a9.376 9.376 0 0 1 4.077-.915c1.188 0 2.242.171 3.161.512.92.342 1.795.936 2.625 1.783l-1.831 1.855c-.749-.749-1.44-1.253-2.075-1.514zm-5.469 70.605a7.396 7.396 0 0 1 3.101 3.113c.715 1.351 1.074 2.947 1.074 4.785v15.406h-2.539V92.823c0-2.327-.57-4.109-1.709-5.346-1.14-1.238-2.783-1.856-4.932-1.856-1.432 0-2.657.28-3.674.842-1.018.561-1.795 1.384-2.332 2.466-.537 1.083-.805 2.381-.805 3.894v14.942h-2.539V72.169h2.539v14.355c1.806-2.099 4.174-3.149 7.104-3.149 1.79 0 3.361.362 4.712 1.086zM71.069 32.753c-1.809 2.1-4.181 3.149-7.115 3.149-2.706 0-4.842-.764-6.406-2.295-1.679-1.594-2.519-3.825-2.519-6.689V11.513h2.588v14.941c0 2.327.569 4.109 1.709 5.347 1.139 1.237 2.783 1.855 4.932 1.855 1.432 0 2.657-.281 3.674-.843 1.017-.561 1.795-1.382 2.332-2.465.537-1.082.805-2.38.805-3.894V11.513h2.539v24.096h-2.539v-2.856zM46.143 72.169h3.149v3.149h-3.149v-3.149zm-.222-41.662a8.578 8.578 0 0 1-1.858 2.759c-1.793 1.757-4.025 2.636-6.697 2.636-2.689 0-4.93-.879-6.722-2.636a8.614 8.614 0 0 1-1.858-2.747 12.982 12.982 0 0 1-.905-3.259 26.275 26.275 0 0 1-.244-3.711c0-2.019.212-3.85.635-5.493.424-1.644 1.214-3.044 2.372-4.2 1.759-1.757 4-2.636 6.722-2.636 2.705 0 4.938.879 6.697 2.636a8.578 8.578 0 0 1 1.858 2.759c.44 1.042.742 2.136.905 3.283.163 1.148.244 2.365.244 3.651a26.22 26.22 0 0 1-.244 3.662 13.165 13.165 0 0 1-.905 3.296zm-1.84-11.694c-.269-1.302-.85-2.401-1.743-3.296-1.333-1.368-2.99-2.051-4.972-2.051-1.999 0-3.665.683-4.997 2.051-.893.895-1.475 2.013-1.743 3.356s-.401 2.901-.401 4.676c0 1.758.133 3.316.401 4.675s.85 2.486 1.743 3.381c1.365 1.368 3.03 2.051 4.997 2.051 1.949 0 3.607-.683 4.972-2.051.893-.895 1.474-1.998 1.743-3.308.267-1.31.401-2.893.401-4.748 0-1.856-.134-3.435-.401-4.736zM13.208 35.609h-2.71V20.863L0 .014h2.903l9.049 17.993L20.798.014h2.908L13.208 20.863v14.746zm-2.344 67.517l8.301-30.957h2.808l8.3 30.957 7.496-30.957h2.832l-8.887 35.596h-2.759l-8.398-31.006-8.399 31.006H9.424L.513 72.169h2.856l7.495 30.957zm38.135 4.639H46.46V83.668h2.539v24.097zm10.278-31.812h2.588v7.715h5.445v1.904h-5.445v15.943c0 2.669 1.229 4.004 3.687 4.004h1.758v2.246h-2.205c-1.224 0-2.277-.269-3.159-.806a5.11 5.11 0 0 1-1.995-2.222c-.45-.944-.674-2.034-.674-3.271V85.572h-3.296v-1.904h3.296v-7.715zm163.355 31.812h-2.539V83.668h2.539v24.097zm128.637 0h-2.539V83.668h2.539v24.097z"/></svg>