<svg xmlns="http://www.w3.org/2000/svg" preserveAspectRatio="xMidYMid" width="119" height="13" viewBox="0 0 119 13"><path fill="#0075b8" d="M112.845 8.235c0 1.836.867 2.89 2.465 2.89.968 0 1.53-.289 2.192-.952l.833.731c-.85.85-1.632 1.292-3.06 1.292-2.209 0-3.654-1.326-3.654-4.284 0-2.703 1.309-4.284 3.434-4.284 2.158 0 3.433 1.564 3.433 4.046v.561h-5.643zm4.165-2.312c-.323-.765-1.072-1.257-1.955-1.257-.884 0-1.632.492-1.955 1.257-.187.459-.221.714-.255 1.394h4.42c-.035-.68-.069-.935-.255-1.394zm-9.792 1.462c1.462.136 2.465.697 2.465 2.261 0 1.615-1.377 2.55-3.4 2.55-1.411 0-2.515-.323-3.433-1.207l.815-.816c.663.697 1.563.969 2.601.969 1.377 0 2.226-.493 2.226-1.479 0-.731-.425-1.139-1.393-1.224l-1.377-.119c-1.632-.136-2.499-.867-2.499-2.244 0-1.53 1.292-2.448 3.077-2.448 1.19 0 2.261.289 3.009.901l-.799.8c-.596-.459-1.361-.663-2.227-.663-1.224 0-1.87.526-1.87 1.376 0 .714.407 1.139 1.462 1.224l1.343.119zm-7.769 3.91c-.679.68-1.292.901-2.414.901-1.156 0-1.836-.221-2.363-.765-.407-.408-.629-1.037-.629-1.7 0-1.462 1.02-2.414 2.891-2.414h2.515v-.798c0-1.225-.612-1.836-2.142-1.836-1.071 0-1.615.255-2.108.951l-.833-.764c.748-.97 1.599-1.242 2.958-1.242 2.244 0 3.349.97 3.349 2.789v5.677h-1.224v-.799zm0-3.06h-2.345c-1.258 0-1.871.51-1.871 1.479 0 .969.595 1.428 1.921 1.428.714 0 1.343-.051 1.869-.561.289-.272.426-.748.426-1.445v-.901zm-8.942-1.309c0-1.462-.782-2.21-2.04-2.21s-2.091.765-2.091 2.21v5.168h-1.224V-.009h1.224v4.657c.612-.696 1.411-1.02 2.347-1.02 1.886 0 3.007 1.207 3.007 3.094v5.372h-1.223V6.926zm-10.438 4.182c.799 0 1.292-.255 1.921-.952l.833.799c-.867.935-1.598 1.241-2.754 1.241-2.108 0-3.706-1.428-3.706-4.284 0-2.855 1.598-4.284 3.706-4.284 1.156 0 1.887.307 2.754 1.242l-.833.781c-.629-.696-1.122-.935-1.921-.935-.815 0-1.496.324-1.938.952-.391.544-.543 1.19-.543 2.244 0 1.054.152 1.7.543 2.244.442.629 1.123.952 1.938.952zm-7.173-6.392c-1.224 0-2.006.97-2.006 2.244v5.134h-1.224V3.731h1.224V4.75c.459-.696 1.377-1.122 2.345-1.122.799 0 1.411.187 2.006.783l-.901.918c-.459-.459-.799-.613-1.444-.613zm-7.498 6.443c-.594.68-1.427 1.037-2.363 1.037-.9 0-1.648-.272-2.158-.782-.596-.578-.85-1.377-.85-2.346V3.731h1.224v5.15c0 1.479.782 2.227 2.04 2.227s2.09-.765 2.09-2.227v-5.15h1.224v8.363h-1.207v-.935zm-11.27-4.046h-3.213v4.981h-1.292V-.009h4.505c2.21 0 3.739 1.377 3.739 3.552 0 2.176-1.529 3.57-3.739 3.57zm2.447-3.57c0-1.597-1.053-2.396-2.566-2.396h-3.094v4.811h3.094c1.513 0 2.566-.816 2.566-2.415zM39.73 9.85V4.716h-1.054v-.934h1.054V1.164h1.223v2.618h1.785v.934h-1.785v5.1c0 .765.358 1.224 1.139 1.224h.646v1.054h-.867c-1.428 0-2.141-1.003-2.141-2.244zm-4.472 1.309c-.595.68-1.428 1.037-2.363 1.037-.901 0-1.649-.272-2.159-.782-.594-.578-.849-1.377-.849-2.346V3.731h1.223v5.15c0 1.479.783 2.227 2.04 2.227 1.258 0 2.091-.765 2.091-2.227v-5.15h1.224v8.363h-1.207v-.935zm-11.321 1.037c-1.021 0-1.82-.374-2.398-.952-.85-.867-1.019-2.04-1.019-3.332 0-1.292.169-2.465 1.019-3.331.578-.579 1.377-.953 2.398-.953 1.019 0 1.818.374 2.396.953.85.866 1.02 2.039 1.02 3.331 0 1.292-.17 2.465-1.02 3.332-.578.578-1.377.952-2.396.952zm1.529-6.867a2.144 2.144 0 0 0-1.529-.613c-.595 0-1.123.222-1.513.613-.612.611-.681 1.648-.681 2.583 0 .935.069 1.972.681 2.584.39.391.918.612 1.513.612.594 0 1.138-.221 1.529-.612.612-.612.663-1.649.663-2.584s-.051-1.972-.663-2.583zm-10.183 6.867c-.918 0-1.682-.221-2.363-1.105v1.003h-1.224V-.009h1.224V4.7c.681-.867 1.445-1.072 2.363-1.072.85 0 1.598.289 2.04.731.85.85 1.02 2.244 1.02 3.553 0 1.309-.17 2.703-1.02 3.553-.442.442-1.19.731-2.04.731zm-.255-7.48c-1.819 0-2.108 1.564-2.108 3.196 0 1.632.289 3.196 2.108 3.196 1.82 0 2.091-1.564 2.091-3.196 0-1.632-.271-3.196-2.091-3.196zM7.616 9.357H2.33l-.97 2.737H-.016L4.438-.009h1.087l4.437 12.103H8.585l-.969-2.737zM4.998 1.844L2.721 8.235h4.521L4.998 1.844z"/></svg>