<svg xmlns="http://www.w3.org/2000/svg" preserveAspectRatio="xMidYMid" width="119" height="17" viewBox="0 0 119 17"><path fill="#0075b8" d="M114.018 14.242c-.17.459-.357.764-.594.986-.443.424-1.037.577-1.633.577h-.526v-1.088h.374c.849 0 1.104-.272 1.377-1.036l.594-1.632-3.008-8.193h1.326l2.295 6.714 2.277-6.714h1.326l-3.808 10.386zm-6.273-7.174c0-1.479-.799-2.227-2.058-2.227-1.257 0-2.073.765-2.073 2.227v5.151h-1.223V3.856h1.223v.917c.595-.679 1.411-1.019 2.346-1.019.901 0 1.632.271 2.142.782.595.577.867 1.36.867 2.328v5.355h-1.224V7.068zm-9.554 4.352c-.679.68-1.292.901-2.414.901-1.156 0-1.836-.221-2.362-.765-.408-.408-.629-1.037-.629-1.7 0-1.462 1.02-2.414 2.89-2.414h2.515v-.798c0-1.225-.612-1.836-2.141-1.836-1.071 0-1.615.255-2.109.951l-.832-.764c.747-.97 1.598-1.241 2.957-1.241 2.245 0 3.349.969 3.349 2.787v5.678h-1.224v-.799zm0-3.06h-2.345c-1.258 0-1.87.51-1.87 1.479 0 .969.594 1.428 1.92 1.428.714 0 1.343-.051 1.871-.561.289-.272.424-.748.424-1.445V8.36zm-10.42 3.961c-.918 0-1.683-.221-2.363-1.088v4.725h-1.224V3.856h1.224v.985c.68-.884 1.445-1.087 2.363-1.087.849 0 1.597.288 2.04.73.849.85 1.019 2.244 1.019 3.553 0 1.309-.17 2.703-1.019 3.553-.443.442-1.191.731-2.04.731zm-.255-7.48c-1.819 0-2.108 1.564-2.108 3.196 0 1.632.289 3.196 2.108 3.196 1.818 0 2.09-1.564 2.09-3.196 0-1.632-.272-3.196-2.09-3.196zm-7.532 2.227c0-1.479-.798-2.227-2.056-2.227-1.225 0-2.092.765-2.092 2.091v5.287h-1.224V7.068c0-1.479-.799-2.227-2.056-2.227-1.258 0-2.091.765-2.091 2.227v5.151h-1.224V3.856h1.224v.917c.595-.679 1.428-1.019 2.363-1.019 1.155 0 2.057.475 2.567 1.393.645-.918 1.581-1.393 2.753-1.393.901 0 1.649.288 2.159.782.595.577.901 1.36.901 2.328v5.355h-1.224V7.068zm-16.778 5.253c-1.02 0-1.819-.374-2.397-.952-.85-.867-1.02-2.04-1.02-3.332 0-1.292.17-2.465 1.02-3.331.578-.579 1.377-.952 2.397-.952 1.02 0 1.818.373 2.397.952.849.866 1.019 2.039 1.019 3.331 0 1.292-.17 2.465-1.019 3.332-.579.578-1.377.952-2.397.952zm1.529-6.867a2.141 2.141 0 0 0-1.529-.613c-.595 0-1.122.222-1.513.613-.612.612-.68 1.648-.68 2.583 0 .935.068 1.972.68 2.584.391.391.918.612 1.513.612a2.14 2.14 0 0 0 1.529-.612c.613-.612.663-1.649.663-2.584s-.05-1.971-.663-2.583zm-11.339 5.711c1.514 0 2.584-.969 2.908-2.448h1.292c-.392 2.278-2.04 3.604-4.2 3.604-1.189 0-2.277-.442-3.093-1.258-1.139-1.139-1.139-2.329-1.139-4.895 0-2.567 0-3.757 1.139-4.896.816-.816 1.904-1.258 3.093-1.258 2.176 0 3.791 1.326 4.2 3.604H56.27c-.324-1.479-1.36-2.448-2.874-2.448-.798 0-1.563.305-2.09.85-.765.782-.85 1.615-.85 4.148 0 2.532.085 3.365.85 4.147.527.544 1.292.85 2.09.85zM39.73 9.975V4.841h-1.054v-.934h1.054V1.289h1.223v2.618h1.785v.934h-1.785v5.1c0 .765.358 1.224 1.139 1.224h.646v1.054h-.867c-1.428 0-2.141-1.003-2.141-2.244zm-4.472 1.309c-.595.68-1.428 1.037-2.363 1.037-.901 0-1.649-.272-2.159-.782-.594-.578-.849-1.377-.849-2.346V3.856h1.223v5.15c0 1.479.783 2.227 2.04 2.227 1.258 0 2.091-.765 2.091-2.227v-5.15h1.224v8.363h-1.207v-.935zm-11.321 1.037c-1.021 0-1.82-.374-2.398-.952-.85-.867-1.019-2.04-1.019-3.332 0-1.292.169-2.465 1.019-3.331.578-.579 1.377-.952 2.398-.952 1.019 0 1.818.373 2.396.952.85.866 1.02 2.039 1.02 3.331 0 1.292-.17 2.465-1.02 3.332-.578.578-1.377.952-2.396.952zm1.529-6.867a2.144 2.144 0 0 0-1.529-.613c-.595 0-1.123.222-1.513.613-.612.612-.681 1.648-.681 2.583 0 .935.069 1.972.681 2.584.39.391.918.612 1.513.612.594 0 1.138-.221 1.529-.612.612-.612.663-1.649.663-2.584s-.051-1.971-.663-2.583zm-10.183 6.867c-.918 0-1.682-.221-2.363-1.105v1.003h-1.224V.116h1.224v4.709c.681-.868 1.445-1.071 2.363-1.071.85 0 1.598.288 2.04.73.85.85 1.02 2.244 1.02 3.553 0 1.309-.17 2.703-1.02 3.553-.442.442-1.19.731-2.04.731zm-.255-7.48c-1.819 0-2.108 1.564-2.108 3.196 0 1.632.289 3.196 2.108 3.196 1.82 0 2.091-1.564 2.091-3.196 0-1.632-.271-3.196-2.091-3.196zM7.616 9.482H2.33l-.97 2.737H-.016L4.438.116h1.087l4.437 12.103H8.585l-.969-2.737zM4.998 1.969L2.721 8.36h4.521L4.998 1.969z"/></svg>